M48
; DRILL file {KiCad 6.0.11} date Fri 03 Feb 2023 11:15:22 PM MSK
; FORMAT={-:-/ absolute / metric / decimal}
; #@! TF.CreationDate,2023-02-03T23:15:22+03:00
; #@! TF.GenerationSoftware,Kicad,Pcbnew,6.0.11
; #@! TF.FileFunction,Plated,1,2,PTH
FMAT,2
METRIC
; #@! TA.AperFunction,Plated,PTH,ViaDrill
T1C0.300
; #@! TA.AperFunction,Plated,PTH,ViaDrill
T2C0.500
; #@! TA.AperFunction,Plated,PTH,ComponentDrill
T3C0.700
; #@! TA.AperFunction,Plated,PTH,ComponentDrill
T4C0.770
; #@! TA.AperFunction,Plated,PTH,ComponentDrill
T5C0.800
; #@! TA.AperFunction,Plated,PTH,ComponentDrill
T6C1.000
%
G90
G05
T1
X201.209Y-218.779
X202.01Y-218.79
X206.56Y-260.78
X207.35Y-211.269
X207.91Y-224.33
X209.569Y-210.469
X214.64Y-226.29
X218.27Y-205.61
X221.08Y-201.3
X221.52Y-206.65
X227.14Y-207.45
X227.64Y-209.08
X231.49Y-254.7
X232.61Y-262.14
X235.33Y-209.67
X239.329Y-208.77
X240.0Y-258.65
X242.27Y-262.18
X244.011Y-196.169
X244.68Y-208.23
X246.17Y-199.439
X250.09Y-211.48
X253.11Y-243.86
X254.76Y-261.0
X259.86Y-236.88
X260.88Y-282.9
X261.22Y-256.15
X267.37Y-235.97
X269.54Y-211.45
X269.75Y-237.05
X275.129Y-235.32
T2
X199.89Y-269.21
X201.9Y-238.3
X202.06Y-263.42
X202.24Y-212.73
T3
X275.64Y-244.62
X275.64Y-249.7
X276.06Y-262.47
X276.06Y-267.55
X276.11Y-254.45
X276.11Y-259.53
X276.22Y-270.61
X281.3Y-270.61
X293.64Y-241.83
X293.64Y-246.91
X293.76Y-228.97
X293.76Y-234.05
X293.81Y-216.7
X293.81Y-221.78
X293.94Y-257.42
X293.94Y-262.5
X296.42Y-241.81
X296.42Y-246.89
X296.45Y-228.99
X296.45Y-234.07
X296.6Y-216.71
X296.6Y-221.79
X296.77Y-257.47
X296.77Y-262.55
T4
X204.752Y-219.33
X204.752Y-221.87
X204.752Y-224.41
X204.752Y-226.95
X204.752Y-229.49
X204.752Y-232.03
X204.752Y-234.57
X204.88Y-244.28
X204.88Y-246.82
X204.88Y-249.36
X204.88Y-251.9
X204.88Y-254.44
X204.88Y-256.98
X204.88Y-259.52
X210.93Y-269.39
X210.93Y-271.93
X210.93Y-274.47
X210.93Y-277.01
X210.93Y-279.55
X210.93Y-282.09
X210.93Y-284.63
X212.692Y-219.33
X212.692Y-221.87
X212.692Y-224.41
X212.692Y-226.95
X212.692Y-229.49
X212.692Y-232.03
X212.692Y-234.57
X212.82Y-244.28
X212.82Y-246.82
X212.82Y-249.36
X212.82Y-251.9
X212.82Y-254.44
X212.82Y-256.98
X212.82Y-259.52
X218.87Y-269.39
X218.87Y-271.93
X218.87Y-274.47
X218.87Y-277.01
X218.87Y-279.55
X218.87Y-282.09
X218.87Y-284.63
X219.73Y-244.33
X219.73Y-246.87
X219.73Y-249.41
X219.73Y-251.95
X219.73Y-254.49
X219.73Y-257.03
X219.73Y-259.57
X219.78Y-219.33
X219.78Y-221.87
X219.78Y-224.41
X219.78Y-226.95
X219.78Y-229.49
X219.78Y-232.03
X219.78Y-234.57
X227.67Y-244.33
X227.67Y-246.87
X227.67Y-249.41
X227.67Y-251.95
X227.67Y-254.49
X227.67Y-257.03
X227.67Y-259.57
X227.72Y-219.33
X227.72Y-221.87
X227.72Y-224.41
X227.72Y-226.95
X227.72Y-229.49
X227.72Y-232.03
X227.72Y-234.57
X234.843Y-219.28
X234.843Y-221.82
X234.843Y-224.36
X234.843Y-226.9
X234.843Y-229.44
X234.843Y-231.98
X234.843Y-234.52
X234.843Y-244.33
X234.843Y-246.87
X234.843Y-249.41
X234.843Y-251.95
X234.843Y-254.49
X234.843Y-257.03
X234.843Y-259.57
X235.24Y-269.45
X235.24Y-271.99
X235.24Y-274.53
X235.24Y-277.07
X235.24Y-279.61
X235.24Y-282.15
X235.24Y-284.69
X242.782Y-219.28
X242.782Y-221.82
X242.782Y-224.36
X242.782Y-226.9
X242.782Y-229.44
X242.782Y-231.98
X242.782Y-234.52
X242.782Y-244.33
X242.782Y-246.87
X242.782Y-249.41
X242.782Y-251.95
X242.782Y-254.49
X242.782Y-257.03
X242.782Y-259.57
X243.18Y-269.45
X243.18Y-271.99
X243.18Y-274.53
X243.18Y-277.07
X243.18Y-279.61
X243.18Y-282.15
X243.18Y-284.69
X249.68Y-244.28
X249.68Y-246.82
X249.68Y-249.36
X249.68Y-251.9
X249.68Y-254.44
X249.68Y-256.98
X249.68Y-259.52
X249.742Y-219.28
X249.742Y-221.82
X249.742Y-224.36
X249.742Y-226.9
X249.742Y-229.44
X249.742Y-231.98
X249.742Y-234.52
X253.05Y-197.26
X253.05Y-205.2
X255.59Y-197.26
X255.59Y-205.2
X257.62Y-244.28
X257.62Y-246.82
X257.62Y-249.36
X257.62Y-251.9
X257.62Y-254.44
X257.62Y-256.98
X257.62Y-259.52
X257.683Y-219.28
X257.683Y-221.82
X257.683Y-224.36
X257.683Y-226.9
X257.683Y-229.44
X257.683Y-231.98
X257.683Y-234.52
X258.13Y-197.26
X258.13Y-205.2
X258.24Y-269.22
X258.24Y-271.76
X258.24Y-274.3
X258.24Y-276.84
X258.24Y-279.38
X258.24Y-281.92
X258.24Y-284.46
X260.67Y-197.26
X260.67Y-205.2
X263.21Y-197.26
X263.21Y-205.2
X264.73Y-244.33
X264.73Y-246.87
X264.73Y-249.41
X264.73Y-251.95
X264.73Y-254.49
X264.73Y-257.03
X264.73Y-259.57
X264.792Y-219.28
X264.792Y-221.82
X264.792Y-224.36
X264.792Y-226.9
X264.792Y-229.44
X264.792Y-231.98
X264.792Y-234.52
X265.75Y-197.26
X265.75Y-205.2
X266.18Y-269.22
X266.18Y-271.76
X266.18Y-274.3
X266.18Y-276.84
X266.18Y-279.38
X266.18Y-281.92
X266.18Y-284.46
X268.29Y-197.26
X268.29Y-205.2
X272.67Y-244.33
X272.67Y-246.87
X272.67Y-249.41
X272.67Y-251.95
X272.67Y-254.49
X272.67Y-257.03
X272.67Y-259.57
X272.733Y-219.28
X272.733Y-221.82
X272.733Y-224.36
X272.733Y-226.9
X272.733Y-229.44
X272.733Y-231.98
X272.733Y-234.52
X276.87Y-197.507
X276.87Y-205.447
X279.41Y-197.507
X279.41Y-205.447
X279.78Y-219.28
X279.78Y-221.82
X279.78Y-224.36
X279.78Y-226.9
X279.78Y-229.44
X279.78Y-231.98
X279.78Y-234.52
X279.892Y-244.33
X279.892Y-246.87
X279.892Y-249.41
X279.892Y-251.95
X279.892Y-254.49
X279.892Y-257.03
X279.892Y-259.57
X281.95Y-197.507
X281.95Y-205.447
X284.49Y-197.507
X284.49Y-205.447
X287.03Y-197.507
X287.03Y-205.447
X287.72Y-219.28
X287.72Y-221.82
X287.72Y-224.36
X287.72Y-226.9
X287.72Y-229.44
X287.72Y-231.98
X287.72Y-234.52
X287.832Y-244.33
X287.832Y-246.87
X287.832Y-249.41
X287.832Y-251.95
X287.832Y-254.49
X287.832Y-257.03
X287.832Y-259.57
X289.57Y-197.507
X289.57Y-205.447
X292.11Y-197.507
X292.11Y-205.447
T5
X206.2Y-215.47
X206.29Y-240.37
X207.097Y-201.82
X211.2Y-215.47
X211.29Y-240.37
X212.097Y-201.82
X212.27Y-265.52
X217.27Y-265.52
X221.05Y-240.41
X221.21Y-215.44
X226.05Y-240.41
X226.21Y-215.44
X236.26Y-215.37
X236.31Y-240.4
X236.54Y-265.53
X241.26Y-215.37
X241.31Y-240.4
X241.54Y-265.53
X248.78Y-198.79
X248.78Y-203.79
X251.13Y-240.34
X251.16Y-215.4
X256.13Y-240.34
X256.16Y-215.4
X259.46Y-265.32
X264.46Y-265.32
X266.07Y-240.25
X266.16Y-215.35
X271.07Y-240.25
X271.16Y-215.35
X272.71Y-198.98
X272.71Y-203.98
X281.37Y-240.42
X281.38Y-215.44
X286.37Y-240.42
X286.38Y-215.44
T6
X208.18Y-193.88
X210.72Y-193.88
X223.565Y-193.03
X223.905Y-202.12
X226.105Y-193.03
X226.445Y-202.12
X228.645Y-193.03
X228.985Y-202.12
X231.185Y-193.03
X231.525Y-202.12
X233.725Y-193.03
X234.065Y-202.12
X236.265Y-193.03
X236.605Y-202.12
X238.805Y-193.03
X239.145Y-202.12
X241.345Y-193.03
X241.685Y-202.12
X264.065Y-190.86
X266.605Y-190.86
X269.145Y-190.86
X271.685Y-190.86
X274.225Y-190.86
X276.765Y-190.86
X279.305Y-190.86
X281.845Y-190.86
X288.26Y-270.705
X290.8Y-270.705
T0
M30
