G04 #@! TF.GenerationSoftware,KiCad,Pcbnew,6.0.11*
G04 #@! TF.CreationDate,2023-02-03T23:15:02+03:00*
G04 #@! TF.ProjectId,sum-diff-device,73756d2d-6469-4666-962d-646576696365,rev?*
G04 #@! TF.SameCoordinates,Original*
G04 #@! TF.FileFunction,Copper,L2,Bot*
G04 #@! TF.FilePolarity,Positive*
%FSLAX46Y46*%
G04 Gerber Fmt 4.6, Leading zero omitted, Abs format (unit mm)*
G04 Created by KiCad (PCBNEW 6.0.11) date 2023-02-03 23:15:02*
%MOMM*%
%LPD*%
G01*
G04 APERTURE LIST*
G04 #@! TA.AperFunction,ComponentPad*
%ADD10C,1.600000*%
G04 #@! TD*
G04 #@! TA.AperFunction,ComponentPad*
%ADD11R,1.170000X1.170000*%
G04 #@! TD*
G04 #@! TA.AperFunction,ComponentPad*
%ADD12C,1.170000*%
G04 #@! TD*
G04 #@! TA.AperFunction,ComponentPad*
%ADD13C,1.400000*%
G04 #@! TD*
G04 #@! TA.AperFunction,ComponentPad*
%ADD14O,1.400000X1.400000*%
G04 #@! TD*
G04 #@! TA.AperFunction,ComponentPad*
%ADD15R,1.700000X1.700000*%
G04 #@! TD*
G04 #@! TA.AperFunction,ComponentPad*
%ADD16O,1.700000X1.700000*%
G04 #@! TD*
G04 #@! TA.AperFunction,ComponentPad*
%ADD17R,1.600000X1.600000*%
G04 #@! TD*
G04 #@! TA.AperFunction,ViaPad*
%ADD18C,1.000000*%
G04 #@! TD*
G04 #@! TA.AperFunction,ViaPad*
%ADD19C,0.600000*%
G04 #@! TD*
G04 #@! TA.AperFunction,Conductor*
%ADD20C,1.500000*%
G04 #@! TD*
G04 #@! TA.AperFunction,Conductor*
%ADD21C,0.600000*%
G04 #@! TD*
G04 APERTURE END LIST*
D10*
X251130000Y-240340000D03*
X256130000Y-240340000D03*
D11*
X204752500Y-219330000D03*
D12*
X204752500Y-221870000D03*
X204752500Y-224410000D03*
X204752500Y-226950000D03*
X204752500Y-229490000D03*
X204752500Y-232030000D03*
X204752500Y-234570000D03*
X212692500Y-234570000D03*
X212692500Y-232030000D03*
X212692500Y-229490000D03*
X212692500Y-226950000D03*
X212692500Y-224410000D03*
X212692500Y-221870000D03*
X212692500Y-219330000D03*
D10*
X259460000Y-265320000D03*
X264460000Y-265320000D03*
D13*
X296420000Y-241810000D03*
D14*
X296420000Y-246890000D03*
D13*
X293940000Y-262500000D03*
D14*
X293940000Y-257420000D03*
D11*
X276870000Y-205447500D03*
D12*
X279410000Y-205447500D03*
X281950000Y-205447500D03*
X284490000Y-205447500D03*
X287030000Y-205447500D03*
X289570000Y-205447500D03*
X292110000Y-205447500D03*
X292110000Y-197507500D03*
X289570000Y-197507500D03*
X287030000Y-197507500D03*
X284490000Y-197507500D03*
X281950000Y-197507500D03*
X279410000Y-197507500D03*
X276870000Y-197507500D03*
D13*
X276060000Y-262470000D03*
D14*
X276060000Y-267550000D03*
D11*
X210930000Y-269390000D03*
D12*
X210930000Y-271930000D03*
X210930000Y-274470000D03*
X210930000Y-277010000D03*
X210930000Y-279550000D03*
X210930000Y-282090000D03*
X210930000Y-284630000D03*
X218870000Y-284630000D03*
X218870000Y-282090000D03*
X218870000Y-279550000D03*
X218870000Y-277010000D03*
X218870000Y-274470000D03*
X218870000Y-271930000D03*
X218870000Y-269390000D03*
D11*
X249742500Y-219280000D03*
D12*
X249742500Y-221820000D03*
X249742500Y-224360000D03*
X249742500Y-226900000D03*
X249742500Y-229440000D03*
X249742500Y-231980000D03*
X249742500Y-234520000D03*
X257682500Y-234520000D03*
X257682500Y-231980000D03*
X257682500Y-229440000D03*
X257682500Y-226900000D03*
X257682500Y-224360000D03*
X257682500Y-221820000D03*
X257682500Y-219280000D03*
D13*
X296770000Y-262550000D03*
D14*
X296770000Y-257470000D03*
D11*
X279892500Y-244330000D03*
D12*
X279892500Y-246870000D03*
X279892500Y-249410000D03*
X279892500Y-251950000D03*
X279892500Y-254490000D03*
X279892500Y-257030000D03*
X279892500Y-259570000D03*
X287832500Y-259570000D03*
X287832500Y-257030000D03*
X287832500Y-254490000D03*
X287832500Y-251950000D03*
X287832500Y-249410000D03*
X287832500Y-246870000D03*
X287832500Y-244330000D03*
D10*
X236310000Y-240400000D03*
X241310000Y-240400000D03*
X206290000Y-240370000D03*
X211290000Y-240370000D03*
D11*
X234842500Y-244330000D03*
D12*
X234842500Y-246870000D03*
X234842500Y-249410000D03*
X234842500Y-251950000D03*
X234842500Y-254490000D03*
X234842500Y-257030000D03*
X234842500Y-259570000D03*
X242782500Y-259570000D03*
X242782500Y-257030000D03*
X242782500Y-254490000D03*
X242782500Y-251950000D03*
X242782500Y-249410000D03*
X242782500Y-246870000D03*
X242782500Y-244330000D03*
D13*
X293640000Y-241830000D03*
D14*
X293640000Y-246910000D03*
D10*
X251160000Y-215400000D03*
X256160000Y-215400000D03*
D13*
X275640000Y-244620000D03*
D14*
X275640000Y-249700000D03*
D13*
X296600000Y-216710000D03*
D14*
X296600000Y-221790000D03*
D10*
X206200000Y-215470000D03*
X211200000Y-215470000D03*
D15*
X241345000Y-193030000D03*
D16*
X238805000Y-193030000D03*
X236265000Y-193030000D03*
X233725000Y-193030000D03*
X231185000Y-193030000D03*
X228645000Y-193030000D03*
X226105000Y-193030000D03*
X223565000Y-193030000D03*
D10*
X281380000Y-215440000D03*
X286380000Y-215440000D03*
D13*
X296450000Y-234070000D03*
D14*
X296450000Y-228990000D03*
D11*
X279780000Y-219280000D03*
D12*
X279780000Y-221820000D03*
X279780000Y-224360000D03*
X279780000Y-226900000D03*
X279780000Y-229440000D03*
X279780000Y-231980000D03*
X279780000Y-234520000D03*
X287720000Y-234520000D03*
X287720000Y-231980000D03*
X287720000Y-229440000D03*
X287720000Y-226900000D03*
X287720000Y-224360000D03*
X287720000Y-221820000D03*
X287720000Y-219280000D03*
D13*
X293810000Y-216700000D03*
D14*
X293810000Y-221780000D03*
D10*
X212270000Y-265520000D03*
X217270000Y-265520000D03*
D15*
X281845000Y-190860000D03*
D16*
X279305000Y-190860000D03*
X276765000Y-190860000D03*
X274225000Y-190860000D03*
X271685000Y-190860000D03*
X269145000Y-190860000D03*
X266605000Y-190860000D03*
X264065000Y-190860000D03*
D10*
X272710000Y-203980000D03*
X272710000Y-198980000D03*
D11*
X253050000Y-205200000D03*
D12*
X255590000Y-205200000D03*
X258130000Y-205200000D03*
X260670000Y-205200000D03*
X263210000Y-205200000D03*
X265750000Y-205200000D03*
X268290000Y-205200000D03*
X268290000Y-197260000D03*
X265750000Y-197260000D03*
X263210000Y-197260000D03*
X260670000Y-197260000D03*
X258130000Y-197260000D03*
X255590000Y-197260000D03*
X253050000Y-197260000D03*
D10*
X221210000Y-215440000D03*
X226210000Y-215440000D03*
X236260000Y-215370000D03*
X241260000Y-215370000D03*
D11*
X235240000Y-269450000D03*
D12*
X235240000Y-271990000D03*
X235240000Y-274530000D03*
X235240000Y-277070000D03*
X235240000Y-279610000D03*
X235240000Y-282150000D03*
X235240000Y-284690000D03*
X243180000Y-284690000D03*
X243180000Y-282150000D03*
X243180000Y-279610000D03*
X243180000Y-277070000D03*
X243180000Y-274530000D03*
X243180000Y-271990000D03*
X243180000Y-269450000D03*
D15*
X210720000Y-193880000D03*
D16*
X208180000Y-193880000D03*
D13*
X293760000Y-234050000D03*
D14*
X293760000Y-228970000D03*
D11*
X258240000Y-269220000D03*
D12*
X258240000Y-271760000D03*
X258240000Y-274300000D03*
X258240000Y-276840000D03*
X258240000Y-279380000D03*
X258240000Y-281920000D03*
X258240000Y-284460000D03*
X266180000Y-284460000D03*
X266180000Y-281920000D03*
X266180000Y-279380000D03*
X266180000Y-276840000D03*
X266180000Y-274300000D03*
X266180000Y-271760000D03*
X266180000Y-269220000D03*
D13*
X276220000Y-270610000D03*
D14*
X281300000Y-270610000D03*
D10*
X266160000Y-215350000D03*
X271160000Y-215350000D03*
X281370000Y-240420000D03*
X286370000Y-240420000D03*
X248780000Y-203790000D03*
X248780000Y-198790000D03*
D11*
X219780000Y-219330000D03*
D12*
X219780000Y-221870000D03*
X219780000Y-224410000D03*
X219780000Y-226950000D03*
X219780000Y-229490000D03*
X219780000Y-232030000D03*
X219780000Y-234570000D03*
X227720000Y-234570000D03*
X227720000Y-232030000D03*
X227720000Y-229490000D03*
X227720000Y-226950000D03*
X227720000Y-224410000D03*
X227720000Y-221870000D03*
X227720000Y-219330000D03*
D10*
X266070000Y-240250000D03*
X271070000Y-240250000D03*
D11*
X234842500Y-219280000D03*
D12*
X234842500Y-221820000D03*
X234842500Y-224360000D03*
X234842500Y-226900000D03*
X234842500Y-229440000D03*
X234842500Y-231980000D03*
X234842500Y-234520000D03*
X242782500Y-234520000D03*
X242782500Y-231980000D03*
X242782500Y-229440000D03*
X242782500Y-226900000D03*
X242782500Y-224360000D03*
X242782500Y-221820000D03*
X242782500Y-219280000D03*
D11*
X219730000Y-244330000D03*
D12*
X219730000Y-246870000D03*
X219730000Y-249410000D03*
X219730000Y-251950000D03*
X219730000Y-254490000D03*
X219730000Y-257030000D03*
X219730000Y-259570000D03*
X227670000Y-259570000D03*
X227670000Y-257030000D03*
X227670000Y-254490000D03*
X227670000Y-251950000D03*
X227670000Y-249410000D03*
X227670000Y-246870000D03*
X227670000Y-244330000D03*
D15*
X241685000Y-202120000D03*
D16*
X239145000Y-202120000D03*
X236605000Y-202120000D03*
X234065000Y-202120000D03*
X231525000Y-202120000D03*
X228985000Y-202120000D03*
X226445000Y-202120000D03*
X223905000Y-202120000D03*
D13*
X276110000Y-254450000D03*
D14*
X276110000Y-259530000D03*
D11*
X264792500Y-219280000D03*
D12*
X264792500Y-221820000D03*
X264792500Y-224360000D03*
X264792500Y-226900000D03*
X264792500Y-229440000D03*
X264792500Y-231980000D03*
X264792500Y-234520000D03*
X272732500Y-234520000D03*
X272732500Y-231980000D03*
X272732500Y-229440000D03*
X272732500Y-226900000D03*
X272732500Y-224360000D03*
X272732500Y-221820000D03*
X272732500Y-219280000D03*
D15*
X288260000Y-270705000D03*
D16*
X290800000Y-270705000D03*
D17*
X207097349Y-201820000D03*
D10*
X212097349Y-201820000D03*
X221050000Y-240410000D03*
X226050000Y-240410000D03*
X236540000Y-265530000D03*
X241540000Y-265530000D03*
D11*
X264730000Y-244330000D03*
D12*
X264730000Y-246870000D03*
X264730000Y-249410000D03*
X264730000Y-251950000D03*
X264730000Y-254490000D03*
X264730000Y-257030000D03*
X264730000Y-259570000D03*
X272670000Y-259570000D03*
X272670000Y-257030000D03*
X272670000Y-254490000D03*
X272670000Y-251950000D03*
X272670000Y-249410000D03*
X272670000Y-246870000D03*
X272670000Y-244330000D03*
D11*
X204880000Y-244280000D03*
D12*
X204880000Y-246820000D03*
X204880000Y-249360000D03*
X204880000Y-251900000D03*
X204880000Y-254440000D03*
X204880000Y-256980000D03*
X204880000Y-259520000D03*
X212820000Y-259520000D03*
X212820000Y-256980000D03*
X212820000Y-254440000D03*
X212820000Y-251900000D03*
X212820000Y-249360000D03*
X212820000Y-246820000D03*
X212820000Y-244280000D03*
D11*
X249680000Y-244280000D03*
D12*
X249680000Y-246820000D03*
X249680000Y-249360000D03*
X249680000Y-251900000D03*
X249680000Y-254440000D03*
X249680000Y-256980000D03*
X249680000Y-259520000D03*
X257620000Y-259520000D03*
X257620000Y-256980000D03*
X257620000Y-254440000D03*
X257620000Y-251900000D03*
X257620000Y-249360000D03*
X257620000Y-246820000D03*
X257620000Y-244280000D03*
D18*
X201900000Y-238300000D03*
X199890000Y-269210000D03*
X202240000Y-212730000D03*
X202060000Y-263420000D03*
D19*
X275129418Y-235320082D03*
X201209500Y-218779500D03*
X209569315Y-210469315D03*
X214640000Y-226290000D03*
X207350000Y-211269315D03*
X202010000Y-218790000D03*
X207910000Y-224330000D03*
X227639668Y-209080332D03*
X244010685Y-196169315D03*
X221080000Y-201300000D03*
X232610000Y-262140000D03*
X235330000Y-209669815D03*
X253110000Y-243860000D03*
X250090000Y-211480000D03*
X269540000Y-211450000D03*
X259860000Y-236880000D03*
X267370000Y-235970000D03*
X269750000Y-237050000D03*
X206560000Y-260780000D03*
X231490000Y-254700000D03*
X254760000Y-261000000D03*
X242270000Y-262180000D03*
X261220000Y-256150000D03*
X260880000Y-282900000D03*
X246170000Y-199439336D03*
X240000000Y-258650000D03*
X244680000Y-208230000D03*
X239329500Y-208770500D03*
X227140000Y-207450000D03*
X221520000Y-206650000D03*
X218270000Y-205610000D03*
D20*
X199890000Y-238290000D02*
X199890000Y-262500000D01*
X199890000Y-262500000D02*
X199890000Y-263430000D01*
X208180000Y-193880000D02*
X208180000Y-200737349D01*
X199890000Y-212730000D02*
X202240000Y-212730000D01*
X199890000Y-213910000D02*
X199890000Y-215590000D01*
X208180000Y-200737349D02*
X207097349Y-201820000D01*
X199890000Y-263430000D02*
X199890000Y-269210000D01*
X199890000Y-208580000D02*
X199890000Y-212730000D01*
X207097349Y-201820000D02*
X202050000Y-201820000D01*
X199890000Y-238290000D02*
X201890000Y-238290000D01*
X199890000Y-263430000D02*
X202050000Y-263430000D01*
X199890000Y-203980000D02*
X199890000Y-208580000D01*
X201890000Y-238290000D02*
X201900000Y-238300000D01*
X199890000Y-212730000D02*
X199890000Y-215590000D01*
X199890000Y-215590000D02*
X199890000Y-238290000D01*
X202050000Y-201820000D02*
X199890000Y-203980000D01*
D21*
X241685000Y-202120000D02*
X244190000Y-202120000D01*
X270468630Y-208200000D02*
X277820000Y-215551370D01*
X277820000Y-215551370D02*
X277820000Y-220780000D01*
X278860000Y-221820000D02*
X279780000Y-221820000D01*
X244190000Y-202120000D02*
X244560000Y-202490000D01*
X277820000Y-220780000D02*
X278860000Y-221820000D01*
X244560000Y-205761370D02*
X246998630Y-208200000D01*
X244560000Y-202490000D02*
X244560000Y-205761370D01*
X246998630Y-208200000D02*
X270468630Y-208200000D01*
X270750000Y-207350000D02*
X279780000Y-216380000D01*
X247280000Y-207350000D02*
X270750000Y-207350000D01*
X245360000Y-205430000D02*
X247280000Y-207350000D01*
X279780000Y-216380000D02*
X279780000Y-219280000D01*
X243570000Y-193030000D02*
X245360000Y-194820000D01*
X245360000Y-194820000D02*
X245360000Y-205430000D01*
X241345000Y-193030000D02*
X243570000Y-193030000D01*
X283430000Y-250407500D02*
X279892500Y-246870000D01*
X275129418Y-235320082D02*
X275129418Y-236768047D01*
X278550000Y-240188629D02*
X278550000Y-245527500D01*
X275129418Y-236768047D02*
X278550000Y-240188629D01*
X283430000Y-262380000D02*
X283430000Y-250407500D01*
X278550000Y-245527500D02*
X279892500Y-246870000D01*
X288260000Y-267210000D02*
X283430000Y-262380000D01*
X288260000Y-270705000D02*
X288260000Y-267210000D01*
X284490000Y-196050000D02*
X284490000Y-197507500D01*
X281845000Y-190860000D02*
X281845000Y-193405000D01*
X281845000Y-193405000D02*
X284490000Y-196050000D01*
X291860000Y-228970000D02*
X293760000Y-228970000D01*
X287720000Y-231980000D02*
X288850000Y-231980000D01*
X288850000Y-231980000D02*
X291860000Y-228970000D01*
X296450000Y-227900000D02*
X296450000Y-228990000D01*
X294760000Y-226500000D02*
X295050000Y-226500000D01*
X290620000Y-226540000D02*
X294720000Y-226540000D01*
X295050000Y-226500000D02*
X296450000Y-227900000D01*
X287720000Y-229440000D02*
X290620000Y-226540000D01*
X294720000Y-226540000D02*
X294760000Y-226500000D01*
X288920000Y-224360000D02*
X291500000Y-221780000D01*
X291500000Y-221780000D02*
X293810000Y-221780000D01*
X287720000Y-224360000D02*
X288920000Y-224360000D01*
X291530000Y-219770000D02*
X294580000Y-219770000D01*
X289480000Y-221820000D02*
X291530000Y-219770000D01*
X287720000Y-221820000D02*
X289480000Y-221820000D01*
X294580000Y-219770000D02*
X296600000Y-221790000D01*
X276060000Y-267550000D02*
X281830000Y-261780000D01*
X281830000Y-261780000D02*
X281830000Y-256427500D01*
X281830000Y-256427500D02*
X279892500Y-254490000D01*
X282630000Y-269280000D02*
X282630000Y-254687500D01*
X282630000Y-254687500D02*
X279892500Y-251950000D01*
X281300000Y-270610000D02*
X282630000Y-269280000D01*
X201140000Y-218710000D02*
X201140000Y-215610000D01*
X201209500Y-218779500D02*
X201140000Y-218710000D01*
X201140000Y-215610000D02*
X206280685Y-210469315D01*
X206280685Y-210469315D02*
X209569315Y-210469315D01*
X203470000Y-245410000D02*
X203470000Y-240900000D01*
X207990000Y-233940000D02*
X206080000Y-232030000D01*
X207990000Y-236380000D02*
X207990000Y-233940000D01*
X203470000Y-240900000D02*
X207990000Y-236380000D01*
X206080000Y-232030000D02*
X204752500Y-232030000D01*
X204880000Y-246820000D02*
X203470000Y-245410000D01*
X212692500Y-221870000D02*
X214640000Y-223817500D01*
X214640000Y-223817500D02*
X214640000Y-226290000D01*
X202010000Y-218790000D02*
X202010000Y-215871370D01*
X206612055Y-211269315D02*
X207350000Y-211269315D01*
X202420685Y-215460685D02*
X206595685Y-211285685D01*
X206595685Y-211285685D02*
X206612055Y-211269315D01*
X202010000Y-215871370D02*
X202420685Y-215460685D01*
X203620000Y-228170000D02*
X205400000Y-228170000D01*
X202530000Y-240120000D02*
X203350000Y-239300000D01*
X203350000Y-239300000D02*
X203350000Y-235810000D01*
X202530000Y-247010000D02*
X202530000Y-245570000D01*
X202530000Y-245570000D02*
X202530000Y-240120000D01*
X207910000Y-226880000D02*
X207910000Y-224330000D01*
X207280000Y-227510000D02*
X207910000Y-226880000D01*
X206620000Y-228170000D02*
X207280000Y-227510000D01*
X202810000Y-228980000D02*
X203620000Y-228170000D01*
X204880000Y-249360000D02*
X202530000Y-247010000D01*
X202960000Y-235420000D02*
X202810000Y-235270000D01*
X202810000Y-235270000D02*
X202810000Y-228980000D01*
X205400000Y-228170000D02*
X206620000Y-228170000D01*
X203350000Y-235810000D02*
X202960000Y-235420000D01*
X210660000Y-256200000D02*
X211440000Y-256980000D01*
X215010000Y-246820000D02*
X215030000Y-246800000D01*
X210660000Y-251970000D02*
X210660000Y-256200000D01*
X215030000Y-230090000D02*
X215030000Y-244610000D01*
X215030000Y-246800000D02*
X215030000Y-249700000D01*
X212820000Y-246820000D02*
X215010000Y-246820000D01*
X218370000Y-225820000D02*
X218370000Y-226750000D01*
X215030000Y-244610000D02*
X215030000Y-246800000D01*
X218370000Y-226750000D02*
X215030000Y-230090000D01*
X211950000Y-250680000D02*
X210660000Y-251970000D01*
X215030000Y-249700000D02*
X214050000Y-250680000D01*
X211440000Y-256980000D02*
X212820000Y-256980000D01*
X214050000Y-250680000D02*
X211950000Y-250680000D01*
X219780000Y-224410000D02*
X218370000Y-225820000D01*
X244010685Y-196169315D02*
X231480685Y-196169315D01*
X227720000Y-234570000D02*
X229320000Y-234570000D01*
X231430000Y-196220000D02*
X228350000Y-199300000D01*
X229320000Y-234570000D02*
X230729315Y-233160685D01*
X221870000Y-199300000D02*
X221080000Y-200090000D01*
X221080000Y-200090000D02*
X221080000Y-201300000D01*
X230729315Y-212170685D02*
X227639668Y-209081038D01*
X228350000Y-199300000D02*
X221870000Y-199300000D01*
X231480685Y-196169315D02*
X231430000Y-196220000D01*
X227639668Y-209081038D02*
X227639668Y-209080332D01*
X230729315Y-233160685D02*
X230729315Y-212170685D01*
X227720000Y-232030000D02*
X227720000Y-232600000D01*
X229730000Y-265020000D02*
X229730000Y-268820000D01*
X222060000Y-246870000D02*
X219730000Y-246870000D01*
X232610000Y-262140000D02*
X229730000Y-265020000D01*
X232900000Y-271990000D02*
X235240000Y-271990000D01*
X223580000Y-236740000D02*
X223580000Y-245350000D01*
X229730000Y-268820000D02*
X232900000Y-271990000D01*
X227720000Y-232600000D02*
X223580000Y-236740000D01*
X223580000Y-245350000D02*
X222060000Y-246870000D01*
X222760000Y-244850000D02*
X222020000Y-245590000D01*
X217890000Y-250110000D02*
X219730000Y-251950000D01*
X222020000Y-245590000D02*
X219060000Y-245590000D01*
X222760000Y-236428630D02*
X222760000Y-244850000D01*
X224690000Y-251950000D02*
X225930000Y-250710000D01*
X230440000Y-252170000D02*
X230440000Y-253820000D01*
X228980000Y-250710000D02*
X230440000Y-252170000D01*
X230440000Y-253820000D02*
X229770000Y-254490000D01*
X217890000Y-246760000D02*
X217890000Y-250110000D01*
X225930000Y-250710000D02*
X228980000Y-250710000D01*
X219730000Y-251950000D02*
X224690000Y-251950000D01*
X225940000Y-233248630D02*
X222760000Y-236428630D01*
X227720000Y-226950000D02*
X225940000Y-228730000D01*
X219060000Y-245590000D02*
X217890000Y-246760000D01*
X225940000Y-228730000D02*
X225940000Y-233248630D01*
X229770000Y-254490000D02*
X227670000Y-254490000D01*
X243770000Y-228180000D02*
X245220000Y-229630000D01*
X237680000Y-250720000D02*
X237680000Y-246870000D01*
X237680000Y-246870000D02*
X234842500Y-246870000D01*
X245220000Y-230240000D02*
X245230000Y-230250000D01*
X234842500Y-211662500D02*
X233920000Y-210740000D01*
X236200000Y-208230000D02*
X238470000Y-210500000D01*
X238360000Y-273950000D02*
X238360000Y-251400000D01*
X234842500Y-219280000D02*
X234842500Y-211662500D01*
X235000000Y-208230000D02*
X236200000Y-208230000D01*
X245230000Y-230250000D02*
X245230000Y-239320000D01*
X245230000Y-239320000D02*
X237680000Y-246870000D01*
X240210000Y-228180000D02*
X243770000Y-228180000D01*
X235240000Y-277070000D02*
X238360000Y-273950000D01*
X233920000Y-209310000D02*
X235000000Y-208230000D01*
X238470000Y-210500000D02*
X238470000Y-226440000D01*
X233920000Y-210740000D02*
X233920000Y-209310000D01*
X245220000Y-229630000D02*
X245220000Y-230240000D01*
X238360000Y-251400000D02*
X237680000Y-250720000D01*
X238470000Y-226440000D02*
X240210000Y-228180000D01*
X235330000Y-209669815D02*
X237610000Y-211949815D01*
X237610000Y-221592500D02*
X234842500Y-224360000D01*
X237610000Y-211949815D02*
X237610000Y-221592500D01*
X236940000Y-253680000D02*
X236130000Y-254490000D01*
X232600000Y-249450000D02*
X233820000Y-250670000D01*
X233820000Y-250670000D02*
X236120000Y-250670000D01*
X232600000Y-243180000D02*
X232600000Y-244170000D01*
X236120000Y-250670000D02*
X236940000Y-251490000D01*
X242782500Y-234520000D02*
X239120000Y-234520000D01*
X236130000Y-254490000D02*
X234842500Y-254490000D01*
X236940000Y-251490000D02*
X236940000Y-253680000D01*
X232600000Y-241040000D02*
X232600000Y-243180000D01*
X234842500Y-244330000D02*
X232760000Y-244330000D01*
X232600000Y-244170000D02*
X232600000Y-249450000D01*
X239120000Y-234520000D02*
X232600000Y-241040000D01*
X232760000Y-244330000D02*
X232600000Y-244170000D01*
X239450000Y-254490000D02*
X239200000Y-254740000D01*
X250120000Y-225640000D02*
X250320000Y-225640000D01*
X239200000Y-280550000D02*
X237600000Y-282150000D01*
X247840000Y-224920000D02*
X248560000Y-225640000D01*
X242782500Y-246870000D02*
X239200000Y-250452500D01*
X249742500Y-219280000D02*
X248620000Y-219280000D01*
X251560000Y-226880000D02*
X251560000Y-229790000D01*
X239200000Y-254740000D02*
X239200000Y-280550000D01*
X237600000Y-282150000D02*
X235240000Y-282150000D01*
X251560000Y-229790000D02*
X251560000Y-235590000D01*
X251560000Y-235590000D02*
X252840000Y-236870000D01*
X253110000Y-237140000D02*
X253110000Y-243860000D01*
X247350000Y-224430000D02*
X247840000Y-224920000D01*
X247350000Y-220550000D02*
X247350000Y-224430000D01*
X248620000Y-219280000D02*
X247350000Y-220550000D01*
X250320000Y-225640000D02*
X251560000Y-226880000D01*
X239200000Y-250452500D02*
X239200000Y-254740000D01*
X242782500Y-254490000D02*
X239450000Y-254490000D01*
X248560000Y-225640000D02*
X250120000Y-225640000D01*
X252840000Y-236870000D02*
X253110000Y-237140000D01*
X251620000Y-211480000D02*
X253090000Y-212950000D01*
X253110000Y-212950000D02*
X253110000Y-220992500D01*
X253090000Y-212950000D02*
X253110000Y-212950000D01*
X253110000Y-220992500D02*
X249742500Y-224360000D01*
X250090000Y-211480000D02*
X251620000Y-211480000D01*
X251980000Y-245840000D02*
X251980000Y-243730000D01*
X249680000Y-246820000D02*
X251000000Y-246820000D01*
X246910000Y-238660000D02*
X246910000Y-234812500D01*
X251980000Y-243730000D02*
X246910000Y-238660000D01*
X246910000Y-234812500D02*
X249742500Y-231980000D01*
X251000000Y-246820000D02*
X251980000Y-245840000D01*
X261290000Y-228360000D02*
X258950000Y-230700000D01*
X255820000Y-227400000D02*
X256320000Y-226900000D01*
X256320000Y-226900000D02*
X257682500Y-226900000D01*
X269540000Y-211450000D02*
X267740000Y-213250000D01*
X267740000Y-221420000D02*
X266080000Y-223080000D01*
X256570000Y-230700000D02*
X255820000Y-229950000D01*
X263770000Y-223080000D02*
X261290000Y-225560000D01*
X255820000Y-229950000D02*
X255820000Y-227400000D01*
X266080000Y-223080000D02*
X263770000Y-223080000D01*
X258950000Y-230700000D02*
X256570000Y-230700000D01*
X261290000Y-225560000D02*
X261290000Y-228360000D01*
X267740000Y-213250000D02*
X267740000Y-221420000D01*
X258450000Y-254440000D02*
X257620000Y-254440000D01*
X259860000Y-236880000D02*
X259860000Y-253030000D01*
X250580000Y-284690000D02*
X251990000Y-286100000D01*
X257570000Y-262330000D02*
X249680000Y-254440000D01*
X251990000Y-286100000D02*
X260530000Y-286100000D01*
X243180000Y-284690000D02*
X250580000Y-284690000D01*
X259860000Y-253030000D02*
X258450000Y-254440000D01*
X259988630Y-262330000D02*
X257570000Y-262330000D01*
X260530000Y-286100000D02*
X262390000Y-284240000D01*
X260990000Y-266861370D02*
X260990000Y-263331370D01*
X260990000Y-263331370D02*
X259988630Y-262330000D01*
X262390000Y-284240000D02*
X262390000Y-268261370D01*
X262390000Y-268261370D02*
X260990000Y-266861370D01*
X262290000Y-229100000D02*
X259040000Y-232350000D01*
X264792500Y-224360000D02*
X262290000Y-226862500D01*
X259040000Y-232350000D02*
X259040000Y-245400000D01*
X259040000Y-245400000D02*
X257620000Y-246820000D01*
X262290000Y-226862500D02*
X262290000Y-229100000D01*
X289570000Y-197507500D02*
X289570000Y-199000000D01*
X285360000Y-220041370D02*
X285360000Y-232090000D01*
X275460000Y-234520000D02*
X272732500Y-234520000D01*
X285360000Y-232090000D02*
X281280000Y-236170000D01*
X294470000Y-203900000D02*
X294470000Y-210931370D01*
X289570000Y-199000000D02*
X294470000Y-203900000D01*
X281280000Y-236170000D02*
X277110000Y-236170000D01*
X294470000Y-210931370D02*
X285360000Y-220041370D01*
X277110000Y-236170000D02*
X275460000Y-234520000D01*
X264730000Y-251950000D02*
X267330000Y-251950000D01*
X267370000Y-235970000D02*
X267370000Y-248750000D01*
X267370000Y-251990000D02*
X269870000Y-254490000D01*
X267330000Y-251950000D02*
X267370000Y-251990000D01*
X269870000Y-254490000D02*
X272670000Y-254490000D01*
X267370000Y-248750000D02*
X267370000Y-251990000D01*
X270138630Y-237050000D02*
X274220000Y-241131370D01*
X274220000Y-280870000D02*
X268190000Y-286900000D01*
X268190000Y-286900000D02*
X242420000Y-286900000D01*
X269750000Y-237050000D02*
X270138630Y-237050000D01*
X240620000Y-275820000D02*
X241910000Y-274530000D01*
X240620000Y-285100000D02*
X240620000Y-275820000D01*
X242420000Y-286900000D02*
X240620000Y-285100000D01*
X274220000Y-241131370D02*
X274220000Y-280870000D01*
X241910000Y-274530000D02*
X243180000Y-274530000D01*
X284560000Y-219709999D02*
X284560000Y-229270000D01*
X290830000Y-213440000D02*
X284560000Y-219709999D01*
X287860000Y-200960000D02*
X290830000Y-203930000D01*
X281950000Y-197507500D02*
X285402500Y-200960000D01*
X281850000Y-231980000D02*
X279780000Y-231980000D01*
X285402500Y-200960000D02*
X287860000Y-200960000D01*
X284560000Y-229270000D02*
X281850000Y-231980000D01*
X290830000Y-203930000D02*
X290830000Y-213440000D01*
X210930000Y-269390000D02*
X207900000Y-266360000D01*
X207900000Y-266360000D02*
X207900000Y-260000000D01*
X207900000Y-260000000D02*
X204880000Y-256980000D01*
X212820000Y-259520000D02*
X213570000Y-260270000D01*
X213570000Y-260270000D02*
X213570000Y-269290000D01*
X213570000Y-269290000D02*
X210930000Y-271930000D01*
X214850000Y-269980000D02*
X216800000Y-271930000D01*
X214850000Y-253930000D02*
X214850000Y-269980000D01*
X216800000Y-271930000D02*
X218870000Y-271930000D01*
X212820000Y-251900000D02*
X214850000Y-253930000D01*
X206560000Y-260780000D02*
X206560000Y-271480000D01*
X209550000Y-274470000D02*
X210930000Y-274470000D01*
X206560000Y-271480000D02*
X209550000Y-274470000D01*
X213460000Y-275770000D02*
X219570000Y-275770000D01*
X219570000Y-275770000D02*
X221740000Y-273600000D01*
X212220000Y-277010000D02*
X213460000Y-275770000D01*
X221740000Y-273600000D02*
X221740000Y-259040000D01*
X221740000Y-259040000D02*
X219730000Y-257030000D01*
X210930000Y-277010000D02*
X212220000Y-277010000D01*
X219650000Y-270640000D02*
X220430000Y-271420000D01*
X217000000Y-270640000D02*
X219650000Y-270640000D01*
X227670000Y-259570000D02*
X226120000Y-259570000D01*
X220430000Y-271420000D02*
X220430000Y-272820000D01*
X208420000Y-276910000D02*
X208420000Y-278210000D01*
X211780000Y-275790000D02*
X209540000Y-275790000D01*
X209540000Y-275790000D02*
X208420000Y-276910000D01*
X222330000Y-255780000D02*
X219060000Y-255780000D01*
X220430000Y-272820000D02*
X220010000Y-273240000D01*
X209760000Y-279550000D02*
X210930000Y-279550000D01*
X208420000Y-278210000D02*
X209760000Y-279550000D01*
X214330000Y-273240000D02*
X211780000Y-275790000D01*
X220010000Y-273240000D02*
X214330000Y-273240000D01*
X226120000Y-259570000D02*
X222330000Y-255780000D01*
X215650000Y-259190000D02*
X215650000Y-269290000D01*
X219060000Y-255780000D02*
X215650000Y-259190000D01*
X215650000Y-269290000D02*
X217000000Y-270640000D01*
X228630000Y-258260000D02*
X229090000Y-258720000D01*
X227670000Y-251950000D02*
X224490000Y-255130000D01*
X224490000Y-255130000D02*
X224490000Y-256400000D01*
X229090000Y-260250000D02*
X228510000Y-260830000D01*
X224730000Y-260830000D02*
X222540000Y-263020000D01*
X224490000Y-256400000D02*
X226350000Y-258260000D01*
X226350000Y-258260000D02*
X228630000Y-258260000D01*
X222540000Y-278420000D02*
X218870000Y-282090000D01*
X222540000Y-263020000D02*
X222540000Y-278420000D01*
X228510000Y-260830000D02*
X224730000Y-260830000D01*
X229090000Y-258720000D02*
X229090000Y-260250000D01*
X231490000Y-258981370D02*
X223340000Y-267131370D01*
X219490000Y-283450000D02*
X217410000Y-283450000D01*
X217410000Y-283450000D02*
X216030000Y-282070000D01*
X216980000Y-279550000D02*
X218870000Y-279550000D01*
X216030000Y-280500000D02*
X216980000Y-279550000D01*
X223340000Y-279600000D02*
X219490000Y-283450000D01*
X223340000Y-267131370D02*
X223340000Y-279600000D01*
X216030000Y-282070000D02*
X216030000Y-280500000D01*
X231490000Y-254700000D02*
X231490000Y-258981370D01*
X214590000Y-279510000D02*
X217090000Y-277010000D01*
X220690000Y-286230000D02*
X217580000Y-286230000D01*
X217580000Y-286230000D02*
X214590000Y-283240000D01*
X227460000Y-279460000D02*
X220690000Y-286230000D01*
X217090000Y-277010000D02*
X218870000Y-277010000D01*
X214590000Y-283240000D02*
X214590000Y-279510000D01*
X227460000Y-264412500D02*
X227460000Y-279460000D01*
X234842500Y-257030000D02*
X227460000Y-264412500D01*
X253212500Y-270000000D02*
X257460000Y-270000000D01*
X242782500Y-259570000D02*
X253212500Y-270000000D01*
X257460000Y-270000000D02*
X258240000Y-269220000D01*
X253020000Y-271760000D02*
X258240000Y-271760000D01*
X241960000Y-255760000D02*
X241340000Y-256380000D01*
X241340000Y-256380000D02*
X241340000Y-260080000D01*
X244470000Y-254790000D02*
X243500000Y-255760000D01*
X243500000Y-255760000D02*
X241960000Y-255760000D01*
X242782500Y-251950000D02*
X244470000Y-253637500D01*
X244470000Y-253637500D02*
X244470000Y-254790000D01*
X241340000Y-260080000D02*
X253020000Y-271760000D01*
X254280000Y-250770000D02*
X254280000Y-257714422D01*
X265040000Y-271130000D02*
X265670000Y-271760000D01*
X249680000Y-249360000D02*
X252870000Y-249360000D01*
X265040000Y-269780000D02*
X265040000Y-271130000D01*
X261790000Y-266530000D02*
X265040000Y-269780000D01*
X261820000Y-263030000D02*
X261790000Y-263060000D01*
X265670000Y-271760000D02*
X266180000Y-271760000D01*
X257975578Y-261410000D02*
X260200000Y-261410000D01*
X254280000Y-257714422D02*
X257975578Y-261410000D01*
X260200000Y-261410000D02*
X261820000Y-263030000D01*
X261790000Y-263060000D02*
X261790000Y-266530000D01*
X252870000Y-249360000D02*
X254280000Y-250770000D01*
X259600000Y-272940000D02*
X258240000Y-274300000D01*
X251990000Y-261720000D02*
X258110000Y-267840000D01*
X258110000Y-267840000D02*
X259230000Y-267840000D01*
X251990000Y-259290000D02*
X251990000Y-261720000D01*
X259600000Y-268210000D02*
X259600000Y-272940000D01*
X259230000Y-267840000D02*
X259600000Y-268210000D01*
X249680000Y-256980000D02*
X251990000Y-259290000D01*
X254760000Y-261000000D02*
X254760000Y-263100000D01*
X260030000Y-276840000D02*
X258240000Y-276840000D01*
X259620000Y-266950000D02*
X261040000Y-268370000D01*
X261040000Y-268370000D02*
X261040000Y-275830000D01*
X258610000Y-266950000D02*
X259620000Y-266950000D01*
X254760000Y-263100000D02*
X258610000Y-266950000D01*
X261040000Y-275830000D02*
X260030000Y-276840000D01*
X252760000Y-276550000D02*
X255590000Y-279380000D01*
X255590000Y-279380000D02*
X258240000Y-279380000D01*
X252760000Y-272631370D02*
X252760000Y-276550000D01*
X242270000Y-262180000D02*
X242270000Y-262141371D01*
X242270000Y-262141371D02*
X252760000Y-272631370D01*
X263190000Y-280330000D02*
X263190000Y-275200000D01*
X265130000Y-273030000D02*
X266460000Y-273030000D01*
X267030000Y-273030000D02*
X267500000Y-272560000D01*
X266460000Y-273030000D02*
X267030000Y-273030000D01*
X267880000Y-272180000D02*
X267880000Y-264270000D01*
X264780000Y-281920000D02*
X263370000Y-280510000D01*
X265390000Y-261780000D02*
X263230000Y-261780000D01*
X266180000Y-281920000D02*
X264780000Y-281920000D01*
X267880000Y-264270000D02*
X265390000Y-261780000D01*
X265030000Y-273130000D02*
X265130000Y-273030000D01*
X263370000Y-280510000D02*
X263190000Y-280330000D01*
X263190000Y-274970000D02*
X265030000Y-273130000D01*
X267500000Y-272560000D02*
X267880000Y-272180000D01*
X263190000Y-275200000D02*
X263190000Y-274970000D01*
X261220000Y-259770000D02*
X261220000Y-256150000D01*
X263230000Y-261780000D02*
X261220000Y-259770000D01*
X264180000Y-276440000D02*
X265040000Y-275580000D01*
X265040000Y-275580000D02*
X266760000Y-275580000D01*
X268680000Y-273660000D02*
X268680000Y-260980000D01*
X268680000Y-260980000D02*
X264730000Y-257030000D01*
X266760000Y-275580000D02*
X268680000Y-273660000D01*
X264180000Y-278780000D02*
X264180000Y-276440000D01*
X266180000Y-279380000D02*
X264780000Y-279380000D01*
X264780000Y-279380000D02*
X264180000Y-278780000D01*
X267030000Y-276840000D02*
X272670000Y-271200000D01*
X272670000Y-271200000D02*
X272670000Y-259570000D01*
X266180000Y-276840000D02*
X267030000Y-276840000D01*
X241650000Y-280390000D02*
X241650000Y-276470000D01*
X243690000Y-275800000D02*
X245010000Y-274480000D01*
X259080000Y-280660000D02*
X253740000Y-280660000D01*
X244420000Y-271990000D02*
X243180000Y-271990000D01*
X241650000Y-276470000D02*
X242320000Y-275800000D01*
X245010000Y-272580000D02*
X244420000Y-271990000D01*
X260880000Y-282460000D02*
X259080000Y-280660000D01*
X253530000Y-280870000D02*
X242130000Y-280870000D01*
X260880000Y-282900000D02*
X260880000Y-282460000D01*
X253740000Y-280660000D02*
X253530000Y-280870000D01*
X242130000Y-280870000D02*
X241650000Y-280390000D01*
X245010000Y-274480000D02*
X245010000Y-272580000D01*
X242320000Y-275800000D02*
X243690000Y-275800000D01*
X276620000Y-230680000D02*
X274040000Y-233260000D01*
X277750000Y-247267500D02*
X279892500Y-249410000D01*
X279410000Y-210500152D02*
X283510000Y-214600152D01*
X271200000Y-236980000D02*
X274610000Y-240390000D01*
X283510000Y-214600152D02*
X283510000Y-229188630D01*
X271200000Y-234160000D02*
X271200000Y-236980000D01*
X277750000Y-242690000D02*
X277750000Y-247267500D01*
X282018630Y-230680000D02*
X276620000Y-230680000D01*
X275450000Y-240390000D02*
X277750000Y-242690000D01*
X274040000Y-233260000D02*
X272100000Y-233260000D01*
X274610000Y-240390000D02*
X275450000Y-240390000D01*
X279410000Y-205447500D02*
X279410000Y-210500152D01*
X283510000Y-229188630D02*
X282018630Y-230680000D01*
X272100000Y-233260000D02*
X271200000Y-234160000D01*
X261790000Y-243400000D02*
X261100000Y-244090000D01*
X263130000Y-227750000D02*
X263130000Y-229830000D01*
X261100000Y-244090000D02*
X261340000Y-244330000D01*
X263130000Y-229830000D02*
X261790000Y-231170000D01*
X269550000Y-209000000D02*
X246667259Y-209000000D01*
X261100000Y-244090000D02*
X261100000Y-252970000D01*
X244027741Y-207002741D02*
X239145000Y-202120000D01*
X269260000Y-214950000D02*
X270970000Y-213240000D01*
X244670000Y-207002741D02*
X244027741Y-207002741D01*
X246667259Y-209000000D02*
X244670000Y-207002741D01*
X261790000Y-231170000D02*
X261790000Y-243400000D01*
X270970000Y-213240000D02*
X270970000Y-210420000D01*
X269260000Y-222432500D02*
X269260000Y-214950000D01*
X270970000Y-210420000D02*
X269550000Y-209000000D01*
X264792500Y-226900000D02*
X269260000Y-222432500D01*
X271845000Y-256205000D02*
X272670000Y-257030000D01*
X261340000Y-244330000D02*
X264730000Y-244330000D01*
X264792500Y-226900000D02*
X263980000Y-226900000D01*
X261100000Y-252970000D02*
X263860000Y-255730000D01*
X263860000Y-255730000D02*
X271370000Y-255730000D01*
X263980000Y-226900000D02*
X263130000Y-227750000D01*
X271370000Y-255730000D02*
X271845000Y-256205000D01*
X248280000Y-248080000D02*
X247120000Y-249240000D01*
X245085000Y-210600000D02*
X251950000Y-210600000D01*
X257682500Y-231980000D02*
X254170000Y-231980000D01*
X254170000Y-231980000D02*
X253910000Y-231720000D01*
X251610000Y-247510000D02*
X251030000Y-248090000D01*
X251950000Y-210600000D02*
X253910000Y-212560000D01*
X247950000Y-251900000D02*
X249680000Y-251900000D01*
X253910000Y-249130000D02*
X254160000Y-249380000D01*
X247120000Y-249240000D02*
X247120000Y-251070000D01*
X257620000Y-249360000D02*
X254130000Y-249360000D01*
X253910000Y-247510000D02*
X253910000Y-249130000D01*
X253910000Y-247510000D02*
X251610000Y-247510000D01*
X253910000Y-212560000D02*
X253910000Y-231720000D01*
X251030000Y-248090000D02*
X248290000Y-248090000D01*
X247120000Y-251070000D02*
X247950000Y-251900000D01*
X236605000Y-202120000D02*
X245085000Y-210600000D01*
X248290000Y-248090000D02*
X248280000Y-248080000D01*
X253910000Y-231720000D02*
X253910000Y-247510000D01*
X238540000Y-206595000D02*
X238540000Y-207410000D01*
X238529500Y-209101870D02*
X239380000Y-209952370D01*
X244480000Y-257030000D02*
X242782500Y-257030000D01*
X238540000Y-207410000D02*
X238529500Y-207420500D01*
X234065000Y-202120000D02*
X238540000Y-206595000D01*
X245850000Y-244280000D02*
X245800000Y-244330000D01*
X239380000Y-209952370D02*
X239380000Y-220957500D01*
X245800000Y-244330000D02*
X245800000Y-255710000D01*
X249680000Y-244280000D02*
X245850000Y-244280000D01*
X246110000Y-244020000D02*
X245800000Y-244330000D01*
X239380000Y-220957500D02*
X242782500Y-224360000D01*
X245800000Y-255710000D02*
X244480000Y-257030000D01*
X242782500Y-224360000D02*
X246110000Y-227687500D01*
X246110000Y-227687500D02*
X246110000Y-244020000D01*
X238529500Y-207420500D02*
X238529500Y-209101870D01*
X244250000Y-231350000D02*
X244250000Y-232570000D01*
X233540000Y-226900000D02*
X234842500Y-226900000D01*
X238580000Y-233230000D02*
X231290000Y-240520000D01*
X232610000Y-252000000D02*
X232660000Y-251950000D01*
X231525000Y-210703630D02*
X232520000Y-211698630D01*
X244250000Y-232570000D02*
X243530000Y-233290000D01*
X241090000Y-233230000D02*
X238580000Y-233230000D01*
X234842500Y-226900000D02*
X236552500Y-228610000D01*
X231290000Y-240520000D02*
X231290000Y-249570000D01*
X232520000Y-211698630D02*
X232520000Y-225880000D01*
X231130000Y-249410000D02*
X231290000Y-249570000D01*
X232660000Y-251950000D02*
X234842500Y-251950000D01*
X243530000Y-233290000D02*
X241150000Y-233290000D01*
X231525000Y-202120000D02*
X231525000Y-210703630D01*
X232520000Y-225880000D02*
X233540000Y-226900000D01*
X243610000Y-230710000D02*
X244250000Y-231350000D01*
X241150000Y-233290000D02*
X241090000Y-233230000D01*
X231290000Y-250680000D02*
X232610000Y-252000000D01*
X240181371Y-230710000D02*
X243610000Y-230710000D01*
X231290000Y-249570000D02*
X231290000Y-250680000D01*
X238081371Y-228610000D02*
X240181371Y-230710000D01*
X236552500Y-228610000D02*
X238081371Y-228610000D01*
X227670000Y-249410000D02*
X231130000Y-249410000D01*
X221280000Y-217840000D02*
X222010000Y-218570000D01*
X216280000Y-240880000D02*
X219730000Y-244330000D01*
X220960000Y-204920000D02*
X219480000Y-206400000D01*
X219480000Y-216080000D02*
X221240000Y-217840000D01*
X228985000Y-202120000D02*
X226185000Y-204920000D01*
X219780000Y-226950000D02*
X216280000Y-230450000D01*
X222010000Y-218570000D02*
X222010000Y-226350000D01*
X221410000Y-226950000D02*
X219780000Y-226950000D01*
X221240000Y-217840000D02*
X221280000Y-217840000D01*
X219480000Y-206400000D02*
X219480000Y-216080000D01*
X226185000Y-204920000D02*
X220960000Y-204920000D01*
X222010000Y-226350000D02*
X221410000Y-226950000D01*
X216280000Y-230450000D02*
X216280000Y-240880000D01*
X210140000Y-232030000D02*
X209590000Y-232580000D01*
X217440000Y-205010000D02*
X217450000Y-205020000D01*
X217450000Y-205020000D02*
X217450000Y-218530000D01*
X210140000Y-232030000D02*
X212692500Y-232030000D01*
X216750000Y-225568630D02*
X214108630Y-228210000D01*
X218630000Y-203820000D02*
X217440000Y-205010000D01*
X209730000Y-249360000D02*
X209590000Y-249500000D01*
X209590000Y-250470000D02*
X208160000Y-251900000D01*
X224745000Y-203820000D02*
X218630000Y-203820000D01*
X217450000Y-218530000D02*
X217388630Y-218530000D01*
X226445000Y-202120000D02*
X224745000Y-203820000D01*
X217388630Y-218530000D02*
X216750000Y-219168630D01*
X210140000Y-229980000D02*
X210140000Y-232030000D01*
X216750000Y-219168630D02*
X216750000Y-225568630D01*
X212820000Y-249360000D02*
X209730000Y-249360000D01*
X209590000Y-232580000D02*
X209590000Y-249500000D01*
X214108630Y-228210000D02*
X211910000Y-228210000D01*
X209590000Y-249500000D02*
X209590000Y-250470000D01*
X208160000Y-251900000D02*
X204880000Y-251900000D01*
X211910000Y-228210000D02*
X210140000Y-229980000D01*
X210280000Y-212210000D02*
X210280000Y-213730000D01*
X217840000Y-202120000D02*
X216640000Y-203320000D01*
X223905000Y-202120000D02*
X217840000Y-202120000D01*
X216640000Y-203320000D02*
X216640000Y-205850000D01*
X208790000Y-223367500D02*
X208790000Y-242840000D01*
X210280000Y-213730000D02*
X204752500Y-219257500D01*
X204752500Y-219330000D02*
X208790000Y-223367500D01*
X204752500Y-219257500D02*
X204752500Y-219330000D01*
X207350000Y-244280000D02*
X204880000Y-244280000D01*
X208790000Y-242840000D02*
X207350000Y-244280000D01*
X216640000Y-205850000D02*
X210280000Y-212210000D01*
X268760000Y-229560000D02*
X268760000Y-230140000D01*
X240000000Y-261100000D02*
X240000000Y-258650000D01*
X282680000Y-220454422D02*
X282680000Y-214901522D01*
X247611370Y-206550000D02*
X246170000Y-205108630D01*
X246000000Y-267320000D02*
X245370685Y-266690685D01*
X240000000Y-261340000D02*
X240000000Y-261100000D01*
X243180000Y-279610000D02*
X246000000Y-276790000D01*
X268760000Y-226830000D02*
X271230000Y-224360000D01*
X270600000Y-231980000D02*
X272732500Y-231980000D01*
X262920000Y-248680000D02*
X262920000Y-252680000D01*
X277875578Y-224360000D02*
X279330578Y-222905000D01*
X245350685Y-266690685D02*
X240000000Y-261340000D01*
X246000000Y-276790000D02*
X246000000Y-267320000D01*
X262590000Y-242220000D02*
X263020000Y-242650000D01*
X274328478Y-206550000D02*
X247611370Y-206550000D01*
X268640000Y-229440000D02*
X268760000Y-229560000D01*
X245370685Y-266690685D02*
X245350685Y-266690685D01*
X282680000Y-214901522D02*
X274328478Y-206550000D01*
X262590000Y-231642500D02*
X262590000Y-242220000D01*
X272732500Y-224360000D02*
X277875578Y-224360000D01*
X268760000Y-230140000D02*
X270600000Y-231980000D01*
X264730000Y-246870000D02*
X262920000Y-248680000D01*
X263020000Y-242650000D02*
X266040000Y-242650000D01*
X266040000Y-242650000D02*
X266440000Y-243050000D01*
X246170000Y-205108630D02*
X246170000Y-199439336D01*
X266440000Y-245160000D02*
X264730000Y-246870000D01*
X279330578Y-222905000D02*
X280229422Y-222905000D01*
X268760000Y-229560000D02*
X268760000Y-226830000D01*
X264792500Y-229440000D02*
X268640000Y-229440000D01*
X264792500Y-229440000D02*
X262590000Y-231642500D01*
X266440000Y-243050000D02*
X266440000Y-245160000D01*
X262920000Y-252680000D02*
X264730000Y-254490000D01*
X280229422Y-222905000D02*
X282680000Y-220454422D01*
X271230000Y-224360000D02*
X272732500Y-224360000D01*
X244680000Y-208230000D02*
X246250000Y-209800000D01*
X260530000Y-219280000D02*
X260490000Y-219320000D01*
X260490000Y-219320000D02*
X260490000Y-227940000D01*
X258990000Y-229440000D02*
X257682500Y-229440000D01*
X257650000Y-209800000D02*
X260490000Y-212640000D01*
X260490000Y-227940000D02*
X258990000Y-229440000D01*
X260490000Y-212640000D02*
X260490000Y-219320000D01*
X246250000Y-209800000D02*
X257650000Y-209800000D01*
X264792500Y-219280000D02*
X260530000Y-219280000D01*
X247540000Y-226900000D02*
X249742500Y-226900000D01*
X245470000Y-213900000D02*
X245470000Y-221900000D01*
X245470000Y-221900000D02*
X245470000Y-224830000D01*
X242782500Y-221820000D02*
X245390000Y-221820000D01*
X245390000Y-221820000D02*
X245470000Y-221900000D01*
X245470000Y-224830000D02*
X247540000Y-226900000D01*
X243050500Y-211480500D02*
X245470000Y-213900000D01*
X242039500Y-211480500D02*
X243050500Y-211480500D01*
X239329500Y-208770500D02*
X242039500Y-211480500D01*
X231720000Y-212030000D02*
X231720000Y-228130000D01*
X234842500Y-229440000D02*
X237780000Y-229440000D01*
X231720000Y-228130000D02*
X233030000Y-229440000D01*
X237780000Y-229440000D02*
X240320000Y-231980000D01*
X233030000Y-229440000D02*
X234842500Y-229440000D01*
X240320000Y-231980000D02*
X242782500Y-231980000D01*
X227140000Y-207450000D02*
X231720000Y-212030000D01*
X227720000Y-224410000D02*
X224190000Y-224410000D01*
X223980000Y-227480000D02*
X221970000Y-229490000D01*
X224190000Y-224410000D02*
X223980000Y-224620000D01*
X222160000Y-206650000D02*
X223980000Y-208470000D01*
X223980000Y-224620000D02*
X223980000Y-227480000D01*
X223980000Y-208470000D02*
X223980000Y-224620000D01*
X221520000Y-206650000D02*
X222160000Y-206650000D01*
X221970000Y-229490000D02*
X219780000Y-229490000D01*
X213960000Y-229490000D02*
X212692500Y-229490000D01*
X218270000Y-205610000D02*
X218250000Y-205630000D01*
X218350000Y-219330000D02*
X217720000Y-219330000D01*
X219780000Y-219330000D02*
X218350000Y-219330000D01*
X218250000Y-219230000D02*
X218350000Y-219330000D01*
X217720000Y-219330000D02*
X217550000Y-219500000D01*
X218250000Y-205630000D02*
X218250000Y-219230000D01*
X217550000Y-219500000D02*
X217550000Y-225900000D01*
X217550000Y-225900000D02*
X213960000Y-229490000D01*
X203250000Y-216581522D02*
X203250000Y-221770000D01*
X215770000Y-205400000D02*
X209770000Y-211400000D01*
X208431522Y-211400000D02*
X203250000Y-216581522D01*
X203350000Y-221870000D02*
X203250000Y-221770000D01*
X203250000Y-221770000D02*
X203250000Y-225447500D01*
X215770000Y-200825000D02*
X215770000Y-205400000D01*
X204752500Y-221870000D02*
X203350000Y-221870000D01*
X223565000Y-193030000D02*
X215770000Y-200825000D01*
X203250000Y-225447500D02*
X204752500Y-226950000D01*
X209770000Y-211400000D02*
X208431522Y-211400000D01*
X290800000Y-270705000D02*
X290800000Y-267370000D01*
X281960000Y-244330000D02*
X279892500Y-244330000D01*
X285150000Y-261720000D02*
X285150000Y-247520000D01*
X290800000Y-267370000D02*
X285150000Y-261720000D01*
X285150000Y-247520000D02*
X281960000Y-244330000D01*
X279305000Y-190860000D02*
X279305000Y-189515000D01*
X292110000Y-196310000D02*
X292110000Y-197507500D01*
X284940000Y-189140000D02*
X292110000Y-196310000D01*
X279680000Y-189140000D02*
X284940000Y-189140000D01*
X279305000Y-189515000D02*
X279680000Y-189140000D01*
X276765000Y-190860000D02*
X275025000Y-192600000D01*
X279471370Y-201760000D02*
X285882500Y-201760000D01*
X275025000Y-197313630D02*
X279471370Y-201760000D01*
X275025000Y-192600000D02*
X275025000Y-197313630D01*
X285882500Y-201760000D02*
X289570000Y-205447500D01*
X275270000Y-198690000D02*
X275270000Y-198767500D01*
X275270000Y-198767500D02*
X281950000Y-205447500D01*
X274225000Y-190860000D02*
X274225000Y-197645000D01*
X274225000Y-197645000D02*
X275270000Y-198690000D01*
X262920000Y-189220000D02*
X260670000Y-191470000D01*
X270045000Y-189220000D02*
X262920000Y-189220000D01*
X260670000Y-191470000D02*
X260670000Y-197260000D01*
X271685000Y-190860000D02*
X270045000Y-189220000D01*
X269145000Y-196405000D02*
X268290000Y-197260000D01*
X269145000Y-190860000D02*
X269145000Y-196405000D01*
X267020000Y-195700000D02*
X267020000Y-203930000D01*
X266605000Y-195285000D02*
X267020000Y-195700000D01*
X267020000Y-203930000D02*
X265750000Y-205200000D01*
X266605000Y-190860000D02*
X266605000Y-195285000D01*
X264065000Y-192775000D02*
X261940000Y-194900000D01*
X264065000Y-190860000D02*
X264065000Y-192775000D01*
X261940000Y-199440000D02*
X258130000Y-203250000D01*
X258130000Y-203250000D02*
X258130000Y-205200000D01*
X261940000Y-194900000D02*
X261940000Y-199440000D01*
M02*
