G04 #@! TF.GenerationSoftware,KiCad,Pcbnew,6.0.11*
G04 #@! TF.CreationDate,2023-02-03T23:15:02+03:00*
G04 #@! TF.ProjectId,sum-diff-device,73756d2d-6469-4666-962d-646576696365,rev?*
G04 #@! TF.SameCoordinates,Original*
G04 #@! TF.FileFunction,Copper,L1,Top*
G04 #@! TF.FilePolarity,Positive*
%FSLAX46Y46*%
G04 Gerber Fmt 4.6, Leading zero omitted, Abs format (unit mm)*
G04 Created by KiCad (PCBNEW 6.0.11) date 2023-02-03 23:15:02*
%MOMM*%
%LPD*%
G01*
G04 APERTURE LIST*
G04 #@! TA.AperFunction,ComponentPad*
%ADD10C,1.600000*%
G04 #@! TD*
G04 #@! TA.AperFunction,ComponentPad*
%ADD11R,1.170000X1.170000*%
G04 #@! TD*
G04 #@! TA.AperFunction,ComponentPad*
%ADD12C,1.170000*%
G04 #@! TD*
G04 #@! TA.AperFunction,ComponentPad*
%ADD13C,1.400000*%
G04 #@! TD*
G04 #@! TA.AperFunction,ComponentPad*
%ADD14O,1.400000X1.400000*%
G04 #@! TD*
G04 #@! TA.AperFunction,ComponentPad*
%ADD15R,1.700000X1.700000*%
G04 #@! TD*
G04 #@! TA.AperFunction,ComponentPad*
%ADD16O,1.700000X1.700000*%
G04 #@! TD*
G04 #@! TA.AperFunction,ComponentPad*
%ADD17R,1.600000X1.600000*%
G04 #@! TD*
G04 #@! TA.AperFunction,ViaPad*
%ADD18C,1.000000*%
G04 #@! TD*
G04 #@! TA.AperFunction,ViaPad*
%ADD19C,0.600000*%
G04 #@! TD*
G04 #@! TA.AperFunction,Conductor*
%ADD20C,1.500000*%
G04 #@! TD*
G04 #@! TA.AperFunction,Conductor*
%ADD21C,0.600000*%
G04 #@! TD*
G04 APERTURE END LIST*
D10*
X251130000Y-240340000D03*
X256130000Y-240340000D03*
D11*
X204752500Y-219330000D03*
D12*
X204752500Y-221870000D03*
X204752500Y-224410000D03*
X204752500Y-226950000D03*
X204752500Y-229490000D03*
X204752500Y-232030000D03*
X204752500Y-234570000D03*
X212692500Y-234570000D03*
X212692500Y-232030000D03*
X212692500Y-229490000D03*
X212692500Y-226950000D03*
X212692500Y-224410000D03*
X212692500Y-221870000D03*
X212692500Y-219330000D03*
D10*
X259460000Y-265320000D03*
X264460000Y-265320000D03*
D13*
X296420000Y-241810000D03*
D14*
X296420000Y-246890000D03*
D13*
X293940000Y-262500000D03*
D14*
X293940000Y-257420000D03*
D11*
X276870000Y-205447500D03*
D12*
X279410000Y-205447500D03*
X281950000Y-205447500D03*
X284490000Y-205447500D03*
X287030000Y-205447500D03*
X289570000Y-205447500D03*
X292110000Y-205447500D03*
X292110000Y-197507500D03*
X289570000Y-197507500D03*
X287030000Y-197507500D03*
X284490000Y-197507500D03*
X281950000Y-197507500D03*
X279410000Y-197507500D03*
X276870000Y-197507500D03*
D13*
X276060000Y-262470000D03*
D14*
X276060000Y-267550000D03*
D11*
X210930000Y-269390000D03*
D12*
X210930000Y-271930000D03*
X210930000Y-274470000D03*
X210930000Y-277010000D03*
X210930000Y-279550000D03*
X210930000Y-282090000D03*
X210930000Y-284630000D03*
X218870000Y-284630000D03*
X218870000Y-282090000D03*
X218870000Y-279550000D03*
X218870000Y-277010000D03*
X218870000Y-274470000D03*
X218870000Y-271930000D03*
X218870000Y-269390000D03*
D11*
X249742500Y-219280000D03*
D12*
X249742500Y-221820000D03*
X249742500Y-224360000D03*
X249742500Y-226900000D03*
X249742500Y-229440000D03*
X249742500Y-231980000D03*
X249742500Y-234520000D03*
X257682500Y-234520000D03*
X257682500Y-231980000D03*
X257682500Y-229440000D03*
X257682500Y-226900000D03*
X257682500Y-224360000D03*
X257682500Y-221820000D03*
X257682500Y-219280000D03*
D13*
X296770000Y-262550000D03*
D14*
X296770000Y-257470000D03*
D11*
X279892500Y-244330000D03*
D12*
X279892500Y-246870000D03*
X279892500Y-249410000D03*
X279892500Y-251950000D03*
X279892500Y-254490000D03*
X279892500Y-257030000D03*
X279892500Y-259570000D03*
X287832500Y-259570000D03*
X287832500Y-257030000D03*
X287832500Y-254490000D03*
X287832500Y-251950000D03*
X287832500Y-249410000D03*
X287832500Y-246870000D03*
X287832500Y-244330000D03*
D10*
X236310000Y-240400000D03*
X241310000Y-240400000D03*
X206290000Y-240370000D03*
X211290000Y-240370000D03*
D11*
X234842500Y-244330000D03*
D12*
X234842500Y-246870000D03*
X234842500Y-249410000D03*
X234842500Y-251950000D03*
X234842500Y-254490000D03*
X234842500Y-257030000D03*
X234842500Y-259570000D03*
X242782500Y-259570000D03*
X242782500Y-257030000D03*
X242782500Y-254490000D03*
X242782500Y-251950000D03*
X242782500Y-249410000D03*
X242782500Y-246870000D03*
X242782500Y-244330000D03*
D13*
X293640000Y-241830000D03*
D14*
X293640000Y-246910000D03*
D10*
X251160000Y-215400000D03*
X256160000Y-215400000D03*
D13*
X275640000Y-244620000D03*
D14*
X275640000Y-249700000D03*
D13*
X296600000Y-216710000D03*
D14*
X296600000Y-221790000D03*
D10*
X206200000Y-215470000D03*
X211200000Y-215470000D03*
D15*
X241345000Y-193030000D03*
D16*
X238805000Y-193030000D03*
X236265000Y-193030000D03*
X233725000Y-193030000D03*
X231185000Y-193030000D03*
X228645000Y-193030000D03*
X226105000Y-193030000D03*
X223565000Y-193030000D03*
D10*
X281380000Y-215440000D03*
X286380000Y-215440000D03*
D13*
X296450000Y-234070000D03*
D14*
X296450000Y-228990000D03*
D11*
X279780000Y-219280000D03*
D12*
X279780000Y-221820000D03*
X279780000Y-224360000D03*
X279780000Y-226900000D03*
X279780000Y-229440000D03*
X279780000Y-231980000D03*
X279780000Y-234520000D03*
X287720000Y-234520000D03*
X287720000Y-231980000D03*
X287720000Y-229440000D03*
X287720000Y-226900000D03*
X287720000Y-224360000D03*
X287720000Y-221820000D03*
X287720000Y-219280000D03*
D13*
X293810000Y-216700000D03*
D14*
X293810000Y-221780000D03*
D10*
X212270000Y-265520000D03*
X217270000Y-265520000D03*
D15*
X281845000Y-190860000D03*
D16*
X279305000Y-190860000D03*
X276765000Y-190860000D03*
X274225000Y-190860000D03*
X271685000Y-190860000D03*
X269145000Y-190860000D03*
X266605000Y-190860000D03*
X264065000Y-190860000D03*
D10*
X272710000Y-203980000D03*
X272710000Y-198980000D03*
D11*
X253050000Y-205200000D03*
D12*
X255590000Y-205200000D03*
X258130000Y-205200000D03*
X260670000Y-205200000D03*
X263210000Y-205200000D03*
X265750000Y-205200000D03*
X268290000Y-205200000D03*
X268290000Y-197260000D03*
X265750000Y-197260000D03*
X263210000Y-197260000D03*
X260670000Y-197260000D03*
X258130000Y-197260000D03*
X255590000Y-197260000D03*
X253050000Y-197260000D03*
D10*
X221210000Y-215440000D03*
X226210000Y-215440000D03*
X236260000Y-215370000D03*
X241260000Y-215370000D03*
D11*
X235240000Y-269450000D03*
D12*
X235240000Y-271990000D03*
X235240000Y-274530000D03*
X235240000Y-277070000D03*
X235240000Y-279610000D03*
X235240000Y-282150000D03*
X235240000Y-284690000D03*
X243180000Y-284690000D03*
X243180000Y-282150000D03*
X243180000Y-279610000D03*
X243180000Y-277070000D03*
X243180000Y-274530000D03*
X243180000Y-271990000D03*
X243180000Y-269450000D03*
D15*
X210720000Y-193880000D03*
D16*
X208180000Y-193880000D03*
D13*
X293760000Y-234050000D03*
D14*
X293760000Y-228970000D03*
D11*
X258240000Y-269220000D03*
D12*
X258240000Y-271760000D03*
X258240000Y-274300000D03*
X258240000Y-276840000D03*
X258240000Y-279380000D03*
X258240000Y-281920000D03*
X258240000Y-284460000D03*
X266180000Y-284460000D03*
X266180000Y-281920000D03*
X266180000Y-279380000D03*
X266180000Y-276840000D03*
X266180000Y-274300000D03*
X266180000Y-271760000D03*
X266180000Y-269220000D03*
D13*
X276220000Y-270610000D03*
D14*
X281300000Y-270610000D03*
D10*
X266160000Y-215350000D03*
X271160000Y-215350000D03*
X281370000Y-240420000D03*
X286370000Y-240420000D03*
X248780000Y-203790000D03*
X248780000Y-198790000D03*
D11*
X219780000Y-219330000D03*
D12*
X219780000Y-221870000D03*
X219780000Y-224410000D03*
X219780000Y-226950000D03*
X219780000Y-229490000D03*
X219780000Y-232030000D03*
X219780000Y-234570000D03*
X227720000Y-234570000D03*
X227720000Y-232030000D03*
X227720000Y-229490000D03*
X227720000Y-226950000D03*
X227720000Y-224410000D03*
X227720000Y-221870000D03*
X227720000Y-219330000D03*
D10*
X266070000Y-240250000D03*
X271070000Y-240250000D03*
D11*
X234842500Y-219280000D03*
D12*
X234842500Y-221820000D03*
X234842500Y-224360000D03*
X234842500Y-226900000D03*
X234842500Y-229440000D03*
X234842500Y-231980000D03*
X234842500Y-234520000D03*
X242782500Y-234520000D03*
X242782500Y-231980000D03*
X242782500Y-229440000D03*
X242782500Y-226900000D03*
X242782500Y-224360000D03*
X242782500Y-221820000D03*
X242782500Y-219280000D03*
D11*
X219730000Y-244330000D03*
D12*
X219730000Y-246870000D03*
X219730000Y-249410000D03*
X219730000Y-251950000D03*
X219730000Y-254490000D03*
X219730000Y-257030000D03*
X219730000Y-259570000D03*
X227670000Y-259570000D03*
X227670000Y-257030000D03*
X227670000Y-254490000D03*
X227670000Y-251950000D03*
X227670000Y-249410000D03*
X227670000Y-246870000D03*
X227670000Y-244330000D03*
D15*
X241685000Y-202120000D03*
D16*
X239145000Y-202120000D03*
X236605000Y-202120000D03*
X234065000Y-202120000D03*
X231525000Y-202120000D03*
X228985000Y-202120000D03*
X226445000Y-202120000D03*
X223905000Y-202120000D03*
D13*
X276110000Y-254450000D03*
D14*
X276110000Y-259530000D03*
D11*
X264792500Y-219280000D03*
D12*
X264792500Y-221820000D03*
X264792500Y-224360000D03*
X264792500Y-226900000D03*
X264792500Y-229440000D03*
X264792500Y-231980000D03*
X264792500Y-234520000D03*
X272732500Y-234520000D03*
X272732500Y-231980000D03*
X272732500Y-229440000D03*
X272732500Y-226900000D03*
X272732500Y-224360000D03*
X272732500Y-221820000D03*
X272732500Y-219280000D03*
D15*
X288260000Y-270705000D03*
D16*
X290800000Y-270705000D03*
D17*
X207097349Y-201820000D03*
D10*
X212097349Y-201820000D03*
X221050000Y-240410000D03*
X226050000Y-240410000D03*
X236540000Y-265530000D03*
X241540000Y-265530000D03*
D11*
X264730000Y-244330000D03*
D12*
X264730000Y-246870000D03*
X264730000Y-249410000D03*
X264730000Y-251950000D03*
X264730000Y-254490000D03*
X264730000Y-257030000D03*
X264730000Y-259570000D03*
X272670000Y-259570000D03*
X272670000Y-257030000D03*
X272670000Y-254490000D03*
X272670000Y-251950000D03*
X272670000Y-249410000D03*
X272670000Y-246870000D03*
X272670000Y-244330000D03*
D11*
X204880000Y-244280000D03*
D12*
X204880000Y-246820000D03*
X204880000Y-249360000D03*
X204880000Y-251900000D03*
X204880000Y-254440000D03*
X204880000Y-256980000D03*
X204880000Y-259520000D03*
X212820000Y-259520000D03*
X212820000Y-256980000D03*
X212820000Y-254440000D03*
X212820000Y-251900000D03*
X212820000Y-249360000D03*
X212820000Y-246820000D03*
X212820000Y-244280000D03*
D11*
X249680000Y-244280000D03*
D12*
X249680000Y-246820000D03*
X249680000Y-249360000D03*
X249680000Y-251900000D03*
X249680000Y-254440000D03*
X249680000Y-256980000D03*
X249680000Y-259520000D03*
X257620000Y-259520000D03*
X257620000Y-256980000D03*
X257620000Y-254440000D03*
X257620000Y-251900000D03*
X257620000Y-249360000D03*
X257620000Y-246820000D03*
X257620000Y-244280000D03*
D18*
X201900000Y-238300000D03*
X199890000Y-269210000D03*
X202240000Y-212730000D03*
X202060000Y-263420000D03*
D19*
X275129418Y-235320082D03*
X201209500Y-218779500D03*
X209569315Y-210469315D03*
X214640000Y-226290000D03*
X207350000Y-211269315D03*
X202010000Y-218790000D03*
X207910000Y-224330000D03*
X227639668Y-209080332D03*
X244010685Y-196169315D03*
X221080000Y-201300000D03*
X232610000Y-262140000D03*
X235330000Y-209669815D03*
X253110000Y-243860000D03*
X250090000Y-211480000D03*
X269540000Y-211450000D03*
X259860000Y-236880000D03*
X267370000Y-235970000D03*
X269750000Y-237050000D03*
X206560000Y-260780000D03*
X231490000Y-254700000D03*
X254760000Y-261000000D03*
X242270000Y-262180000D03*
X261220000Y-256150000D03*
X260880000Y-282900000D03*
X246170000Y-199439336D03*
X240000000Y-258650000D03*
X244680000Y-208230000D03*
X239329500Y-208770500D03*
X227140000Y-207450000D03*
X221520000Y-206650000D03*
X218270000Y-205610000D03*
D20*
X221310000Y-212730000D02*
X236720000Y-212730000D01*
X212670000Y-263430000D02*
X219740000Y-263430000D01*
X236720000Y-212730000D02*
X248630000Y-212730000D01*
X219740000Y-263430000D02*
X219730000Y-263420000D01*
X272170000Y-263430000D02*
X273130000Y-262470000D01*
X296430000Y-234050000D02*
X296450000Y-234070000D01*
X251350000Y-212730000D02*
X251160000Y-212920000D01*
X279852500Y-259530000D02*
X279892500Y-259570000D01*
X264600000Y-238300000D02*
X266400000Y-238300000D01*
X259460000Y-263950000D02*
X259460000Y-265320000D01*
X234970000Y-238300000D02*
X236400000Y-238300000D01*
X206290000Y-238400000D02*
X206290000Y-240370000D01*
X201900000Y-238300000D02*
X204610000Y-238300000D01*
X258940000Y-263430000D02*
X259460000Y-263950000D01*
X266400000Y-238300000D02*
X279580000Y-238300000D01*
X205000000Y-263430000D02*
X204880000Y-263310000D01*
X293760000Y-234050000D02*
X296430000Y-234050000D01*
X206190000Y-238300000D02*
X206290000Y-238400000D01*
X205000000Y-263430000D02*
X212670000Y-263430000D01*
X212270000Y-263830000D02*
X212270000Y-265520000D01*
X276060000Y-262470000D02*
X276060000Y-259580000D01*
X236310000Y-238390000D02*
X236310000Y-240400000D01*
X276110000Y-259530000D02*
X276110000Y-258190000D01*
X296600000Y-216710000D02*
X293820000Y-216710000D01*
X291090000Y-238300000D02*
X291110000Y-238320000D01*
X276060000Y-262470000D02*
X293910000Y-262470000D01*
X219730000Y-263420000D02*
X219730000Y-259570000D01*
X292110000Y-212720000D02*
X292110000Y-205447500D01*
X291110000Y-238320000D02*
X291110000Y-236700000D01*
X199890000Y-281280000D02*
X205830000Y-287220000D01*
X295470000Y-212730000D02*
X296600000Y-213860000D01*
X234842500Y-238172500D02*
X234842500Y-234520000D01*
X276060000Y-259580000D02*
X276110000Y-259530000D01*
X250990000Y-238300000D02*
X264600000Y-238300000D01*
X220630000Y-238300000D02*
X234970000Y-238300000D01*
X293640000Y-241830000D02*
X296400000Y-241830000D01*
X268230000Y-212730000D02*
X281160000Y-212730000D01*
X268290000Y-205200000D02*
X271490000Y-205200000D01*
X292120000Y-212730000D02*
X295470000Y-212730000D01*
X251160000Y-212920000D02*
X251160000Y-215400000D01*
X276110000Y-259530000D02*
X279852500Y-259530000D01*
X221210000Y-212830000D02*
X221210000Y-215440000D01*
X291090000Y-238300000D02*
X291090000Y-239280000D01*
X248630000Y-212730000D02*
X248780000Y-212580000D01*
X266330000Y-212730000D02*
X266160000Y-212900000D01*
X258150000Y-287220000D02*
X258240000Y-287130000D01*
X235240000Y-286880000D02*
X235240000Y-284690000D01*
X248630000Y-212730000D02*
X251350000Y-212730000D01*
X235580000Y-287220000D02*
X235240000Y-286880000D01*
X279580000Y-238300000D02*
X281670000Y-238300000D01*
X221050000Y-238720000D02*
X221050000Y-240410000D01*
X210590000Y-287220000D02*
X235580000Y-287220000D01*
X268290000Y-212670000D02*
X268290000Y-205200000D01*
X204880000Y-263310000D02*
X204880000Y-259520000D01*
X221310000Y-212730000D02*
X221210000Y-212830000D01*
X273130000Y-262470000D02*
X276060000Y-262470000D01*
X204610000Y-238300000D02*
X206190000Y-238300000D01*
X204752500Y-238157500D02*
X204752500Y-234570000D01*
X219780000Y-238300000D02*
X219780000Y-234570000D01*
X264390000Y-263430000D02*
X264730000Y-263090000D01*
X210930000Y-286880000D02*
X210930000Y-284630000D01*
X235040000Y-263430000D02*
X237050000Y-263430000D01*
X279780000Y-238100000D02*
X279780000Y-234520000D01*
X276220000Y-284560000D02*
X276220000Y-270610000D01*
X258940000Y-263430000D02*
X264390000Y-263430000D01*
X234842500Y-263232500D02*
X234842500Y-259570000D01*
X205830000Y-287220000D02*
X210590000Y-287220000D01*
X202240000Y-212730000D02*
X206450000Y-212730000D01*
X273560000Y-287220000D02*
X276220000Y-284560000D01*
X296400000Y-241830000D02*
X296420000Y-241810000D01*
X264600000Y-238300000D02*
X264792500Y-238107500D01*
X293820000Y-216710000D02*
X293810000Y-216700000D01*
X206190000Y-238300000D02*
X219780000Y-238300000D01*
X281160000Y-212730000D02*
X281380000Y-212950000D01*
X236720000Y-212730000D02*
X236260000Y-213190000D01*
X249750000Y-263430000D02*
X258940000Y-263430000D01*
X206450000Y-212730000D02*
X221310000Y-212730000D01*
X264390000Y-263430000D02*
X272170000Y-263430000D01*
X219780000Y-238300000D02*
X220630000Y-238300000D01*
X291090000Y-239280000D02*
X293640000Y-241830000D01*
X296600000Y-213860000D02*
X296600000Y-216710000D01*
X249680000Y-263360000D02*
X249680000Y-259520000D01*
X249700000Y-238300000D02*
X250990000Y-238300000D01*
X250990000Y-238300000D02*
X251130000Y-238440000D01*
X271490000Y-205200000D02*
X272710000Y-203980000D01*
X266330000Y-212730000D02*
X268230000Y-212730000D01*
X278080000Y-256220000D02*
X278080000Y-252140000D01*
X276110000Y-258190000D02*
X278080000Y-256220000D01*
X210590000Y-287220000D02*
X210930000Y-286880000D01*
X236260000Y-213190000D02*
X236260000Y-215370000D01*
X219740000Y-263430000D02*
X235040000Y-263430000D01*
X266070000Y-238630000D02*
X266070000Y-240250000D01*
X291110000Y-236700000D02*
X293760000Y-234050000D01*
X266400000Y-238300000D02*
X266070000Y-238630000D01*
X234970000Y-238300000D02*
X234842500Y-238172500D01*
X292120000Y-212730000D02*
X292110000Y-212720000D01*
X235040000Y-263430000D02*
X234842500Y-263232500D01*
X199890000Y-269210000D02*
X199890000Y-281280000D01*
X281380000Y-212950000D02*
X281380000Y-215440000D01*
X264792500Y-238107500D02*
X264792500Y-234520000D01*
X264730000Y-263090000D02*
X264730000Y-259570000D01*
X212670000Y-263430000D02*
X212270000Y-263830000D01*
X236400000Y-238300000D02*
X236310000Y-238390000D01*
X204610000Y-238300000D02*
X204752500Y-238157500D01*
X293940000Y-262500000D02*
X296720000Y-262500000D01*
X281370000Y-238600000D02*
X281370000Y-240420000D01*
X206200000Y-212980000D02*
X206200000Y-215470000D01*
X296720000Y-262500000D02*
X296770000Y-262550000D01*
X279580000Y-238300000D02*
X279780000Y-238100000D01*
X249700000Y-238300000D02*
X249742500Y-238257500D01*
X266160000Y-212900000D02*
X266160000Y-215350000D01*
X235580000Y-287220000D02*
X258150000Y-287220000D01*
X236400000Y-238300000D02*
X249700000Y-238300000D01*
X202050000Y-263430000D02*
X205000000Y-263430000D01*
X248780000Y-212580000D02*
X248780000Y-203790000D01*
X281160000Y-212730000D02*
X292120000Y-212730000D01*
X237050000Y-263430000D02*
X249750000Y-263430000D01*
X249742500Y-238257500D02*
X249742500Y-234520000D01*
X258150000Y-287220000D02*
X273560000Y-287220000D01*
X251130000Y-238440000D02*
X251130000Y-240340000D01*
X251350000Y-212730000D02*
X266330000Y-212730000D01*
X206450000Y-212730000D02*
X206200000Y-212980000D01*
X281670000Y-238300000D02*
X291090000Y-238300000D01*
X258240000Y-287130000D02*
X258240000Y-284460000D01*
X268230000Y-212730000D02*
X268290000Y-212670000D01*
X281670000Y-238300000D02*
X281370000Y-238600000D01*
X220630000Y-238300000D02*
X221050000Y-238720000D01*
X249750000Y-263430000D02*
X249680000Y-263360000D01*
X237050000Y-263430000D02*
X236540000Y-263940000D01*
X278080000Y-252140000D02*
X275640000Y-249700000D01*
X236540000Y-263940000D02*
X236540000Y-265530000D01*
X293910000Y-262470000D02*
X293940000Y-262500000D01*
X220140000Y-188980000D02*
X244570000Y-188980000D01*
X257682500Y-216922500D02*
X256160000Y-215400000D01*
X275397500Y-198980000D02*
X276870000Y-197507500D01*
X257620000Y-242530000D02*
X257790000Y-242360000D01*
X209620000Y-191370000D02*
X205840000Y-191370000D01*
X272732500Y-216922500D02*
X271160000Y-215350000D01*
X257682500Y-219280000D02*
X257682500Y-218167500D01*
X226050000Y-242180000D02*
X225870000Y-242360000D01*
X286200000Y-242360000D02*
X287500000Y-242360000D01*
X243180000Y-269450000D02*
X243180000Y-267510000D01*
X257790000Y-242360000D02*
X271030000Y-242360000D01*
X242782500Y-244330000D02*
X242782500Y-242647500D01*
X272450000Y-242360000D02*
X286200000Y-242360000D01*
X242782500Y-216892500D02*
X241260000Y-215370000D01*
X212465000Y-217530000D02*
X212692500Y-217302500D01*
X248780000Y-195040000D02*
X248780000Y-198790000D01*
X228010000Y-242360000D02*
X241590000Y-242360000D01*
X227420000Y-217530000D02*
X227720000Y-217830000D01*
X227670000Y-244330000D02*
X227670000Y-242700000D01*
X265960000Y-267430000D02*
X266180000Y-267650000D01*
X257620000Y-244280000D02*
X257620000Y-242530000D01*
X272670000Y-244330000D02*
X272670000Y-242580000D01*
X212692500Y-216962500D02*
X211200000Y-215470000D01*
X248780000Y-193190000D02*
X248780000Y-195040000D01*
X215240000Y-193880000D02*
X220140000Y-188980000D01*
X199960000Y-217530000D02*
X199960000Y-242360000D01*
X211290000Y-242300000D02*
X211350000Y-242360000D01*
X257260000Y-217745000D02*
X257682500Y-218167500D01*
X256130000Y-240340000D02*
X256130000Y-241710000D01*
X244570000Y-188980000D02*
X248780000Y-193190000D01*
X227720000Y-219330000D02*
X227720000Y-217830000D01*
X286370000Y-242190000D02*
X286200000Y-242360000D01*
X210720000Y-192470000D02*
X209620000Y-191370000D01*
X212820000Y-244280000D02*
X212820000Y-242450000D01*
X227720000Y-217830000D02*
X227720000Y-216950000D01*
X256005000Y-217745000D02*
X270845000Y-217745000D01*
X243070000Y-242360000D02*
X256780000Y-242360000D01*
X216960000Y-267430000D02*
X219300000Y-267430000D01*
X274772651Y-199052651D02*
X274700000Y-198980000D01*
X210720000Y-193880000D02*
X210720000Y-200442651D01*
X287720000Y-219280000D02*
X287720000Y-217810000D01*
X210720000Y-200442651D02*
X212097349Y-201820000D01*
X227805000Y-217745000D02*
X242300000Y-217745000D01*
X274700000Y-198980000D02*
X272710000Y-198980000D01*
X210720000Y-193880000D02*
X215240000Y-193880000D01*
X248780000Y-198790000D02*
X251520000Y-198790000D01*
X270845000Y-217745000D02*
X287655000Y-217745000D01*
X241310000Y-240400000D02*
X241310000Y-242080000D01*
X199960000Y-265100000D02*
X202290000Y-267430000D01*
X242782500Y-242647500D02*
X243070000Y-242360000D01*
X242300000Y-217745000D02*
X242782500Y-218227500D01*
X199960000Y-242360000D02*
X211350000Y-242360000D01*
X211350000Y-242360000D02*
X212910000Y-242360000D01*
X287510000Y-242350000D02*
X287832500Y-242672500D01*
X270845000Y-217745000D02*
X272545000Y-217745000D01*
X217270000Y-267120000D02*
X216960000Y-267430000D01*
X212692500Y-217302500D02*
X212692500Y-216962500D01*
X219300000Y-267430000D02*
X241730000Y-267430000D01*
X199960000Y-242360000D02*
X199960000Y-265100000D01*
X274700000Y-198980000D02*
X275397500Y-198980000D01*
X287720000Y-216780000D02*
X286380000Y-215440000D01*
X272670000Y-242580000D02*
X272450000Y-242360000D01*
X199960000Y-213840000D02*
X199960000Y-217530000D01*
X286370000Y-240420000D02*
X286370000Y-242190000D01*
X199960000Y-197250000D02*
X199960000Y-211630000D01*
X242782500Y-218227500D02*
X242782500Y-216892500D01*
X248480000Y-192960000D02*
X249060000Y-193540000D01*
X256130000Y-241710000D02*
X256780000Y-242360000D01*
X202290000Y-267430000D02*
X216960000Y-267430000D01*
X227720000Y-216950000D02*
X226210000Y-215440000D01*
X211290000Y-240370000D02*
X211290000Y-242300000D01*
X226050000Y-240410000D02*
X226050000Y-242180000D01*
X227670000Y-242700000D02*
X228010000Y-242360000D01*
X243100000Y-267430000D02*
X264760000Y-267430000D01*
X241310000Y-242080000D02*
X241590000Y-242360000D01*
X264460000Y-265320000D02*
X264460000Y-267130000D01*
X287655000Y-217745000D02*
X287720000Y-217810000D01*
X218870000Y-269390000D02*
X218870000Y-267860000D01*
X199960000Y-211630000D02*
X199960000Y-213840000D01*
X249060000Y-193540000D02*
X269310000Y-193540000D01*
X272732500Y-217932500D02*
X272732500Y-216922500D01*
X251520000Y-198790000D02*
X253050000Y-197260000D01*
X271070000Y-240250000D02*
X271070000Y-242320000D01*
X217270000Y-265520000D02*
X217270000Y-267120000D01*
X242782500Y-219280000D02*
X242782500Y-218227500D01*
X287832500Y-242672500D02*
X287832500Y-244330000D01*
X272545000Y-217745000D02*
X272732500Y-217932500D01*
X218870000Y-267860000D02*
X219300000Y-267430000D01*
X212692500Y-219330000D02*
X212692500Y-217302500D01*
X264460000Y-267130000D02*
X264760000Y-267430000D01*
X212465000Y-217530000D02*
X227420000Y-217530000D01*
X257682500Y-218167500D02*
X257682500Y-216922500D01*
X241590000Y-242360000D02*
X243070000Y-242360000D01*
X242300000Y-217745000D02*
X256005000Y-217745000D01*
X225870000Y-242360000D02*
X228010000Y-242360000D01*
X272710000Y-196940000D02*
X272710000Y-198980000D01*
X256780000Y-242360000D02*
X257790000Y-242360000D01*
X227720000Y-217830000D02*
X227805000Y-217745000D01*
X264760000Y-267430000D02*
X265960000Y-267430000D01*
X212820000Y-242450000D02*
X212910000Y-242360000D01*
X271070000Y-242320000D02*
X271030000Y-242360000D01*
X287720000Y-217810000D02*
X287720000Y-216780000D01*
X272732500Y-219280000D02*
X272732500Y-217932500D01*
X241540000Y-267240000D02*
X241730000Y-267430000D01*
X212910000Y-242360000D02*
X225870000Y-242360000D01*
X205840000Y-191370000D02*
X199960000Y-197250000D01*
X266180000Y-267650000D02*
X266180000Y-269220000D01*
X256005000Y-217745000D02*
X257260000Y-217745000D01*
X243180000Y-267510000D02*
X243100000Y-267430000D01*
X271030000Y-242360000D02*
X272450000Y-242360000D01*
X210720000Y-193880000D02*
X210720000Y-192470000D01*
X287500000Y-242360000D02*
X287510000Y-242350000D01*
X199960000Y-217530000D02*
X212465000Y-217530000D01*
X241540000Y-265530000D02*
X241540000Y-267240000D01*
X269310000Y-193540000D02*
X272710000Y-196940000D01*
X241730000Y-267430000D02*
X243100000Y-267430000D01*
D21*
X213777500Y-227399422D02*
X213777500Y-224862500D01*
X239380000Y-223030000D02*
X239380000Y-226037500D01*
X227720000Y-221870000D02*
X232600000Y-221870000D01*
X249742500Y-229440000D02*
X252180000Y-227002500D01*
X242782500Y-229440000D02*
X249742500Y-229440000D01*
X236840000Y-220490000D02*
X239380000Y-223030000D01*
X204752500Y-229490000D02*
X208480000Y-229490000D01*
X275920000Y-234529500D02*
X275920000Y-225007500D01*
X252180000Y-225200000D02*
X256850000Y-220530000D01*
X260270000Y-221820000D02*
X264792500Y-221820000D01*
X213777500Y-224862500D02*
X216770000Y-221870000D01*
X256850000Y-220530000D02*
X258980000Y-220530000D01*
X275129418Y-235320082D02*
X275920000Y-234529500D01*
X219780000Y-221870000D02*
X227720000Y-221870000D01*
X212966922Y-228210000D02*
X213777500Y-227399422D01*
X252180000Y-227002500D02*
X252180000Y-225200000D01*
X232600000Y-221870000D02*
X233980000Y-220490000D01*
X239380000Y-226037500D02*
X242782500Y-229440000D01*
X233980000Y-220490000D02*
X236840000Y-220490000D01*
X216770000Y-221870000D02*
X219780000Y-221870000D01*
X264792500Y-221820000D02*
X272732500Y-221820000D01*
X209760000Y-228210000D02*
X212966922Y-228210000D01*
X258980000Y-220530000D02*
X260270000Y-221820000D01*
X208480000Y-229490000D02*
X209760000Y-228210000D01*
X275920000Y-225007500D02*
X272732500Y-221820000D01*
X272670000Y-249410000D02*
X276110000Y-252850000D01*
X276110000Y-252850000D02*
X276110000Y-254450000D01*
X273390000Y-246870000D02*
X275640000Y-244620000D01*
X272670000Y-246870000D02*
X273390000Y-246870000D01*
X292550000Y-244640000D02*
X295350000Y-244640000D01*
X290320000Y-246870000D02*
X292550000Y-244640000D01*
X296420000Y-245710000D02*
X296420000Y-246890000D01*
X287832500Y-246870000D02*
X290320000Y-246870000D01*
X295350000Y-244640000D02*
X296420000Y-245710000D01*
X291140000Y-249410000D02*
X293640000Y-246910000D01*
X287832500Y-249410000D02*
X291140000Y-249410000D01*
X294070000Y-254770000D02*
X288112500Y-254770000D01*
X296770000Y-257470000D02*
X294070000Y-254770000D01*
X288112500Y-254770000D02*
X287832500Y-254490000D01*
X293940000Y-257420000D02*
X288222500Y-257420000D01*
X288222500Y-257420000D02*
X287832500Y-257030000D01*
X246410000Y-203148630D02*
X247868630Y-201690000D01*
X253050000Y-203320000D02*
X253050000Y-205200000D01*
X251420000Y-201690000D02*
X253050000Y-203320000D01*
X209569315Y-210469315D02*
X246250685Y-210469315D01*
X203700000Y-224410000D02*
X204752500Y-224410000D01*
X201210000Y-218780000D02*
X201210000Y-221920000D01*
X246250685Y-210469315D02*
X246410000Y-210310000D01*
X247868630Y-201690000D02*
X251420000Y-201690000D01*
X246410000Y-210310000D02*
X246410000Y-203148630D01*
X201209500Y-218779500D02*
X201210000Y-218780000D01*
X201210000Y-221920000D02*
X203700000Y-224410000D01*
X214640000Y-226290000D02*
X214640000Y-232622500D01*
X214640000Y-232622500D02*
X212692500Y-234570000D01*
X251840000Y-203430000D02*
X251840000Y-206160000D01*
X212692500Y-226950000D02*
X209360000Y-226950000D01*
X251840000Y-206160000D02*
X252430000Y-206750000D01*
X207350000Y-211269315D02*
X207500685Y-211420000D01*
X252430000Y-206750000D02*
X259120000Y-206750000D01*
X259120000Y-206750000D02*
X260670000Y-205200000D01*
X209360000Y-226950000D02*
X206860000Y-224450000D01*
X250900000Y-202490000D02*
X251840000Y-203430000D01*
X247210000Y-203480000D02*
X248200000Y-202490000D01*
X202010000Y-221588630D02*
X202010000Y-218790000D01*
X207500685Y-211420000D02*
X246590000Y-211420000D01*
X204140000Y-223130000D02*
X203551370Y-223130000D01*
X202040685Y-221619315D02*
X202010000Y-221588630D01*
X247210000Y-210800000D02*
X247210000Y-203480000D01*
X206860000Y-224450000D02*
X205540000Y-223130000D01*
X248200000Y-202490000D02*
X250900000Y-202490000D01*
X203551370Y-223130000D02*
X202040685Y-221619315D01*
X246590000Y-211420000D02*
X247210000Y-210800000D01*
X205540000Y-223130000D02*
X204140000Y-223130000D01*
X203200000Y-251040000D02*
X204880000Y-249360000D01*
X212612500Y-224330000D02*
X212692500Y-224410000D01*
X203200000Y-252760000D02*
X203200000Y-251040000D01*
X212820000Y-254440000D02*
X204880000Y-254440000D01*
X207910000Y-224330000D02*
X212612500Y-224330000D01*
X204880000Y-254440000D02*
X203200000Y-252760000D01*
X226150000Y-225630000D02*
X228690000Y-225630000D01*
X222980000Y-232030000D02*
X225130000Y-229880000D01*
X229610000Y-228940000D02*
X229060000Y-229490000D01*
X228690000Y-225630000D02*
X229610000Y-226550000D01*
X219780000Y-232030000D02*
X222980000Y-232030000D01*
X229060000Y-229490000D02*
X227720000Y-229490000D01*
X229610000Y-226550000D02*
X229610000Y-228940000D01*
X225130000Y-229880000D02*
X225130000Y-226650000D01*
X225130000Y-226650000D02*
X226150000Y-225630000D01*
X256170000Y-194910000D02*
X254350000Y-196730000D01*
X265750000Y-197260000D02*
X263400000Y-194910000D01*
X227639668Y-209080332D02*
X227940000Y-208780000D01*
X263400000Y-194910000D02*
X256170000Y-194910000D01*
X254350000Y-198510000D02*
X252770000Y-200090000D01*
X224890000Y-206460000D02*
X221080000Y-202650000D01*
X227940000Y-207118629D02*
X227281371Y-206460000D01*
X246501371Y-198639336D02*
X246480706Y-198639336D01*
X227940000Y-208780000D02*
X227940000Y-207118629D01*
X227281371Y-206460000D02*
X224890000Y-206460000D01*
X247952035Y-200090000D02*
X246501371Y-198639336D01*
X252770000Y-200090000D02*
X247952035Y-200090000D01*
X254350000Y-196730000D02*
X254350000Y-198510000D01*
X246480706Y-198639336D02*
X245290000Y-197448630D01*
X245290000Y-197448630D02*
X244010685Y-196169315D01*
X221080000Y-202650000D02*
X221080000Y-201300000D01*
X219730000Y-254490000D02*
X221360000Y-254490000D01*
X223850000Y-262180000D02*
X221480000Y-259810000D01*
X219730000Y-246870000D02*
X221480000Y-248620000D01*
X221480000Y-248620000D02*
X221480000Y-252740000D01*
X221360000Y-254490000D02*
X221480000Y-254610000D01*
X221480000Y-259810000D02*
X221480000Y-254610000D01*
X232610000Y-262140000D02*
X232570000Y-262180000D01*
X232570000Y-262180000D02*
X223850000Y-262180000D01*
X221480000Y-252740000D02*
X221480000Y-254610000D01*
X227670000Y-246870000D02*
X234842500Y-246870000D01*
X233170000Y-230307500D02*
X234842500Y-231980000D01*
X233780000Y-222882500D02*
X233780000Y-223000000D01*
X233170000Y-223610000D02*
X233170000Y-230307500D01*
X234842500Y-221820000D02*
X233780000Y-222882500D01*
X233780000Y-223000000D02*
X233170000Y-223610000D01*
X235330500Y-209669315D02*
X245340685Y-209669315D01*
X254500000Y-200890000D02*
X258130000Y-197260000D01*
X246688630Y-200890000D02*
X254500000Y-200890000D01*
X245610000Y-201968630D02*
X246688630Y-200890000D01*
X245610000Y-209400000D02*
X245610000Y-201968630D01*
X235330000Y-209669815D02*
X235330500Y-209669315D01*
X245340685Y-209669315D02*
X245610000Y-209400000D01*
X242782500Y-226900000D02*
X247702500Y-221980000D01*
X247780000Y-221980000D02*
X247940000Y-221820000D01*
X247702500Y-221980000D02*
X247780000Y-221980000D01*
X247940000Y-221820000D02*
X249742500Y-221820000D01*
X250570000Y-245610000D02*
X246760000Y-245610000D01*
X245500000Y-246870000D02*
X242782500Y-246870000D01*
X253110000Y-243860000D02*
X252320000Y-243860000D01*
X246760000Y-245610000D02*
X245500000Y-246870000D01*
X252320000Y-243860000D02*
X250570000Y-245610000D01*
X261500000Y-210800000D02*
X260820000Y-211480000D01*
X264940000Y-203630000D02*
X264550000Y-204020000D01*
X260820000Y-211480000D02*
X253940000Y-211480000D01*
X264550000Y-207750000D02*
X261500000Y-210800000D01*
X266970000Y-201600000D02*
X264940000Y-203630000D01*
X253940000Y-211480000D02*
X250090000Y-211480000D01*
X273022500Y-201600000D02*
X272020000Y-201600000D01*
X264550000Y-205270000D02*
X264550000Y-207750000D01*
X272020000Y-201600000D02*
X266970000Y-201600000D01*
X276870000Y-205447500D02*
X273022500Y-201600000D01*
X264550000Y-204020000D02*
X264550000Y-205270000D01*
X249680000Y-246820000D02*
X246970000Y-246820000D01*
X244380000Y-249410000D02*
X242782500Y-249410000D01*
X246970000Y-246820000D02*
X244380000Y-249410000D01*
X256150000Y-223352500D02*
X256150000Y-232987500D01*
X257682500Y-221820000D02*
X256150000Y-223352500D01*
X256150000Y-232987500D02*
X257682500Y-234520000D01*
X284490000Y-205447500D02*
X284490000Y-206490000D01*
X281940000Y-209040000D02*
X279530000Y-211450000D01*
X284490000Y-206490000D02*
X281940000Y-209040000D01*
X279530000Y-211450000D02*
X269540000Y-211450000D01*
X259860000Y-236880000D02*
X259870000Y-236870000D01*
X259040000Y-224360000D02*
X257682500Y-224360000D01*
X259870000Y-236870000D02*
X259870000Y-225190000D01*
X259870000Y-225190000D02*
X259040000Y-224360000D01*
X257620000Y-254440000D02*
X249680000Y-254440000D01*
X259900000Y-254700000D02*
X257620000Y-256980000D01*
X259900000Y-248100000D02*
X259900000Y-254700000D01*
X258620000Y-246820000D02*
X259900000Y-248100000D01*
X257620000Y-246820000D02*
X258620000Y-246820000D01*
X274780000Y-226490000D02*
X274780000Y-228330000D01*
X274780000Y-228330000D02*
X273670000Y-229440000D01*
X273670000Y-229440000D02*
X272732500Y-229440000D01*
X266920000Y-231980000D02*
X270900000Y-228000000D01*
X273870000Y-225580000D02*
X274780000Y-226490000D01*
X270900000Y-226680000D02*
X272000000Y-225580000D01*
X264792500Y-231980000D02*
X266920000Y-231980000D01*
X272000000Y-225580000D02*
X273870000Y-225580000D01*
X270900000Y-228000000D02*
X270900000Y-226680000D01*
X267370000Y-233200000D02*
X267370000Y-235970000D01*
X272732500Y-227837500D02*
X267370000Y-233200000D01*
X272732500Y-226900000D02*
X272732500Y-227837500D01*
X280770000Y-229440000D02*
X281770000Y-228440000D01*
X281770000Y-225400000D02*
X280730000Y-224360000D01*
X279780000Y-229440000D02*
X280770000Y-229440000D01*
X280730000Y-224360000D02*
X279780000Y-224360000D01*
X281770000Y-228440000D02*
X281770000Y-225400000D01*
X276720000Y-231320000D02*
X276720000Y-235260000D01*
X275570000Y-236410000D02*
X274930000Y-237050000D01*
X276720000Y-235260000D02*
X275570000Y-236410000D01*
X276720000Y-229960000D02*
X276720000Y-231320000D01*
X279780000Y-226900000D02*
X276720000Y-229960000D01*
X274930000Y-237050000D02*
X269750000Y-237050000D01*
X216730000Y-257980000D02*
X213930000Y-260780000D01*
X216730000Y-252410000D02*
X216730000Y-257980000D01*
X219730000Y-249410000D02*
X216730000Y-252410000D01*
X213930000Y-260780000D02*
X208310000Y-260780000D01*
X208310000Y-260780000D02*
X206560000Y-260780000D01*
X231490000Y-252762500D02*
X231490000Y-254700000D01*
X234842500Y-249410000D02*
X231490000Y-252762500D01*
X256240000Y-259520000D02*
X254760000Y-261000000D01*
X257620000Y-259520000D02*
X256240000Y-259520000D01*
X238930000Y-255130000D02*
X238930000Y-259650000D01*
X253510000Y-253170000D02*
X248800000Y-253170000D01*
X248800000Y-253170000D02*
X240890000Y-253170000D01*
X239530000Y-254530000D02*
X238930000Y-255130000D01*
X254780000Y-251900000D02*
X253910000Y-252770000D01*
X240890000Y-253170000D02*
X239530000Y-254530000D01*
X257620000Y-251900000D02*
X254780000Y-251900000D01*
X253910000Y-252770000D02*
X253510000Y-253170000D01*
X241460000Y-262180000D02*
X242270000Y-262180000D01*
X238930000Y-259650000D02*
X241460000Y-262180000D01*
X261220000Y-256150000D02*
X261220000Y-252920000D01*
X261220000Y-252920000D02*
X264730000Y-249410000D01*
X210930000Y-282090000D02*
X213690000Y-282090000D01*
X214960000Y-280820000D02*
X225610000Y-280820000D01*
X225610000Y-280820000D02*
X231900000Y-274530000D01*
X231900000Y-274530000D02*
X235240000Y-274530000D01*
X213690000Y-282090000D02*
X214960000Y-280820000D01*
X227550000Y-284630000D02*
X232570000Y-279610000D01*
X218870000Y-284630000D02*
X227550000Y-284630000D01*
X232570000Y-279610000D02*
X235240000Y-279610000D01*
X226980000Y-274470000D02*
X232000000Y-269450000D01*
X218870000Y-274470000D02*
X226980000Y-274470000D01*
X232000000Y-269450000D02*
X235240000Y-269450000D01*
X252010000Y-281920000D02*
X258240000Y-281920000D01*
X243180000Y-277070000D02*
X247160000Y-277070000D01*
X247160000Y-277070000D02*
X252010000Y-281920000D01*
X266180000Y-284460000D02*
X262440000Y-284460000D01*
X262440000Y-284460000D02*
X260880000Y-282900000D01*
X266180000Y-274300000D02*
X261310000Y-279170000D01*
X258970000Y-283210000D02*
X244240000Y-283210000D01*
X261310000Y-280870000D02*
X258970000Y-283210000D01*
X244240000Y-283210000D02*
X243180000Y-282150000D01*
X261310000Y-279170000D02*
X261310000Y-280870000D01*
X263250000Y-200590000D02*
X263210000Y-200630000D01*
X279410000Y-200670000D02*
X279410000Y-205447500D01*
X279410000Y-197507500D02*
X279410000Y-200510000D01*
X256900000Y-195950000D02*
X255590000Y-197260000D01*
X261940000Y-195990000D02*
X261940000Y-195950000D01*
X263250000Y-200590000D02*
X279330000Y-200590000D01*
X255590000Y-205200000D02*
X255590000Y-204020000D01*
X279410000Y-200510000D02*
X279330000Y-200590000D01*
X287000000Y-200590000D02*
X287030000Y-200560000D01*
X287030000Y-200560000D02*
X287030000Y-197507500D01*
X279330000Y-200590000D02*
X279410000Y-200670000D01*
X287030000Y-201150000D02*
X287030000Y-200560000D01*
X263210000Y-197260000D02*
X261940000Y-195990000D01*
X287030000Y-201150000D02*
X287030000Y-205447500D01*
X261940000Y-195950000D02*
X256900000Y-195950000D01*
X263210000Y-197260000D02*
X263210000Y-200550000D01*
X263210000Y-200550000D02*
X263250000Y-200590000D01*
X255590000Y-204020000D02*
X259020000Y-200590000D01*
X263210000Y-200630000D02*
X263210000Y-205200000D01*
X279330000Y-200590000D02*
X287000000Y-200590000D01*
X259020000Y-200590000D02*
X263250000Y-200590000D01*
X219730000Y-244330000D02*
X221770000Y-244330000D01*
X224580000Y-255040000D02*
X226570000Y-257030000D01*
X226570000Y-257030000D02*
X227670000Y-257030000D01*
X224580000Y-247140000D02*
X224580000Y-255040000D01*
X221770000Y-244330000D02*
X224580000Y-247140000D01*
X241990000Y-195280000D02*
X241055000Y-195280000D01*
X246170000Y-199439336D02*
X246149336Y-199439336D01*
X260950000Y-258270000D02*
X264730000Y-254490000D01*
X241055000Y-195280000D02*
X238805000Y-193030000D01*
X240380000Y-258270000D02*
X260950000Y-258270000D01*
X246149336Y-199439336D02*
X241990000Y-195280000D01*
X240000000Y-258650000D02*
X240380000Y-258270000D01*
X239023630Y-194380000D02*
X236414189Y-194380000D01*
X244680000Y-206471371D02*
X244690000Y-206461371D01*
X244690000Y-200046369D02*
X239023630Y-194380000D01*
X236414189Y-194380000D02*
X236265000Y-194230811D01*
X244680000Y-208230000D02*
X244680000Y-206471371D01*
X236265000Y-194230811D02*
X236265000Y-193030000D01*
X244690000Y-206461371D02*
X244690000Y-200046369D01*
X242790000Y-207230000D02*
X243890000Y-206130000D01*
X235875000Y-195180000D02*
X233725000Y-193030000D01*
X243890000Y-206130000D02*
X243890000Y-200377740D01*
X240870000Y-207230000D02*
X242790000Y-207230000D01*
X238692260Y-195180000D02*
X235875000Y-195180000D01*
X243890000Y-200377740D02*
X238692260Y-195180000D01*
X239329500Y-208770500D02*
X240870000Y-207230000D01*
X222330000Y-190680000D02*
X216150000Y-196860000D01*
X228835000Y-190680000D02*
X227410000Y-190680000D01*
X216150000Y-205752740D02*
X217847260Y-207450000D01*
X231185000Y-193030000D02*
X228835000Y-190680000D01*
X227410000Y-190680000D02*
X222330000Y-190680000D01*
X218680000Y-207450000D02*
X227140000Y-207450000D01*
X217847260Y-207450000D02*
X218680000Y-207450000D01*
X216150000Y-196860000D02*
X216150000Y-205752740D01*
X221520000Y-206650000D02*
X218178630Y-206650000D01*
X227095000Y-191480000D02*
X228645000Y-193030000D01*
X222690000Y-191480000D02*
X227095000Y-191480000D01*
X217450000Y-205921370D02*
X217450000Y-196720000D01*
X217450000Y-196720000D02*
X222690000Y-191480000D01*
X218178630Y-206650000D02*
X217450000Y-205921370D01*
X218250000Y-200885000D02*
X226105000Y-193030000D01*
X218270000Y-205610000D02*
X218250000Y-205590000D01*
X218250000Y-205590000D02*
X218250000Y-200885000D01*
M02*
