G04 #@! TF.GenerationSoftware,KiCad,Pcbnew,6.0.11*
G04 #@! TF.CreationDate,2023-02-03T23:15:02+03:00*
G04 #@! TF.ProjectId,sum-diff-device,73756d2d-6469-4666-962d-646576696365,rev?*
G04 #@! TF.SameCoordinates,Original*
G04 #@! TF.FileFunction,Legend,Top*
G04 #@! TF.FilePolarity,Positive*
%FSLAX46Y46*%
G04 Gerber Fmt 4.6, Leading zero omitted, Abs format (unit mm)*
G04 Created by KiCad (PCBNEW 6.0.11) date 2023-02-03 23:15:02*
%MOMM*%
%LPD*%
G01*
G04 APERTURE LIST*
%ADD10C,0.150000*%
%ADD11C,0.200000*%
%ADD12C,0.500000*%
%ADD13C,0.120000*%
%ADD14C,0.127000*%
%ADD15C,1.600000*%
%ADD16R,1.170000X1.170000*%
%ADD17C,1.170000*%
%ADD18C,1.400000*%
%ADD19O,1.400000X1.400000*%
%ADD20R,1.700000X1.700000*%
%ADD21O,1.700000X1.700000*%
%ADD22R,1.600000X1.600000*%
G04 APERTURE END LIST*
D10*
X211071428Y-191285714D02*
X211071428Y-190523809D01*
X211452380Y-190904761D02*
X210690476Y-190904761D01*
X210452380Y-189571428D02*
X210452380Y-190047619D01*
X210928571Y-190095238D01*
X210880952Y-190047619D01*
X210833333Y-189952380D01*
X210833333Y-189714285D01*
X210880952Y-189619047D01*
X210928571Y-189571428D01*
X211023809Y-189523809D01*
X211261904Y-189523809D01*
X211357142Y-189571428D01*
X211404761Y-189619047D01*
X211452380Y-189714285D01*
X211452380Y-189952380D01*
X211404761Y-190047619D01*
X211357142Y-190095238D01*
X210452380Y-189238095D02*
X211452380Y-188904761D01*
X210452380Y-188571428D01*
X207500000Y-190761904D02*
X207452380Y-190857142D01*
X207452380Y-191000000D01*
X207500000Y-191142857D01*
X207595238Y-191238095D01*
X207690476Y-191285714D01*
X207880952Y-191333333D01*
X208023809Y-191333333D01*
X208214285Y-191285714D01*
X208309523Y-191238095D01*
X208404761Y-191142857D01*
X208452380Y-191000000D01*
X208452380Y-190904761D01*
X208404761Y-190761904D01*
X208357142Y-190714285D01*
X208023809Y-190714285D01*
X208023809Y-190904761D01*
X208452380Y-190285714D02*
X207452380Y-190285714D01*
X208452380Y-189714285D01*
X207452380Y-189714285D01*
X208452380Y-189238095D02*
X207452380Y-189238095D01*
X207452380Y-189000000D01*
X207500000Y-188857142D01*
X207595238Y-188761904D01*
X207690476Y-188714285D01*
X207880952Y-188666666D01*
X208023809Y-188666666D01*
X208214285Y-188714285D01*
X208309523Y-188761904D01*
X208404761Y-188857142D01*
X208452380Y-189000000D01*
X208452380Y-189238095D01*
X223071428Y-205952380D02*
X223071428Y-204952380D01*
X223547619Y-205952380D02*
X223547619Y-204952380D01*
X224119047Y-205952380D01*
X224119047Y-204952380D01*
X224595238Y-205952380D02*
X224595238Y-204952380D01*
X224976190Y-204952380D01*
X225071428Y-205000000D01*
X225119047Y-205047619D01*
X225166666Y-205142857D01*
X225166666Y-205285714D01*
X225119047Y-205380952D01*
X225071428Y-205428571D01*
X224976190Y-205476190D01*
X224595238Y-205476190D01*
X225595238Y-204952380D02*
X225595238Y-205761904D01*
X225642857Y-205857142D01*
X225690476Y-205904761D01*
X225785714Y-205952380D01*
X225976190Y-205952380D01*
X226071428Y-205904761D01*
X226119047Y-205857142D01*
X226166666Y-205761904D01*
X226166666Y-204952380D01*
X226500000Y-204952380D02*
X227071428Y-204952380D01*
X226785714Y-205952380D02*
X226785714Y-204952380D01*
X287750476Y-265192380D02*
X287750476Y-264192380D01*
X288083809Y-264906666D01*
X288417142Y-264192380D01*
X288417142Y-265192380D01*
X289083809Y-264192380D02*
X289274285Y-264192380D01*
X289369523Y-264240000D01*
X289464761Y-264335238D01*
X289512380Y-264525714D01*
X289512380Y-264859047D01*
X289464761Y-265049523D01*
X289369523Y-265144761D01*
X289274285Y-265192380D01*
X289083809Y-265192380D01*
X288988571Y-265144761D01*
X288893333Y-265049523D01*
X288845714Y-264859047D01*
X288845714Y-264525714D01*
X288893333Y-264335238D01*
X288988571Y-264240000D01*
X289083809Y-264192380D01*
X289940952Y-265192380D02*
X289940952Y-264192380D01*
X290179047Y-264192380D01*
X290321904Y-264240000D01*
X290417142Y-264335238D01*
X290464761Y-264430476D01*
X290512380Y-264620952D01*
X290512380Y-264763809D01*
X290464761Y-264954285D01*
X290417142Y-265049523D01*
X290321904Y-265144761D01*
X290179047Y-265192380D01*
X289940952Y-265192380D01*
X290940952Y-264668571D02*
X291274285Y-264668571D01*
X291417142Y-265192380D02*
X290940952Y-265192380D01*
X290940952Y-264192380D01*
X291417142Y-264192380D01*
X287845714Y-267135714D02*
X287607619Y-267135714D01*
X287607619Y-265707142D01*
X287845714Y-265707142D01*
X288179047Y-266754761D02*
X288321904Y-266802380D01*
X288560000Y-266802380D01*
X288655238Y-266754761D01*
X288702857Y-266707142D01*
X288750476Y-266611904D01*
X288750476Y-266516666D01*
X288702857Y-266421428D01*
X288655238Y-266373809D01*
X288560000Y-266326190D01*
X288369523Y-266278571D01*
X288274285Y-266230952D01*
X288226666Y-266183333D01*
X288179047Y-266088095D01*
X288179047Y-265992857D01*
X288226666Y-265897619D01*
X288274285Y-265850000D01*
X288369523Y-265802380D01*
X288607619Y-265802380D01*
X288750476Y-265850000D01*
X289179047Y-265802380D02*
X289179047Y-266611904D01*
X289226666Y-266707142D01*
X289274285Y-266754761D01*
X289369523Y-266802380D01*
X289560000Y-266802380D01*
X289655238Y-266754761D01*
X289702857Y-266707142D01*
X289750476Y-266611904D01*
X289750476Y-265802380D01*
X290226666Y-266802380D02*
X290226666Y-265802380D01*
X290560000Y-266516666D01*
X290893333Y-265802380D01*
X290893333Y-266802380D01*
X291274285Y-267135714D02*
X291512380Y-267135714D01*
X291512380Y-265707142D01*
X291274285Y-265707142D01*
X287821904Y-268745714D02*
X287583809Y-268745714D01*
X287583809Y-267317142D01*
X287821904Y-267317142D01*
X288202857Y-268412380D02*
X288202857Y-267412380D01*
X288440952Y-267412380D01*
X288583809Y-267460000D01*
X288679047Y-267555238D01*
X288726666Y-267650476D01*
X288774285Y-267840952D01*
X288774285Y-267983809D01*
X288726666Y-268174285D01*
X288679047Y-268269523D01*
X288583809Y-268364761D01*
X288440952Y-268412380D01*
X288202857Y-268412380D01*
X289202857Y-268412380D02*
X289202857Y-267412380D01*
X290012380Y-267888571D02*
X289679047Y-267888571D01*
X289679047Y-268412380D02*
X289679047Y-267412380D01*
X290155238Y-267412380D01*
X290869523Y-267888571D02*
X290536190Y-267888571D01*
X290536190Y-268412380D02*
X290536190Y-267412380D01*
X291012380Y-267412380D01*
X291298095Y-268745714D02*
X291536190Y-268745714D01*
X291536190Y-267317142D01*
X291298095Y-267317142D01*
X269375238Y-193492380D02*
X269565714Y-193492380D01*
X269660952Y-193540000D01*
X269756190Y-193635238D01*
X269803809Y-193825714D01*
X269803809Y-194159047D01*
X269756190Y-194349523D01*
X269660952Y-194444761D01*
X269565714Y-194492380D01*
X269375238Y-194492380D01*
X269280000Y-194444761D01*
X269184761Y-194349523D01*
X269137142Y-194159047D01*
X269137142Y-193825714D01*
X269184761Y-193635238D01*
X269280000Y-193540000D01*
X269375238Y-193492380D01*
X270232380Y-193492380D02*
X270232380Y-194301904D01*
X270280000Y-194397142D01*
X270327619Y-194444761D01*
X270422857Y-194492380D01*
X270613333Y-194492380D01*
X270708571Y-194444761D01*
X270756190Y-194397142D01*
X270803809Y-194301904D01*
X270803809Y-193492380D01*
X271137142Y-193492380D02*
X271708571Y-193492380D01*
X271422857Y-194492380D02*
X271422857Y-193492380D01*
X272041904Y-194492380D02*
X272041904Y-193492380D01*
X272422857Y-193492380D01*
X272518095Y-193540000D01*
X272565714Y-193587619D01*
X272613333Y-193682857D01*
X272613333Y-193825714D01*
X272565714Y-193920952D01*
X272518095Y-193968571D01*
X272422857Y-194016190D01*
X272041904Y-194016190D01*
X273041904Y-193492380D02*
X273041904Y-194301904D01*
X273089523Y-194397142D01*
X273137142Y-194444761D01*
X273232380Y-194492380D01*
X273422857Y-194492380D01*
X273518095Y-194444761D01*
X273565714Y-194397142D01*
X273613333Y-194301904D01*
X273613333Y-193492380D01*
X273946666Y-193492380D02*
X274518095Y-193492380D01*
X274232380Y-194492380D02*
X274232380Y-193492380D01*
X222571428Y-196952380D02*
X222571428Y-195952380D01*
X223047619Y-196952380D02*
X223047619Y-195952380D01*
X223619047Y-196952380D01*
X223619047Y-195952380D01*
X224095238Y-196952380D02*
X224095238Y-195952380D01*
X224476190Y-195952380D01*
X224571428Y-196000000D01*
X224619047Y-196047619D01*
X224666666Y-196142857D01*
X224666666Y-196285714D01*
X224619047Y-196380952D01*
X224571428Y-196428571D01*
X224476190Y-196476190D01*
X224095238Y-196476190D01*
X225095238Y-195952380D02*
X225095238Y-196761904D01*
X225142857Y-196857142D01*
X225190476Y-196904761D01*
X225285714Y-196952380D01*
X225476190Y-196952380D01*
X225571428Y-196904761D01*
X225619047Y-196857142D01*
X225666666Y-196761904D01*
X225666666Y-195952380D01*
X226000000Y-195952380D02*
X226571428Y-195952380D01*
X226285714Y-196952380D02*
X226285714Y-195952380D01*
D11*
X228107142Y-196392857D02*
X228321428Y-196464285D01*
X228392857Y-196535714D01*
X228464285Y-196678571D01*
X228464285Y-196892857D01*
X228392857Y-197035714D01*
X228321428Y-197107142D01*
X228178571Y-197178571D01*
X227607142Y-197178571D01*
X227607142Y-195678571D01*
X228107142Y-195678571D01*
X228250000Y-195750000D01*
X228321428Y-195821428D01*
X228392857Y-195964285D01*
X228392857Y-196107142D01*
X228321428Y-196250000D01*
X228250000Y-196321428D01*
X228107142Y-196392857D01*
X227607142Y-196392857D01*
X227714285Y-205750000D02*
X228428571Y-205750000D01*
X227571428Y-206178571D02*
X228071428Y-204678571D01*
X228571428Y-206178571D01*
D12*
X279652083Y-278599523D02*
X279925892Y-278694761D01*
X280402083Y-278694761D01*
X280604464Y-278599523D01*
X280711607Y-278504285D01*
X280830654Y-278313809D01*
X280854464Y-278123333D01*
X280783035Y-277932857D01*
X280699702Y-277837619D01*
X280521130Y-277742380D01*
X280152083Y-277647142D01*
X279973511Y-277551904D01*
X279890178Y-277456666D01*
X279818750Y-277266190D01*
X279842559Y-277075714D01*
X279961607Y-276885238D01*
X280068750Y-276790000D01*
X280271130Y-276694761D01*
X280747321Y-276694761D01*
X281021130Y-276790000D01*
X281890178Y-276694761D02*
X281687797Y-278313809D01*
X281759226Y-278504285D01*
X281842559Y-278599523D01*
X282021130Y-278694761D01*
X282402083Y-278694761D01*
X282604464Y-278599523D01*
X282711607Y-278504285D01*
X282830654Y-278313809D01*
X283033035Y-276694761D01*
X283735416Y-278694761D02*
X283985416Y-276694761D01*
X284473511Y-278123333D01*
X285318750Y-276694761D01*
X285068750Y-278694761D01*
X286116369Y-277932857D02*
X287640178Y-277932857D01*
X288497321Y-278694761D02*
X288747321Y-276694761D01*
X289223511Y-276694761D01*
X289497321Y-276790000D01*
X289663988Y-276980476D01*
X289735416Y-277170952D01*
X289783035Y-277551904D01*
X289747321Y-277837619D01*
X289604464Y-278218571D01*
X289485416Y-278409047D01*
X289271130Y-278599523D01*
X288973511Y-278694761D01*
X288497321Y-278694761D01*
X290497321Y-278694761D02*
X290747321Y-276694761D01*
X292247321Y-277647142D02*
X291580654Y-277647142D01*
X291449702Y-278694761D02*
X291699702Y-276694761D01*
X292652083Y-276694761D01*
X293961607Y-277647142D02*
X293294940Y-277647142D01*
X293163988Y-278694761D02*
X293413988Y-276694761D01*
X294366369Y-276694761D01*
X282163988Y-281914761D02*
X282413988Y-279914761D01*
X282890178Y-279914761D01*
X283163988Y-280010000D01*
X283330654Y-280200476D01*
X283402083Y-280390952D01*
X283449702Y-280771904D01*
X283413988Y-281057619D01*
X283271130Y-281438571D01*
X283152083Y-281629047D01*
X282937797Y-281819523D01*
X282640178Y-281914761D01*
X282163988Y-281914761D01*
X284294940Y-280867142D02*
X284961607Y-280867142D01*
X285116369Y-281914761D02*
X284163988Y-281914761D01*
X284413988Y-279914761D01*
X285366369Y-279914761D01*
X285937797Y-279914761D02*
X286354464Y-281914761D01*
X287271130Y-279914761D01*
X287687797Y-281914761D02*
X287937797Y-279914761D01*
X289806845Y-281724285D02*
X289699702Y-281819523D01*
X289402083Y-281914761D01*
X289211607Y-281914761D01*
X288937797Y-281819523D01*
X288771130Y-281629047D01*
X288699702Y-281438571D01*
X288652083Y-281057619D01*
X288687797Y-280771904D01*
X288830654Y-280390952D01*
X288949702Y-280200476D01*
X289163988Y-280010000D01*
X289461607Y-279914761D01*
X289652083Y-279914761D01*
X289925892Y-280010000D01*
X290009226Y-280105238D01*
X290771130Y-280867142D02*
X291437797Y-280867142D01*
X291592559Y-281914761D02*
X290640178Y-281914761D01*
X290890178Y-279914761D01*
X291842559Y-279914761D01*
D10*
X253037142Y-240737142D02*
X252989523Y-240784761D01*
X252846666Y-240832380D01*
X252751428Y-240832380D01*
X252608571Y-240784761D01*
X252513333Y-240689523D01*
X252465714Y-240594285D01*
X252418095Y-240403809D01*
X252418095Y-240260952D01*
X252465714Y-240070476D01*
X252513333Y-239975238D01*
X252608571Y-239880000D01*
X252751428Y-239832380D01*
X252846666Y-239832380D01*
X252989523Y-239880000D01*
X253037142Y-239927619D01*
X253989523Y-240832380D02*
X253418095Y-240832380D01*
X253703809Y-240832380D02*
X253703809Y-239832380D01*
X253608571Y-239975238D01*
X253513333Y-240070476D01*
X253418095Y-240118095D01*
X254608571Y-239832380D02*
X254703809Y-239832380D01*
X254799047Y-239880000D01*
X254846666Y-239927619D01*
X254894285Y-240022857D01*
X254941904Y-240213333D01*
X254941904Y-240451428D01*
X254894285Y-240641904D01*
X254846666Y-240737142D01*
X254799047Y-240784761D01*
X254703809Y-240832380D01*
X254608571Y-240832380D01*
X254513333Y-240784761D01*
X254465714Y-240737142D01*
X254418095Y-240641904D01*
X254370476Y-240451428D01*
X254370476Y-240213333D01*
X254418095Y-240022857D01*
X254465714Y-239927619D01*
X254513333Y-239880000D01*
X254608571Y-239832380D01*
X207998095Y-226412380D02*
X207998095Y-227221904D01*
X208045714Y-227317142D01*
X208093333Y-227364761D01*
X208188571Y-227412380D01*
X208379047Y-227412380D01*
X208474285Y-227364761D01*
X208521904Y-227317142D01*
X208569523Y-227221904D01*
X208569523Y-226412380D01*
X209569523Y-227412380D02*
X208998095Y-227412380D01*
X209283809Y-227412380D02*
X209283809Y-226412380D01*
X209188571Y-226555238D01*
X209093333Y-226650476D01*
X208998095Y-226698095D01*
X261397142Y-265797142D02*
X261349523Y-265844761D01*
X261206666Y-265892380D01*
X261111428Y-265892380D01*
X260968571Y-265844761D01*
X260873333Y-265749523D01*
X260825714Y-265654285D01*
X260778095Y-265463809D01*
X260778095Y-265320952D01*
X260825714Y-265130476D01*
X260873333Y-265035238D01*
X260968571Y-264940000D01*
X261111428Y-264892380D01*
X261206666Y-264892380D01*
X261349523Y-264940000D01*
X261397142Y-264987619D01*
X262349523Y-265892380D02*
X261778095Y-265892380D01*
X262063809Y-265892380D02*
X262063809Y-264892380D01*
X261968571Y-265035238D01*
X261873333Y-265130476D01*
X261778095Y-265178095D01*
X262682857Y-264892380D02*
X263301904Y-264892380D01*
X262968571Y-265273333D01*
X263111428Y-265273333D01*
X263206666Y-265320952D01*
X263254285Y-265368571D01*
X263301904Y-265463809D01*
X263301904Y-265701904D01*
X263254285Y-265797142D01*
X263206666Y-265844761D01*
X263111428Y-265892380D01*
X262825714Y-265892380D01*
X262730476Y-265844761D01*
X262682857Y-265797142D01*
X296143333Y-249392380D02*
X295810000Y-248916190D01*
X295571904Y-249392380D02*
X295571904Y-248392380D01*
X295952857Y-248392380D01*
X296048095Y-248440000D01*
X296095714Y-248487619D01*
X296143333Y-248582857D01*
X296143333Y-248725714D01*
X296095714Y-248820952D01*
X296048095Y-248868571D01*
X295952857Y-248916190D01*
X295571904Y-248916190D01*
X296476666Y-248392380D02*
X297143333Y-248392380D01*
X296714761Y-249392380D01*
X293357142Y-265062380D02*
X293023809Y-264586190D01*
X292785714Y-265062380D02*
X292785714Y-264062380D01*
X293166666Y-264062380D01*
X293261904Y-264110000D01*
X293309523Y-264157619D01*
X293357142Y-264252857D01*
X293357142Y-264395714D01*
X293309523Y-264490952D01*
X293261904Y-264538571D01*
X293166666Y-264586190D01*
X292785714Y-264586190D01*
X294309523Y-265062380D02*
X293738095Y-265062380D01*
X294023809Y-265062380D02*
X294023809Y-264062380D01*
X293928571Y-264205238D01*
X293833333Y-264300476D01*
X293738095Y-264348095D01*
X294928571Y-264062380D02*
X295023809Y-264062380D01*
X295119047Y-264110000D01*
X295166666Y-264157619D01*
X295214285Y-264252857D01*
X295261904Y-264443333D01*
X295261904Y-264681428D01*
X295214285Y-264871904D01*
X295166666Y-264967142D01*
X295119047Y-265014761D01*
X295023809Y-265062380D01*
X294928571Y-265062380D01*
X294833333Y-265014761D01*
X294785714Y-264967142D01*
X294738095Y-264871904D01*
X294690476Y-264681428D01*
X294690476Y-264443333D01*
X294738095Y-264252857D01*
X294785714Y-264157619D01*
X294833333Y-264110000D01*
X294928571Y-264062380D01*
X281032380Y-202978095D02*
X281841904Y-202978095D01*
X281937142Y-202930476D01*
X281984761Y-202882857D01*
X282032380Y-202787619D01*
X282032380Y-202597142D01*
X281984761Y-202501904D01*
X281937142Y-202454285D01*
X281841904Y-202406666D01*
X281032380Y-202406666D01*
X282032380Y-201406666D02*
X282032380Y-201978095D01*
X282032380Y-201692380D02*
X281032380Y-201692380D01*
X281175238Y-201787619D01*
X281270476Y-201882857D01*
X281318095Y-201978095D01*
X281032380Y-201073333D02*
X281032380Y-200406666D01*
X282032380Y-200835238D01*
X278432380Y-265652857D02*
X277956190Y-265986190D01*
X278432380Y-266224285D02*
X277432380Y-266224285D01*
X277432380Y-265843333D01*
X277480000Y-265748095D01*
X277527619Y-265700476D01*
X277622857Y-265652857D01*
X277765714Y-265652857D01*
X277860952Y-265700476D01*
X277908571Y-265748095D01*
X277956190Y-265843333D01*
X277956190Y-266224285D01*
X278432380Y-264700476D02*
X278432380Y-265271904D01*
X278432380Y-264986190D02*
X277432380Y-264986190D01*
X277575238Y-265081428D01*
X277670476Y-265176666D01*
X277718095Y-265271904D01*
X278432380Y-263748095D02*
X278432380Y-264319523D01*
X278432380Y-264033809D02*
X277432380Y-264033809D01*
X277575238Y-264129047D01*
X277670476Y-264224285D01*
X277718095Y-264319523D01*
X213731904Y-276392380D02*
X213731904Y-277201904D01*
X213779523Y-277297142D01*
X213827142Y-277344761D01*
X213922380Y-277392380D01*
X214112857Y-277392380D01*
X214208095Y-277344761D01*
X214255714Y-277297142D01*
X214303333Y-277201904D01*
X214303333Y-276392380D01*
X215303333Y-277392380D02*
X214731904Y-277392380D01*
X215017619Y-277392380D02*
X215017619Y-276392380D01*
X214922380Y-276535238D01*
X214827142Y-276630476D01*
X214731904Y-276678095D01*
X215684285Y-276487619D02*
X215731904Y-276440000D01*
X215827142Y-276392380D01*
X216065238Y-276392380D01*
X216160476Y-276440000D01*
X216208095Y-276487619D01*
X216255714Y-276582857D01*
X216255714Y-276678095D01*
X216208095Y-276820952D01*
X215636666Y-277392380D01*
X216255714Y-277392380D01*
X252998095Y-226232380D02*
X252998095Y-227041904D01*
X253045714Y-227137142D01*
X253093333Y-227184761D01*
X253188571Y-227232380D01*
X253379047Y-227232380D01*
X253474285Y-227184761D01*
X253521904Y-227137142D01*
X253569523Y-227041904D01*
X253569523Y-226232380D01*
X254474285Y-226565714D02*
X254474285Y-227232380D01*
X254236190Y-226184761D02*
X253998095Y-226899047D01*
X254617142Y-226899047D01*
X296713333Y-264792380D02*
X296380000Y-264316190D01*
X296141904Y-264792380D02*
X296141904Y-263792380D01*
X296522857Y-263792380D01*
X296618095Y-263840000D01*
X296665714Y-263887619D01*
X296713333Y-263982857D01*
X296713333Y-264125714D01*
X296665714Y-264220952D01*
X296618095Y-264268571D01*
X296522857Y-264316190D01*
X296141904Y-264316190D01*
X297189523Y-264792380D02*
X297380000Y-264792380D01*
X297475238Y-264744761D01*
X297522857Y-264697142D01*
X297618095Y-264554285D01*
X297665714Y-264363809D01*
X297665714Y-263982857D01*
X297618095Y-263887619D01*
X297570476Y-263840000D01*
X297475238Y-263792380D01*
X297284761Y-263792380D01*
X297189523Y-263840000D01*
X297141904Y-263887619D01*
X297094285Y-263982857D01*
X297094285Y-264220952D01*
X297141904Y-264316190D01*
X297189523Y-264363809D01*
X297284761Y-264411428D01*
X297475238Y-264411428D01*
X297570476Y-264363809D01*
X297618095Y-264316190D01*
X297665714Y-264220952D01*
X282624404Y-251402380D02*
X282624404Y-252211904D01*
X282672023Y-252307142D01*
X282719642Y-252354761D01*
X282814880Y-252402380D01*
X283005357Y-252402380D01*
X283100595Y-252354761D01*
X283148214Y-252307142D01*
X283195833Y-252211904D01*
X283195833Y-251402380D01*
X284195833Y-252402380D02*
X283624404Y-252402380D01*
X283910119Y-252402380D02*
X283910119Y-251402380D01*
X283814880Y-251545238D01*
X283719642Y-251640476D01*
X283624404Y-251688095D01*
X285100595Y-251402380D02*
X284624404Y-251402380D01*
X284576785Y-251878571D01*
X284624404Y-251830952D01*
X284719642Y-251783333D01*
X284957738Y-251783333D01*
X285052976Y-251830952D01*
X285100595Y-251878571D01*
X285148214Y-251973809D01*
X285148214Y-252211904D01*
X285100595Y-252307142D01*
X285052976Y-252354761D01*
X284957738Y-252402380D01*
X284719642Y-252402380D01*
X284624404Y-252354761D01*
X284576785Y-252307142D01*
X238593333Y-240787142D02*
X238545714Y-240834761D01*
X238402857Y-240882380D01*
X238307619Y-240882380D01*
X238164761Y-240834761D01*
X238069523Y-240739523D01*
X238021904Y-240644285D01*
X237974285Y-240453809D01*
X237974285Y-240310952D01*
X238021904Y-240120476D01*
X238069523Y-240025238D01*
X238164761Y-239930000D01*
X238307619Y-239882380D01*
X238402857Y-239882380D01*
X238545714Y-239930000D01*
X238593333Y-239977619D01*
X239069523Y-240882380D02*
X239260000Y-240882380D01*
X239355238Y-240834761D01*
X239402857Y-240787142D01*
X239498095Y-240644285D01*
X239545714Y-240453809D01*
X239545714Y-240072857D01*
X239498095Y-239977619D01*
X239450476Y-239930000D01*
X239355238Y-239882380D01*
X239164761Y-239882380D01*
X239069523Y-239930000D01*
X239021904Y-239977619D01*
X238974285Y-240072857D01*
X238974285Y-240310952D01*
X239021904Y-240406190D01*
X239069523Y-240453809D01*
X239164761Y-240501428D01*
X239355238Y-240501428D01*
X239450476Y-240453809D01*
X239498095Y-240406190D01*
X239545714Y-240310952D01*
X208653333Y-240707142D02*
X208605714Y-240754761D01*
X208462857Y-240802380D01*
X208367619Y-240802380D01*
X208224761Y-240754761D01*
X208129523Y-240659523D01*
X208081904Y-240564285D01*
X208034285Y-240373809D01*
X208034285Y-240230952D01*
X208081904Y-240040476D01*
X208129523Y-239945238D01*
X208224761Y-239850000D01*
X208367619Y-239802380D01*
X208462857Y-239802380D01*
X208605714Y-239850000D01*
X208653333Y-239897619D01*
X208986666Y-239802380D02*
X209653333Y-239802380D01*
X209224761Y-240802380D01*
X237848095Y-251232380D02*
X237848095Y-252041904D01*
X237895714Y-252137142D01*
X237943333Y-252184761D01*
X238038571Y-252232380D01*
X238229047Y-252232380D01*
X238324285Y-252184761D01*
X238371904Y-252137142D01*
X238419523Y-252041904D01*
X238419523Y-251232380D01*
X238943333Y-252232380D02*
X239133809Y-252232380D01*
X239229047Y-252184761D01*
X239276666Y-252137142D01*
X239371904Y-251994285D01*
X239419523Y-251803809D01*
X239419523Y-251422857D01*
X239371904Y-251327619D01*
X239324285Y-251280000D01*
X239229047Y-251232380D01*
X239038571Y-251232380D01*
X238943333Y-251280000D01*
X238895714Y-251327619D01*
X238848095Y-251422857D01*
X238848095Y-251660952D01*
X238895714Y-251756190D01*
X238943333Y-251803809D01*
X239038571Y-251851428D01*
X239229047Y-251851428D01*
X239324285Y-251803809D01*
X239371904Y-251756190D01*
X239419523Y-251660952D01*
X293393333Y-249292380D02*
X293060000Y-248816190D01*
X292821904Y-249292380D02*
X292821904Y-248292380D01*
X293202857Y-248292380D01*
X293298095Y-248340000D01*
X293345714Y-248387619D01*
X293393333Y-248482857D01*
X293393333Y-248625714D01*
X293345714Y-248720952D01*
X293298095Y-248768571D01*
X293202857Y-248816190D01*
X292821904Y-248816190D01*
X293964761Y-248720952D02*
X293869523Y-248673333D01*
X293821904Y-248625714D01*
X293774285Y-248530476D01*
X293774285Y-248482857D01*
X293821904Y-248387619D01*
X293869523Y-248340000D01*
X293964761Y-248292380D01*
X294155238Y-248292380D01*
X294250476Y-248340000D01*
X294298095Y-248387619D01*
X294345714Y-248482857D01*
X294345714Y-248530476D01*
X294298095Y-248625714D01*
X294250476Y-248673333D01*
X294155238Y-248720952D01*
X293964761Y-248720952D01*
X293869523Y-248768571D01*
X293821904Y-248816190D01*
X293774285Y-248911428D01*
X293774285Y-249101904D01*
X293821904Y-249197142D01*
X293869523Y-249244761D01*
X293964761Y-249292380D01*
X294155238Y-249292380D01*
X294250476Y-249244761D01*
X294298095Y-249197142D01*
X294345714Y-249101904D01*
X294345714Y-248911428D01*
X294298095Y-248816190D01*
X294250476Y-248768571D01*
X294155238Y-248720952D01*
X253473333Y-215687142D02*
X253425714Y-215734761D01*
X253282857Y-215782380D01*
X253187619Y-215782380D01*
X253044761Y-215734761D01*
X252949523Y-215639523D01*
X252901904Y-215544285D01*
X252854285Y-215353809D01*
X252854285Y-215210952D01*
X252901904Y-215020476D01*
X252949523Y-214925238D01*
X253044761Y-214830000D01*
X253187619Y-214782380D01*
X253282857Y-214782380D01*
X253425714Y-214830000D01*
X253473333Y-214877619D01*
X254330476Y-215115714D02*
X254330476Y-215782380D01*
X254092380Y-214734761D02*
X253854285Y-215449047D01*
X254473333Y-215449047D01*
X278012380Y-247326666D02*
X277536190Y-247660000D01*
X278012380Y-247898095D02*
X277012380Y-247898095D01*
X277012380Y-247517142D01*
X277060000Y-247421904D01*
X277107619Y-247374285D01*
X277202857Y-247326666D01*
X277345714Y-247326666D01*
X277440952Y-247374285D01*
X277488571Y-247421904D01*
X277536190Y-247517142D01*
X277536190Y-247898095D01*
X277012380Y-246469523D02*
X277012380Y-246660000D01*
X277060000Y-246755238D01*
X277107619Y-246802857D01*
X277250476Y-246898095D01*
X277440952Y-246945714D01*
X277821904Y-246945714D01*
X277917142Y-246898095D01*
X277964761Y-246850476D01*
X278012380Y-246755238D01*
X278012380Y-246564761D01*
X277964761Y-246469523D01*
X277917142Y-246421904D01*
X277821904Y-246374285D01*
X277583809Y-246374285D01*
X277488571Y-246421904D01*
X277440952Y-246469523D01*
X277393333Y-246564761D01*
X277393333Y-246755238D01*
X277440952Y-246850476D01*
X277488571Y-246898095D01*
X277583809Y-246945714D01*
X296443333Y-223972380D02*
X296110000Y-223496190D01*
X295871904Y-223972380D02*
X295871904Y-222972380D01*
X296252857Y-222972380D01*
X296348095Y-223020000D01*
X296395714Y-223067619D01*
X296443333Y-223162857D01*
X296443333Y-223305714D01*
X296395714Y-223400952D01*
X296348095Y-223448571D01*
X296252857Y-223496190D01*
X295871904Y-223496190D01*
X297300476Y-223305714D02*
X297300476Y-223972380D01*
X297062380Y-222924761D02*
X296824285Y-223639047D01*
X297443333Y-223639047D01*
X208583333Y-215857142D02*
X208535714Y-215904761D01*
X208392857Y-215952380D01*
X208297619Y-215952380D01*
X208154761Y-215904761D01*
X208059523Y-215809523D01*
X208011904Y-215714285D01*
X207964285Y-215523809D01*
X207964285Y-215380952D01*
X208011904Y-215190476D01*
X208059523Y-215095238D01*
X208154761Y-215000000D01*
X208297619Y-214952380D01*
X208392857Y-214952380D01*
X208535714Y-215000000D01*
X208583333Y-215047619D01*
X209535714Y-215952380D02*
X208964285Y-215952380D01*
X209250000Y-215952380D02*
X209250000Y-214952380D01*
X209154761Y-215095238D01*
X209059523Y-215190476D01*
X208964285Y-215238095D01*
X243127380Y-193363333D02*
X243841666Y-193363333D01*
X243984523Y-193410952D01*
X244079761Y-193506190D01*
X244127380Y-193649047D01*
X244127380Y-193744285D01*
X243222619Y-192934761D02*
X243175000Y-192887142D01*
X243127380Y-192791904D01*
X243127380Y-192553809D01*
X243175000Y-192458571D01*
X243222619Y-192410952D01*
X243317857Y-192363333D01*
X243413095Y-192363333D01*
X243555952Y-192410952D01*
X244127380Y-192982380D01*
X244127380Y-192363333D01*
X283683333Y-215747142D02*
X283635714Y-215794761D01*
X283492857Y-215842380D01*
X283397619Y-215842380D01*
X283254761Y-215794761D01*
X283159523Y-215699523D01*
X283111904Y-215604285D01*
X283064285Y-215413809D01*
X283064285Y-215270952D01*
X283111904Y-215080476D01*
X283159523Y-214985238D01*
X283254761Y-214890000D01*
X283397619Y-214842380D01*
X283492857Y-214842380D01*
X283635714Y-214890000D01*
X283683333Y-214937619D01*
X284540476Y-214842380D02*
X284350000Y-214842380D01*
X284254761Y-214890000D01*
X284207142Y-214937619D01*
X284111904Y-215080476D01*
X284064285Y-215270952D01*
X284064285Y-215651904D01*
X284111904Y-215747142D01*
X284159523Y-215794761D01*
X284254761Y-215842380D01*
X284445238Y-215842380D01*
X284540476Y-215794761D01*
X284588095Y-215747142D01*
X284635714Y-215651904D01*
X284635714Y-215413809D01*
X284588095Y-215318571D01*
X284540476Y-215270952D01*
X284445238Y-215223333D01*
X284254761Y-215223333D01*
X284159523Y-215270952D01*
X284111904Y-215318571D01*
X284064285Y-215413809D01*
X296303333Y-236572380D02*
X295970000Y-236096190D01*
X295731904Y-236572380D02*
X295731904Y-235572380D01*
X296112857Y-235572380D01*
X296208095Y-235620000D01*
X296255714Y-235667619D01*
X296303333Y-235762857D01*
X296303333Y-235905714D01*
X296255714Y-236000952D01*
X296208095Y-236048571D01*
X296112857Y-236096190D01*
X295731904Y-236096190D01*
X296684285Y-235667619D02*
X296731904Y-235620000D01*
X296827142Y-235572380D01*
X297065238Y-235572380D01*
X297160476Y-235620000D01*
X297208095Y-235667619D01*
X297255714Y-235762857D01*
X297255714Y-235858095D01*
X297208095Y-236000952D01*
X296636666Y-236572380D01*
X297255714Y-236572380D01*
X283058095Y-226442380D02*
X283058095Y-227251904D01*
X283105714Y-227347142D01*
X283153333Y-227394761D01*
X283248571Y-227442380D01*
X283439047Y-227442380D01*
X283534285Y-227394761D01*
X283581904Y-227347142D01*
X283629523Y-227251904D01*
X283629523Y-226442380D01*
X284534285Y-226442380D02*
X284343809Y-226442380D01*
X284248571Y-226490000D01*
X284200952Y-226537619D01*
X284105714Y-226680476D01*
X284058095Y-226870952D01*
X284058095Y-227251904D01*
X284105714Y-227347142D01*
X284153333Y-227394761D01*
X284248571Y-227442380D01*
X284439047Y-227442380D01*
X284534285Y-227394761D01*
X284581904Y-227347142D01*
X284629523Y-227251904D01*
X284629523Y-227013809D01*
X284581904Y-226918571D01*
X284534285Y-226870952D01*
X284439047Y-226823333D01*
X284248571Y-226823333D01*
X284153333Y-226870952D01*
X284105714Y-226918571D01*
X284058095Y-227013809D01*
X293573333Y-224072380D02*
X293240000Y-223596190D01*
X293001904Y-224072380D02*
X293001904Y-223072380D01*
X293382857Y-223072380D01*
X293478095Y-223120000D01*
X293525714Y-223167619D01*
X293573333Y-223262857D01*
X293573333Y-223405714D01*
X293525714Y-223500952D01*
X293478095Y-223548571D01*
X293382857Y-223596190D01*
X293001904Y-223596190D01*
X293906666Y-223072380D02*
X294525714Y-223072380D01*
X294192380Y-223453333D01*
X294335238Y-223453333D01*
X294430476Y-223500952D01*
X294478095Y-223548571D01*
X294525714Y-223643809D01*
X294525714Y-223881904D01*
X294478095Y-223977142D01*
X294430476Y-224024761D01*
X294335238Y-224072380D01*
X294049523Y-224072380D01*
X293954285Y-224024761D01*
X293906666Y-223977142D01*
X214067142Y-265747142D02*
X214019523Y-265794761D01*
X213876666Y-265842380D01*
X213781428Y-265842380D01*
X213638571Y-265794761D01*
X213543333Y-265699523D01*
X213495714Y-265604285D01*
X213448095Y-265413809D01*
X213448095Y-265270952D01*
X213495714Y-265080476D01*
X213543333Y-264985238D01*
X213638571Y-264890000D01*
X213781428Y-264842380D01*
X213876666Y-264842380D01*
X214019523Y-264890000D01*
X214067142Y-264937619D01*
X215019523Y-265842380D02*
X214448095Y-265842380D01*
X214733809Y-265842380D02*
X214733809Y-264842380D01*
X214638571Y-264985238D01*
X214543333Y-265080476D01*
X214448095Y-265128095D01*
X215400476Y-264937619D02*
X215448095Y-264890000D01*
X215543333Y-264842380D01*
X215781428Y-264842380D01*
X215876666Y-264890000D01*
X215924285Y-264937619D01*
X215971904Y-265032857D01*
X215971904Y-265128095D01*
X215924285Y-265270952D01*
X215352857Y-265842380D01*
X215971904Y-265842380D01*
X283627380Y-191193333D02*
X284341666Y-191193333D01*
X284484523Y-191240952D01*
X284579761Y-191336190D01*
X284627380Y-191479047D01*
X284627380Y-191574285D01*
X283960714Y-190288571D02*
X284627380Y-190288571D01*
X283579761Y-190526666D02*
X284294047Y-190764761D01*
X284294047Y-190145714D01*
X273147142Y-202002857D02*
X273194761Y-202050476D01*
X273242380Y-202193333D01*
X273242380Y-202288571D01*
X273194761Y-202431428D01*
X273099523Y-202526666D01*
X273004285Y-202574285D01*
X272813809Y-202621904D01*
X272670952Y-202621904D01*
X272480476Y-202574285D01*
X272385238Y-202526666D01*
X272290000Y-202431428D01*
X272242380Y-202288571D01*
X272242380Y-202193333D01*
X272290000Y-202050476D01*
X272337619Y-202002857D01*
X273242380Y-201050476D02*
X273242380Y-201621904D01*
X273242380Y-201336190D02*
X272242380Y-201336190D01*
X272385238Y-201431428D01*
X272480476Y-201526666D01*
X272528095Y-201621904D01*
X272242380Y-200717142D02*
X272242380Y-200050476D01*
X273242380Y-200479047D01*
X260382380Y-202448095D02*
X261191904Y-202448095D01*
X261287142Y-202400476D01*
X261334761Y-202352857D01*
X261382380Y-202257619D01*
X261382380Y-202067142D01*
X261334761Y-201971904D01*
X261287142Y-201924285D01*
X261191904Y-201876666D01*
X260382380Y-201876666D01*
X261382380Y-200876666D02*
X261382380Y-201448095D01*
X261382380Y-201162380D02*
X260382380Y-201162380D01*
X260525238Y-201257619D01*
X260620476Y-201352857D01*
X260668095Y-201448095D01*
X260382380Y-200019523D02*
X260382380Y-200210000D01*
X260430000Y-200305238D01*
X260477619Y-200352857D01*
X260620476Y-200448095D01*
X260810952Y-200495714D01*
X261191904Y-200495714D01*
X261287142Y-200448095D01*
X261334761Y-200400476D01*
X261382380Y-200305238D01*
X261382380Y-200114761D01*
X261334761Y-200019523D01*
X261287142Y-199971904D01*
X261191904Y-199924285D01*
X260953809Y-199924285D01*
X260858571Y-199971904D01*
X260810952Y-200019523D01*
X260763333Y-200114761D01*
X260763333Y-200305238D01*
X260810952Y-200400476D01*
X260858571Y-200448095D01*
X260953809Y-200495714D01*
X223583333Y-215707142D02*
X223535714Y-215754761D01*
X223392857Y-215802380D01*
X223297619Y-215802380D01*
X223154761Y-215754761D01*
X223059523Y-215659523D01*
X223011904Y-215564285D01*
X222964285Y-215373809D01*
X222964285Y-215230952D01*
X223011904Y-215040476D01*
X223059523Y-214945238D01*
X223154761Y-214850000D01*
X223297619Y-214802380D01*
X223392857Y-214802380D01*
X223535714Y-214850000D01*
X223583333Y-214897619D01*
X223964285Y-214897619D02*
X224011904Y-214850000D01*
X224107142Y-214802380D01*
X224345238Y-214802380D01*
X224440476Y-214850000D01*
X224488095Y-214897619D01*
X224535714Y-214992857D01*
X224535714Y-215088095D01*
X224488095Y-215230952D01*
X223916666Y-215802380D01*
X224535714Y-215802380D01*
X238663333Y-215707142D02*
X238615714Y-215754761D01*
X238472857Y-215802380D01*
X238377619Y-215802380D01*
X238234761Y-215754761D01*
X238139523Y-215659523D01*
X238091904Y-215564285D01*
X238044285Y-215373809D01*
X238044285Y-215230952D01*
X238091904Y-215040476D01*
X238139523Y-214945238D01*
X238234761Y-214850000D01*
X238377619Y-214802380D01*
X238472857Y-214802380D01*
X238615714Y-214850000D01*
X238663333Y-214897619D01*
X238996666Y-214802380D02*
X239615714Y-214802380D01*
X239282380Y-215183333D01*
X239425238Y-215183333D01*
X239520476Y-215230952D01*
X239568095Y-215278571D01*
X239615714Y-215373809D01*
X239615714Y-215611904D01*
X239568095Y-215707142D01*
X239520476Y-215754761D01*
X239425238Y-215802380D01*
X239139523Y-215802380D01*
X239044285Y-215754761D01*
X238996666Y-215707142D01*
X238429404Y-276622380D02*
X238429404Y-277431904D01*
X238477023Y-277527142D01*
X238524642Y-277574761D01*
X238619880Y-277622380D01*
X238810357Y-277622380D01*
X238905595Y-277574761D01*
X238953214Y-277527142D01*
X239000833Y-277431904D01*
X239000833Y-276622380D01*
X240000833Y-277622380D02*
X239429404Y-277622380D01*
X239715119Y-277622380D02*
X239715119Y-276622380D01*
X239619880Y-276765238D01*
X239524642Y-276860476D01*
X239429404Y-276908095D01*
X240857976Y-276955714D02*
X240857976Y-277622380D01*
X240619880Y-276574761D02*
X240381785Y-277289047D01*
X241000833Y-277289047D01*
X212942380Y-194213333D02*
X213656666Y-194213333D01*
X213799523Y-194260952D01*
X213894761Y-194356190D01*
X213942380Y-194499047D01*
X213942380Y-194594285D01*
X212942380Y-193260952D02*
X212942380Y-193737142D01*
X213418571Y-193784761D01*
X213370952Y-193737142D01*
X213323333Y-193641904D01*
X213323333Y-193403809D01*
X213370952Y-193308571D01*
X213418571Y-193260952D01*
X213513809Y-193213333D01*
X213751904Y-193213333D01*
X213847142Y-193260952D01*
X213894761Y-193308571D01*
X213942380Y-193403809D01*
X213942380Y-193641904D01*
X213894761Y-193737142D01*
X213847142Y-193784761D01*
X293573333Y-236392380D02*
X293240000Y-235916190D01*
X293001904Y-236392380D02*
X293001904Y-235392380D01*
X293382857Y-235392380D01*
X293478095Y-235440000D01*
X293525714Y-235487619D01*
X293573333Y-235582857D01*
X293573333Y-235725714D01*
X293525714Y-235820952D01*
X293478095Y-235868571D01*
X293382857Y-235916190D01*
X293001904Y-235916190D01*
X294525714Y-236392380D02*
X293954285Y-236392380D01*
X294240000Y-236392380D02*
X294240000Y-235392380D01*
X294144761Y-235535238D01*
X294049523Y-235630476D01*
X293954285Y-235678095D01*
X260931904Y-275742380D02*
X260931904Y-276551904D01*
X260979523Y-276647142D01*
X261027142Y-276694761D01*
X261122380Y-276742380D01*
X261312857Y-276742380D01*
X261408095Y-276694761D01*
X261455714Y-276647142D01*
X261503333Y-276551904D01*
X261503333Y-275742380D01*
X262503333Y-276742380D02*
X261931904Y-276742380D01*
X262217619Y-276742380D02*
X262217619Y-275742380D01*
X262122380Y-275885238D01*
X262027142Y-275980476D01*
X261931904Y-276028095D01*
X262836666Y-275742380D02*
X263455714Y-275742380D01*
X263122380Y-276123333D01*
X263265238Y-276123333D01*
X263360476Y-276170952D01*
X263408095Y-276218571D01*
X263455714Y-276313809D01*
X263455714Y-276551904D01*
X263408095Y-276647142D01*
X263360476Y-276694761D01*
X263265238Y-276742380D01*
X262979523Y-276742380D01*
X262884285Y-276694761D01*
X262836666Y-276647142D01*
X278117142Y-269142380D02*
X277783809Y-268666190D01*
X277545714Y-269142380D02*
X277545714Y-268142380D01*
X277926666Y-268142380D01*
X278021904Y-268190000D01*
X278069523Y-268237619D01*
X278117142Y-268332857D01*
X278117142Y-268475714D01*
X278069523Y-268570952D01*
X278021904Y-268618571D01*
X277926666Y-268666190D01*
X277545714Y-268666190D01*
X279069523Y-269142380D02*
X278498095Y-269142380D01*
X278783809Y-269142380D02*
X278783809Y-268142380D01*
X278688571Y-268285238D01*
X278593333Y-268380476D01*
X278498095Y-268428095D01*
X279450476Y-268237619D02*
X279498095Y-268190000D01*
X279593333Y-268142380D01*
X279831428Y-268142380D01*
X279926666Y-268190000D01*
X279974285Y-268237619D01*
X280021904Y-268332857D01*
X280021904Y-268428095D01*
X279974285Y-268570952D01*
X279402857Y-269142380D01*
X280021904Y-269142380D01*
X268493333Y-215687142D02*
X268445714Y-215734761D01*
X268302857Y-215782380D01*
X268207619Y-215782380D01*
X268064761Y-215734761D01*
X267969523Y-215639523D01*
X267921904Y-215544285D01*
X267874285Y-215353809D01*
X267874285Y-215210952D01*
X267921904Y-215020476D01*
X267969523Y-214925238D01*
X268064761Y-214830000D01*
X268207619Y-214782380D01*
X268302857Y-214782380D01*
X268445714Y-214830000D01*
X268493333Y-214877619D01*
X269398095Y-214782380D02*
X268921904Y-214782380D01*
X268874285Y-215258571D01*
X268921904Y-215210952D01*
X269017142Y-215163333D01*
X269255238Y-215163333D01*
X269350476Y-215210952D01*
X269398095Y-215258571D01*
X269445714Y-215353809D01*
X269445714Y-215591904D01*
X269398095Y-215687142D01*
X269350476Y-215734761D01*
X269255238Y-215782380D01*
X269017142Y-215782380D01*
X268921904Y-215734761D01*
X268874285Y-215687142D01*
X283197142Y-240827142D02*
X283149523Y-240874761D01*
X283006666Y-240922380D01*
X282911428Y-240922380D01*
X282768571Y-240874761D01*
X282673333Y-240779523D01*
X282625714Y-240684285D01*
X282578095Y-240493809D01*
X282578095Y-240350952D01*
X282625714Y-240160476D01*
X282673333Y-240065238D01*
X282768571Y-239970000D01*
X282911428Y-239922380D01*
X283006666Y-239922380D01*
X283149523Y-239970000D01*
X283197142Y-240017619D01*
X284149523Y-240922380D02*
X283578095Y-240922380D01*
X283863809Y-240922380D02*
X283863809Y-239922380D01*
X283768571Y-240065238D01*
X283673333Y-240160476D01*
X283578095Y-240208095D01*
X285054285Y-239922380D02*
X284578095Y-239922380D01*
X284530476Y-240398571D01*
X284578095Y-240350952D01*
X284673333Y-240303333D01*
X284911428Y-240303333D01*
X285006666Y-240350952D01*
X285054285Y-240398571D01*
X285101904Y-240493809D01*
X285101904Y-240731904D01*
X285054285Y-240827142D01*
X285006666Y-240874761D01*
X284911428Y-240922380D01*
X284673333Y-240922380D01*
X284578095Y-240874761D01*
X284530476Y-240827142D01*
X246887142Y-201932857D02*
X246934761Y-201980476D01*
X246982380Y-202123333D01*
X246982380Y-202218571D01*
X246934761Y-202361428D01*
X246839523Y-202456666D01*
X246744285Y-202504285D01*
X246553809Y-202551904D01*
X246410952Y-202551904D01*
X246220476Y-202504285D01*
X246125238Y-202456666D01*
X246030000Y-202361428D01*
X245982380Y-202218571D01*
X245982380Y-202123333D01*
X246030000Y-201980476D01*
X246077619Y-201932857D01*
X246982380Y-200980476D02*
X246982380Y-201551904D01*
X246982380Y-201266190D02*
X245982380Y-201266190D01*
X246125238Y-201361428D01*
X246220476Y-201456666D01*
X246268095Y-201551904D01*
X245982380Y-200123333D02*
X245982380Y-200313809D01*
X246030000Y-200409047D01*
X246077619Y-200456666D01*
X246220476Y-200551904D01*
X246410952Y-200599523D01*
X246791904Y-200599523D01*
X246887142Y-200551904D01*
X246934761Y-200504285D01*
X246982380Y-200409047D01*
X246982380Y-200218571D01*
X246934761Y-200123333D01*
X246887142Y-200075714D01*
X246791904Y-200028095D01*
X246553809Y-200028095D01*
X246458571Y-200075714D01*
X246410952Y-200123333D01*
X246363333Y-200218571D01*
X246363333Y-200409047D01*
X246410952Y-200504285D01*
X246458571Y-200551904D01*
X246553809Y-200599523D01*
X222958095Y-226302380D02*
X222958095Y-227111904D01*
X223005714Y-227207142D01*
X223053333Y-227254761D01*
X223148571Y-227302380D01*
X223339047Y-227302380D01*
X223434285Y-227254761D01*
X223481904Y-227207142D01*
X223529523Y-227111904D01*
X223529523Y-226302380D01*
X223958095Y-226397619D02*
X224005714Y-226350000D01*
X224100952Y-226302380D01*
X224339047Y-226302380D01*
X224434285Y-226350000D01*
X224481904Y-226397619D01*
X224529523Y-226492857D01*
X224529523Y-226588095D01*
X224481904Y-226730952D01*
X223910476Y-227302380D01*
X224529523Y-227302380D01*
X267947142Y-240607142D02*
X267899523Y-240654761D01*
X267756666Y-240702380D01*
X267661428Y-240702380D01*
X267518571Y-240654761D01*
X267423333Y-240559523D01*
X267375714Y-240464285D01*
X267328095Y-240273809D01*
X267328095Y-240130952D01*
X267375714Y-239940476D01*
X267423333Y-239845238D01*
X267518571Y-239750000D01*
X267661428Y-239702380D01*
X267756666Y-239702380D01*
X267899523Y-239750000D01*
X267947142Y-239797619D01*
X268899523Y-240702380D02*
X268328095Y-240702380D01*
X268613809Y-240702380D02*
X268613809Y-239702380D01*
X268518571Y-239845238D01*
X268423333Y-239940476D01*
X268328095Y-239988095D01*
X269851904Y-240702380D02*
X269280476Y-240702380D01*
X269566190Y-240702380D02*
X269566190Y-239702380D01*
X269470952Y-239845238D01*
X269375714Y-239940476D01*
X269280476Y-239988095D01*
X237968095Y-226352380D02*
X237968095Y-227161904D01*
X238015714Y-227257142D01*
X238063333Y-227304761D01*
X238158571Y-227352380D01*
X238349047Y-227352380D01*
X238444285Y-227304761D01*
X238491904Y-227257142D01*
X238539523Y-227161904D01*
X238539523Y-226352380D01*
X238920476Y-226352380D02*
X239539523Y-226352380D01*
X239206190Y-226733333D01*
X239349047Y-226733333D01*
X239444285Y-226780952D01*
X239491904Y-226828571D01*
X239539523Y-226923809D01*
X239539523Y-227161904D01*
X239491904Y-227257142D01*
X239444285Y-227304761D01*
X239349047Y-227352380D01*
X239063333Y-227352380D01*
X238968095Y-227304761D01*
X238920476Y-227257142D01*
X222768095Y-251442380D02*
X222768095Y-252251904D01*
X222815714Y-252347142D01*
X222863333Y-252394761D01*
X222958571Y-252442380D01*
X223149047Y-252442380D01*
X223244285Y-252394761D01*
X223291904Y-252347142D01*
X223339523Y-252251904D01*
X223339523Y-251442380D01*
X223958571Y-251870952D02*
X223863333Y-251823333D01*
X223815714Y-251775714D01*
X223768095Y-251680476D01*
X223768095Y-251632857D01*
X223815714Y-251537619D01*
X223863333Y-251490000D01*
X223958571Y-251442380D01*
X224149047Y-251442380D01*
X224244285Y-251490000D01*
X224291904Y-251537619D01*
X224339523Y-251632857D01*
X224339523Y-251680476D01*
X224291904Y-251775714D01*
X224244285Y-251823333D01*
X224149047Y-251870952D01*
X223958571Y-251870952D01*
X223863333Y-251918571D01*
X223815714Y-251966190D01*
X223768095Y-252061428D01*
X223768095Y-252251904D01*
X223815714Y-252347142D01*
X223863333Y-252394761D01*
X223958571Y-252442380D01*
X224149047Y-252442380D01*
X224244285Y-252394761D01*
X224291904Y-252347142D01*
X224339523Y-252251904D01*
X224339523Y-252061428D01*
X224291904Y-251966190D01*
X224244285Y-251918571D01*
X224149047Y-251870952D01*
X243467380Y-202453333D02*
X244181666Y-202453333D01*
X244324523Y-202500952D01*
X244419761Y-202596190D01*
X244467380Y-202739047D01*
X244467380Y-202834285D01*
X244467380Y-201453333D02*
X244467380Y-202024761D01*
X244467380Y-201739047D02*
X243467380Y-201739047D01*
X243610238Y-201834285D01*
X243705476Y-201929523D01*
X243753095Y-202024761D01*
X278482380Y-257156666D02*
X278006190Y-257490000D01*
X278482380Y-257728095D02*
X277482380Y-257728095D01*
X277482380Y-257347142D01*
X277530000Y-257251904D01*
X277577619Y-257204285D01*
X277672857Y-257156666D01*
X277815714Y-257156666D01*
X277910952Y-257204285D01*
X277958571Y-257251904D01*
X278006190Y-257347142D01*
X278006190Y-257728095D01*
X277482380Y-256251904D02*
X277482380Y-256728095D01*
X277958571Y-256775714D01*
X277910952Y-256728095D01*
X277863333Y-256632857D01*
X277863333Y-256394761D01*
X277910952Y-256299523D01*
X277958571Y-256251904D01*
X278053809Y-256204285D01*
X278291904Y-256204285D01*
X278387142Y-256251904D01*
X278434761Y-256299523D01*
X278482380Y-256394761D01*
X278482380Y-256632857D01*
X278434761Y-256728095D01*
X278387142Y-256775714D01*
X267958095Y-226502380D02*
X267958095Y-227311904D01*
X268005714Y-227407142D01*
X268053333Y-227454761D01*
X268148571Y-227502380D01*
X268339047Y-227502380D01*
X268434285Y-227454761D01*
X268481904Y-227407142D01*
X268529523Y-227311904D01*
X268529523Y-226502380D01*
X269481904Y-226502380D02*
X269005714Y-226502380D01*
X268958095Y-226978571D01*
X269005714Y-226930952D01*
X269100952Y-226883333D01*
X269339047Y-226883333D01*
X269434285Y-226930952D01*
X269481904Y-226978571D01*
X269529523Y-227073809D01*
X269529523Y-227311904D01*
X269481904Y-227407142D01*
X269434285Y-227454761D01*
X269339047Y-227502380D01*
X269100952Y-227502380D01*
X269005714Y-227454761D01*
X268958095Y-227407142D01*
X284942380Y-271038333D02*
X285656666Y-271038333D01*
X285799523Y-271085952D01*
X285894761Y-271181190D01*
X285942380Y-271324047D01*
X285942380Y-271419285D01*
X284942380Y-270657380D02*
X284942380Y-270038333D01*
X285323333Y-270371666D01*
X285323333Y-270228809D01*
X285370952Y-270133571D01*
X285418571Y-270085952D01*
X285513809Y-270038333D01*
X285751904Y-270038333D01*
X285847142Y-270085952D01*
X285894761Y-270133571D01*
X285942380Y-270228809D01*
X285942380Y-270514523D01*
X285894761Y-270609761D01*
X285847142Y-270657380D01*
X208954491Y-196927142D02*
X208906872Y-196974761D01*
X208764015Y-197022380D01*
X208668777Y-197022380D01*
X208525920Y-196974761D01*
X208430682Y-196879523D01*
X208383063Y-196784285D01*
X208335444Y-196593809D01*
X208335444Y-196450952D01*
X208383063Y-196260476D01*
X208430682Y-196165238D01*
X208525920Y-196070000D01*
X208668777Y-196022380D01*
X208764015Y-196022380D01*
X208906872Y-196070000D01*
X208954491Y-196117619D01*
X209906872Y-197022380D02*
X209335444Y-197022380D01*
X209621158Y-197022380D02*
X209621158Y-196022380D01*
X209525920Y-196165238D01*
X209430682Y-196260476D01*
X209335444Y-196308095D01*
X210478301Y-196450952D02*
X210383063Y-196403333D01*
X210335444Y-196355714D01*
X210287825Y-196260476D01*
X210287825Y-196212857D01*
X210335444Y-196117619D01*
X210383063Y-196070000D01*
X210478301Y-196022380D01*
X210668777Y-196022380D01*
X210764015Y-196070000D01*
X210811634Y-196117619D01*
X210859253Y-196212857D01*
X210859253Y-196260476D01*
X210811634Y-196355714D01*
X210764015Y-196403333D01*
X210668777Y-196450952D01*
X210478301Y-196450952D01*
X210383063Y-196498571D01*
X210335444Y-196546190D01*
X210287825Y-196641428D01*
X210287825Y-196831904D01*
X210335444Y-196927142D01*
X210383063Y-196974761D01*
X210478301Y-197022380D01*
X210668777Y-197022380D01*
X210764015Y-196974761D01*
X210811634Y-196927142D01*
X210859253Y-196831904D01*
X210859253Y-196641428D01*
X210811634Y-196546190D01*
X210764015Y-196498571D01*
X210668777Y-196450952D01*
X223363333Y-240807142D02*
X223315714Y-240854761D01*
X223172857Y-240902380D01*
X223077619Y-240902380D01*
X222934761Y-240854761D01*
X222839523Y-240759523D01*
X222791904Y-240664285D01*
X222744285Y-240473809D01*
X222744285Y-240330952D01*
X222791904Y-240140476D01*
X222839523Y-240045238D01*
X222934761Y-239950000D01*
X223077619Y-239902380D01*
X223172857Y-239902380D01*
X223315714Y-239950000D01*
X223363333Y-239997619D01*
X223934761Y-240330952D02*
X223839523Y-240283333D01*
X223791904Y-240235714D01*
X223744285Y-240140476D01*
X223744285Y-240092857D01*
X223791904Y-239997619D01*
X223839523Y-239950000D01*
X223934761Y-239902380D01*
X224125238Y-239902380D01*
X224220476Y-239950000D01*
X224268095Y-239997619D01*
X224315714Y-240092857D01*
X224315714Y-240140476D01*
X224268095Y-240235714D01*
X224220476Y-240283333D01*
X224125238Y-240330952D01*
X223934761Y-240330952D01*
X223839523Y-240378571D01*
X223791904Y-240426190D01*
X223744285Y-240521428D01*
X223744285Y-240711904D01*
X223791904Y-240807142D01*
X223839523Y-240854761D01*
X223934761Y-240902380D01*
X224125238Y-240902380D01*
X224220476Y-240854761D01*
X224268095Y-240807142D01*
X224315714Y-240711904D01*
X224315714Y-240521428D01*
X224268095Y-240426190D01*
X224220476Y-240378571D01*
X224125238Y-240330952D01*
X238447142Y-265957142D02*
X238399523Y-266004761D01*
X238256666Y-266052380D01*
X238161428Y-266052380D01*
X238018571Y-266004761D01*
X237923333Y-265909523D01*
X237875714Y-265814285D01*
X237828095Y-265623809D01*
X237828095Y-265480952D01*
X237875714Y-265290476D01*
X237923333Y-265195238D01*
X238018571Y-265100000D01*
X238161428Y-265052380D01*
X238256666Y-265052380D01*
X238399523Y-265100000D01*
X238447142Y-265147619D01*
X239399523Y-266052380D02*
X238828095Y-266052380D01*
X239113809Y-266052380D02*
X239113809Y-265052380D01*
X239018571Y-265195238D01*
X238923333Y-265290476D01*
X238828095Y-265338095D01*
X240256666Y-265385714D02*
X240256666Y-266052380D01*
X240018571Y-265004761D02*
X239780476Y-265719047D01*
X240399523Y-265719047D01*
X267361904Y-251302380D02*
X267361904Y-252111904D01*
X267409523Y-252207142D01*
X267457142Y-252254761D01*
X267552380Y-252302380D01*
X267742857Y-252302380D01*
X267838095Y-252254761D01*
X267885714Y-252207142D01*
X267933333Y-252111904D01*
X267933333Y-251302380D01*
X268933333Y-252302380D02*
X268361904Y-252302380D01*
X268647619Y-252302380D02*
X268647619Y-251302380D01*
X268552380Y-251445238D01*
X268457142Y-251540476D01*
X268361904Y-251588095D01*
X269885714Y-252302380D02*
X269314285Y-252302380D01*
X269600000Y-252302380D02*
X269600000Y-251302380D01*
X269504761Y-251445238D01*
X269409523Y-251540476D01*
X269314285Y-251588095D01*
X208078095Y-251392380D02*
X208078095Y-252201904D01*
X208125714Y-252297142D01*
X208173333Y-252344761D01*
X208268571Y-252392380D01*
X208459047Y-252392380D01*
X208554285Y-252344761D01*
X208601904Y-252297142D01*
X208649523Y-252201904D01*
X208649523Y-251392380D01*
X209030476Y-251392380D02*
X209697142Y-251392380D01*
X209268571Y-252392380D01*
X252211904Y-251272380D02*
X252211904Y-252081904D01*
X252259523Y-252177142D01*
X252307142Y-252224761D01*
X252402380Y-252272380D01*
X252592857Y-252272380D01*
X252688095Y-252224761D01*
X252735714Y-252177142D01*
X252783333Y-252081904D01*
X252783333Y-251272380D01*
X253783333Y-252272380D02*
X253211904Y-252272380D01*
X253497619Y-252272380D02*
X253497619Y-251272380D01*
X253402380Y-251415238D01*
X253307142Y-251510476D01*
X253211904Y-251558095D01*
X254402380Y-251272380D02*
X254497619Y-251272380D01*
X254592857Y-251320000D01*
X254640476Y-251367619D01*
X254688095Y-251462857D01*
X254735714Y-251653333D01*
X254735714Y-251891428D01*
X254688095Y-252081904D01*
X254640476Y-252177142D01*
X254592857Y-252224761D01*
X254497619Y-252272380D01*
X254402380Y-252272380D01*
X254307142Y-252224761D01*
X254259523Y-252177142D01*
X254211904Y-252081904D01*
X254164285Y-251891428D01*
X254164285Y-251653333D01*
X254211904Y-251462857D01*
X254259523Y-251367619D01*
X254307142Y-251320000D01*
X254402380Y-251272380D01*
D13*
X250010000Y-241460000D02*
X257250000Y-241460000D01*
X250010000Y-239220000D02*
X257250000Y-239220000D01*
X257250000Y-239220000D02*
X257250000Y-241460000D01*
X250010000Y-239220000D02*
X250010000Y-241460000D01*
D14*
X205422500Y-218425000D02*
X205422500Y-217105000D01*
X205422500Y-217105000D02*
X212022500Y-217105000D01*
X212022500Y-236795000D02*
X205422500Y-236795000D01*
X212022500Y-217105000D02*
X212022500Y-218425000D01*
X205422500Y-236795000D02*
X205422500Y-235475000D01*
X212022500Y-235475000D02*
X212022500Y-236795000D01*
D11*
X203767500Y-219330000D02*
G75*
G03*
X203767500Y-219330000I-100000J0D01*
G01*
D13*
X258340000Y-266440000D02*
X265580000Y-266440000D01*
X258340000Y-264200000D02*
X265580000Y-264200000D01*
X258340000Y-264200000D02*
X258340000Y-266440000D01*
X265580000Y-264200000D02*
X265580000Y-266440000D01*
X296420000Y-242730000D02*
X296420000Y-245890000D01*
X297340000Y-241810000D02*
G75*
G03*
X297340000Y-241810000I-920000J0D01*
G01*
X293940000Y-261580000D02*
X293940000Y-258420000D01*
X294860000Y-262500000D02*
G75*
G03*
X294860000Y-262500000I-920000J0D01*
G01*
D14*
X294335000Y-204777500D02*
X293015000Y-204777500D01*
X294335000Y-198177500D02*
X294335000Y-204777500D01*
X275965000Y-204777500D02*
X274645000Y-204777500D01*
X274645000Y-198177500D02*
X275965000Y-198177500D01*
X274645000Y-204777500D02*
X274645000Y-198177500D01*
X293015000Y-198177500D02*
X294335000Y-198177500D01*
D11*
X276970000Y-206532500D02*
G75*
G03*
X276970000Y-206532500I-100000J0D01*
G01*
D13*
X276060000Y-263390000D02*
X276060000Y-266550000D01*
X276980000Y-262470000D02*
G75*
G03*
X276980000Y-262470000I-920000J0D01*
G01*
D14*
X211600000Y-267165000D02*
X218200000Y-267165000D01*
X218200000Y-286855000D02*
X211600000Y-286855000D01*
X211600000Y-268485000D02*
X211600000Y-267165000D01*
X218200000Y-285535000D02*
X218200000Y-286855000D01*
X211600000Y-286855000D02*
X211600000Y-285535000D01*
X218200000Y-267165000D02*
X218200000Y-268485000D01*
D11*
X209945000Y-269390000D02*
G75*
G03*
X209945000Y-269390000I-100000J0D01*
G01*
D14*
X250412500Y-217055000D02*
X257012500Y-217055000D01*
X250412500Y-236745000D02*
X250412500Y-235425000D01*
X257012500Y-235425000D02*
X257012500Y-236745000D01*
X257012500Y-217055000D02*
X257012500Y-218375000D01*
X257012500Y-236745000D02*
X250412500Y-236745000D01*
X250412500Y-218375000D02*
X250412500Y-217055000D01*
D11*
X248757500Y-219280000D02*
G75*
G03*
X248757500Y-219280000I-100000J0D01*
G01*
D13*
X296770000Y-261630000D02*
X296770000Y-258470000D01*
X297690000Y-262550000D02*
G75*
G03*
X297690000Y-262550000I-920000J0D01*
G01*
D14*
X287162500Y-242105000D02*
X287162500Y-243425000D01*
X287162500Y-261795000D02*
X280562500Y-261795000D01*
X280562500Y-261795000D02*
X280562500Y-260475000D01*
X280562500Y-243425000D02*
X280562500Y-242105000D01*
X287162500Y-260475000D02*
X287162500Y-261795000D01*
X280562500Y-242105000D02*
X287162500Y-242105000D01*
D11*
X278907500Y-244330000D02*
G75*
G03*
X278907500Y-244330000I-100000J0D01*
G01*
D13*
X242430000Y-239280000D02*
X242430000Y-241520000D01*
X235190000Y-241520000D02*
X242430000Y-241520000D01*
X235190000Y-239280000D02*
X235190000Y-241520000D01*
X235190000Y-239280000D02*
X242430000Y-239280000D01*
X205170000Y-239250000D02*
X205170000Y-241490000D01*
X205170000Y-241490000D02*
X212410000Y-241490000D01*
X212410000Y-239250000D02*
X212410000Y-241490000D01*
X205170000Y-239250000D02*
X212410000Y-239250000D01*
D14*
X242112500Y-242105000D02*
X242112500Y-243425000D01*
X235512500Y-261795000D02*
X235512500Y-260475000D01*
X235512500Y-242105000D02*
X242112500Y-242105000D01*
X235512500Y-243425000D02*
X235512500Y-242105000D01*
X242112500Y-260475000D02*
X242112500Y-261795000D01*
X242112500Y-261795000D02*
X235512500Y-261795000D01*
D11*
X233857500Y-244330000D02*
G75*
G03*
X233857500Y-244330000I-100000J0D01*
G01*
D13*
X293640000Y-242750000D02*
X293640000Y-245910000D01*
X294560000Y-241830000D02*
G75*
G03*
X294560000Y-241830000I-920000J0D01*
G01*
X257280000Y-214280000D02*
X257280000Y-216520000D01*
X250040000Y-214280000D02*
X257280000Y-214280000D01*
X250040000Y-216520000D02*
X257280000Y-216520000D01*
X250040000Y-214280000D02*
X250040000Y-216520000D01*
X275640000Y-245540000D02*
X275640000Y-248700000D01*
X276560000Y-244620000D02*
G75*
G03*
X276560000Y-244620000I-920000J0D01*
G01*
X296600000Y-217630000D02*
X296600000Y-220790000D01*
X297520000Y-216710000D02*
G75*
G03*
X297520000Y-216710000I-920000J0D01*
G01*
X205080000Y-214350000D02*
X212320000Y-214350000D01*
X212320000Y-214350000D02*
X212320000Y-216590000D01*
X205080000Y-216590000D02*
X212320000Y-216590000D01*
X205080000Y-214350000D02*
X205080000Y-216590000D01*
X240075000Y-191700000D02*
X222235000Y-191700000D01*
X240075000Y-191700000D02*
X240075000Y-194360000D01*
X241345000Y-191700000D02*
X242675000Y-191700000D01*
X240075000Y-194360000D02*
X222235000Y-194360000D01*
X242675000Y-191700000D02*
X242675000Y-193030000D01*
X222235000Y-191700000D02*
X222235000Y-194360000D01*
X287500000Y-214320000D02*
X287500000Y-216560000D01*
X280260000Y-214320000D02*
X280260000Y-216560000D01*
X280260000Y-214320000D02*
X287500000Y-214320000D01*
X280260000Y-216560000D02*
X287500000Y-216560000D01*
X296450000Y-233150000D02*
X296450000Y-229990000D01*
X297370000Y-234070000D02*
G75*
G03*
X297370000Y-234070000I-920000J0D01*
G01*
D14*
X280450000Y-217055000D02*
X287050000Y-217055000D01*
X280450000Y-218375000D02*
X280450000Y-217055000D01*
X280450000Y-236745000D02*
X280450000Y-235425000D01*
X287050000Y-236745000D02*
X280450000Y-236745000D01*
X287050000Y-217055000D02*
X287050000Y-218375000D01*
X287050000Y-235425000D02*
X287050000Y-236745000D01*
D11*
X278795000Y-219280000D02*
G75*
G03*
X278795000Y-219280000I-100000J0D01*
G01*
D13*
X293810000Y-217620000D02*
X293810000Y-220780000D01*
X294730000Y-216700000D02*
G75*
G03*
X294730000Y-216700000I-920000J0D01*
G01*
X211150000Y-264400000D02*
X218390000Y-264400000D01*
X211150000Y-264400000D02*
X211150000Y-266640000D01*
X211150000Y-266640000D02*
X218390000Y-266640000D01*
X218390000Y-264400000D02*
X218390000Y-266640000D01*
X280575000Y-189530000D02*
X280575000Y-192190000D01*
X281845000Y-189530000D02*
X283175000Y-189530000D01*
X280575000Y-189530000D02*
X262735000Y-189530000D01*
X280575000Y-192190000D02*
X262735000Y-192190000D01*
X262735000Y-189530000D02*
X262735000Y-192190000D01*
X283175000Y-189530000D02*
X283175000Y-190860000D01*
X271590000Y-205100000D02*
X271590000Y-197860000D01*
X271590000Y-197860000D02*
X273830000Y-197860000D01*
X273830000Y-205100000D02*
X273830000Y-197860000D01*
X271590000Y-205100000D02*
X273830000Y-205100000D01*
D14*
X250825000Y-204530000D02*
X250825000Y-197930000D01*
X250825000Y-197930000D02*
X252145000Y-197930000D01*
X270515000Y-204530000D02*
X269195000Y-204530000D01*
X269195000Y-197930000D02*
X270515000Y-197930000D01*
X270515000Y-197930000D02*
X270515000Y-204530000D01*
X252145000Y-204530000D02*
X250825000Y-204530000D01*
D11*
X253150000Y-206285000D02*
G75*
G03*
X253150000Y-206285000I-100000J0D01*
G01*
D13*
X220090000Y-216560000D02*
X227330000Y-216560000D01*
X220090000Y-214320000D02*
X220090000Y-216560000D01*
X227330000Y-214320000D02*
X227330000Y-216560000D01*
X220090000Y-214320000D02*
X227330000Y-214320000D01*
X235140000Y-214250000D02*
X242380000Y-214250000D01*
X235140000Y-216490000D02*
X242380000Y-216490000D01*
X235140000Y-214250000D02*
X235140000Y-216490000D01*
X242380000Y-214250000D02*
X242380000Y-216490000D01*
D14*
X235910000Y-286915000D02*
X235910000Y-285595000D01*
X242510000Y-286915000D02*
X235910000Y-286915000D01*
X235910000Y-267225000D02*
X242510000Y-267225000D01*
X235910000Y-268545000D02*
X235910000Y-267225000D01*
X242510000Y-285595000D02*
X242510000Y-286915000D01*
X242510000Y-267225000D02*
X242510000Y-268545000D01*
D11*
X234255000Y-269450000D02*
G75*
G03*
X234255000Y-269450000I-100000J0D01*
G01*
D13*
X212050000Y-195210000D02*
X210720000Y-195210000D01*
X212050000Y-193880000D02*
X212050000Y-195210000D01*
X209450000Y-192550000D02*
X209450000Y-195210000D01*
X209450000Y-192550000D02*
X206850000Y-192550000D01*
X209450000Y-195210000D02*
X206850000Y-195210000D01*
X206850000Y-192550000D02*
X206850000Y-195210000D01*
X293760000Y-233130000D02*
X293760000Y-229970000D01*
X294680000Y-234050000D02*
G75*
G03*
X294680000Y-234050000I-920000J0D01*
G01*
D14*
X265510000Y-286685000D02*
X258910000Y-286685000D01*
X258910000Y-286685000D02*
X258910000Y-285365000D01*
X258910000Y-268315000D02*
X258910000Y-266995000D01*
X265510000Y-266995000D02*
X265510000Y-268315000D01*
X265510000Y-285365000D02*
X265510000Y-286685000D01*
X258910000Y-266995000D02*
X265510000Y-266995000D01*
D11*
X257255000Y-269220000D02*
G75*
G03*
X257255000Y-269220000I-100000J0D01*
G01*
D13*
X277140000Y-270610000D02*
X280300000Y-270610000D01*
X277140000Y-270610000D02*
G75*
G03*
X277140000Y-270610000I-920000J0D01*
G01*
X265040000Y-216470000D02*
X272280000Y-216470000D01*
X272280000Y-214230000D02*
X272280000Y-216470000D01*
X265040000Y-214230000D02*
X272280000Y-214230000D01*
X265040000Y-214230000D02*
X265040000Y-216470000D01*
X280250000Y-239300000D02*
X280250000Y-241540000D01*
X280250000Y-241540000D02*
X287490000Y-241540000D01*
X280250000Y-239300000D02*
X287490000Y-239300000D01*
X287490000Y-239300000D02*
X287490000Y-241540000D01*
X249900000Y-204910000D02*
X249900000Y-197670000D01*
X247660000Y-204910000D02*
X249900000Y-204910000D01*
X247660000Y-197670000D02*
X249900000Y-197670000D01*
X247660000Y-204910000D02*
X247660000Y-197670000D01*
D14*
X227050000Y-235475000D02*
X227050000Y-236795000D01*
X220450000Y-236795000D02*
X220450000Y-235475000D01*
X220450000Y-217105000D02*
X227050000Y-217105000D01*
X227050000Y-217105000D02*
X227050000Y-218425000D01*
X227050000Y-236795000D02*
X220450000Y-236795000D01*
X220450000Y-218425000D02*
X220450000Y-217105000D01*
D11*
X218795000Y-219330000D02*
G75*
G03*
X218795000Y-219330000I-100000J0D01*
G01*
D13*
X272190000Y-239130000D02*
X272190000Y-241370000D01*
X264950000Y-239130000D02*
X272190000Y-239130000D01*
X264950000Y-241370000D02*
X272190000Y-241370000D01*
X264950000Y-239130000D02*
X264950000Y-241370000D01*
D14*
X242112500Y-236745000D02*
X235512500Y-236745000D01*
X235512500Y-217055000D02*
X242112500Y-217055000D01*
X242112500Y-235425000D02*
X242112500Y-236745000D01*
X235512500Y-218375000D02*
X235512500Y-217055000D01*
X242112500Y-217055000D02*
X242112500Y-218375000D01*
X235512500Y-236745000D02*
X235512500Y-235425000D01*
D11*
X233857500Y-219280000D02*
G75*
G03*
X233857500Y-219280000I-100000J0D01*
G01*
D14*
X220400000Y-242105000D02*
X227000000Y-242105000D01*
X227000000Y-260475000D02*
X227000000Y-261795000D01*
X220400000Y-243425000D02*
X220400000Y-242105000D01*
X227000000Y-242105000D02*
X227000000Y-243425000D01*
X220400000Y-261795000D02*
X220400000Y-260475000D01*
X227000000Y-261795000D02*
X220400000Y-261795000D01*
D11*
X218745000Y-244330000D02*
G75*
G03*
X218745000Y-244330000I-100000J0D01*
G01*
D13*
X240415000Y-203450000D02*
X222575000Y-203450000D01*
X240415000Y-200790000D02*
X240415000Y-203450000D01*
X243015000Y-200790000D02*
X243015000Y-202120000D01*
X240415000Y-200790000D02*
X222575000Y-200790000D01*
X241685000Y-200790000D02*
X243015000Y-200790000D01*
X222575000Y-200790000D02*
X222575000Y-203450000D01*
X276110000Y-255370000D02*
X276110000Y-258530000D01*
X277030000Y-254450000D02*
G75*
G03*
X277030000Y-254450000I-920000J0D01*
G01*
D14*
X272062500Y-235425000D02*
X272062500Y-236745000D01*
X265462500Y-217055000D02*
X272062500Y-217055000D01*
X272062500Y-236745000D02*
X265462500Y-236745000D01*
X265462500Y-218375000D02*
X265462500Y-217055000D01*
X272062500Y-217055000D02*
X272062500Y-218375000D01*
X265462500Y-236745000D02*
X265462500Y-235425000D01*
D11*
X263807500Y-219280000D02*
G75*
G03*
X263807500Y-219280000I-100000J0D01*
G01*
D13*
X286930000Y-270705000D02*
X286930000Y-269375000D01*
X289530000Y-272035000D02*
X292130000Y-272035000D01*
X292130000Y-272035000D02*
X292130000Y-269375000D01*
X289530000Y-269375000D02*
X292130000Y-269375000D01*
X286930000Y-269375000D02*
X288260000Y-269375000D01*
X289530000Y-272035000D02*
X289530000Y-269375000D01*
X212238349Y-198696000D02*
X212238349Y-200780000D01*
X210157349Y-197778000D02*
X210157349Y-205862000D01*
X211918349Y-202860000D02*
X211918349Y-205185000D01*
X212878349Y-199366000D02*
X212878349Y-200780000D01*
X212478349Y-198913000D02*
X212478349Y-200780000D01*
X212118349Y-198600000D02*
X212118349Y-200780000D01*
X211638349Y-198280000D02*
X211638349Y-200780000D01*
X212038349Y-198540000D02*
X212038349Y-200780000D01*
X211998349Y-202860000D02*
X211998349Y-205129000D01*
X210398349Y-197818000D02*
X210398349Y-205822000D01*
X211238349Y-198080000D02*
X211238349Y-200780000D01*
X211718349Y-202860000D02*
X211718349Y-205313000D01*
X212318349Y-202860000D02*
X212318349Y-204875000D01*
X213078349Y-202860000D02*
X213078349Y-203986000D01*
X213078349Y-199654000D02*
X213078349Y-200780000D01*
X212318349Y-198765000D02*
X212318349Y-200780000D01*
X212118349Y-202860000D02*
X212118349Y-205040000D01*
X213358349Y-200175000D02*
X213358349Y-203465000D01*
X212438349Y-202860000D02*
X212438349Y-204765000D01*
X212278349Y-202860000D02*
X212278349Y-204910000D01*
X210117349Y-197772000D02*
X210117349Y-205868000D01*
X212998349Y-202860000D02*
X212998349Y-204107000D01*
X210598349Y-197863000D02*
X210598349Y-205777000D01*
X211038349Y-197999000D02*
X211038349Y-205641000D01*
X210478349Y-197835000D02*
X210478349Y-205805000D01*
X212078349Y-202860000D02*
X212078349Y-205070000D01*
X211438349Y-202860000D02*
X211438349Y-205467000D01*
X210718349Y-197895000D02*
X210718349Y-205745000D01*
X210958349Y-197970000D02*
X210958349Y-205670000D01*
X209997349Y-197759000D02*
X209997349Y-205881000D01*
X209677349Y-197740000D02*
X209677349Y-205900000D01*
X211198349Y-202860000D02*
X211198349Y-205577000D01*
X211998349Y-198511000D02*
X211998349Y-200780000D01*
X211198349Y-198063000D02*
X211198349Y-200780000D01*
X209597349Y-197740000D02*
X209597349Y-205900000D01*
X212638349Y-202860000D02*
X212638349Y-204561000D01*
X211838349Y-202860000D02*
X211838349Y-205238000D01*
X211678349Y-198303000D02*
X211678349Y-200780000D01*
X212398349Y-198837000D02*
X212398349Y-200780000D01*
X212718349Y-202860000D02*
X212718349Y-204471000D01*
X211358349Y-198134000D02*
X211358349Y-200780000D01*
X210798349Y-197918000D02*
X210798349Y-205722000D01*
X211118349Y-198030000D02*
X211118349Y-200780000D01*
X211958349Y-198482000D02*
X211958349Y-200780000D01*
X211278349Y-202860000D02*
X211278349Y-205542000D01*
X210758349Y-197906000D02*
X210758349Y-205734000D01*
X211878349Y-198428000D02*
X211878349Y-200780000D01*
X212518349Y-202860000D02*
X212518349Y-204687000D01*
X212838349Y-199315000D02*
X212838349Y-200780000D01*
X212598349Y-202860000D02*
X212598349Y-204604000D01*
X211078349Y-198015000D02*
X211078349Y-200780000D01*
X211438349Y-198173000D02*
X211438349Y-200780000D01*
X205187651Y-199505000D02*
X205987651Y-199505000D01*
X212398349Y-202860000D02*
X212398349Y-204803000D01*
X212678349Y-199123000D02*
X212678349Y-200780000D01*
X212998349Y-199533000D02*
X212998349Y-200780000D01*
X213158349Y-199786000D02*
X213158349Y-203854000D01*
X212718349Y-199169000D02*
X212718349Y-200780000D01*
X211158349Y-198046000D02*
X211158349Y-200780000D01*
X213638349Y-201052000D02*
X213638349Y-202588000D01*
X210918349Y-197957000D02*
X210918349Y-205683000D01*
X212158349Y-202860000D02*
X212158349Y-205009000D01*
X211118349Y-202860000D02*
X211118349Y-205610000D01*
X211598349Y-198258000D02*
X211598349Y-200780000D01*
X211158349Y-202860000D02*
X211158349Y-205594000D01*
X209757349Y-197743000D02*
X209757349Y-205897000D01*
X211238349Y-202860000D02*
X211238349Y-205560000D01*
X210237349Y-197790000D02*
X210237349Y-205850000D01*
X210318349Y-197803000D02*
X210318349Y-205837000D01*
X210878349Y-197943000D02*
X210878349Y-205697000D01*
X211558349Y-202860000D02*
X211558349Y-205404000D01*
X210678349Y-197884000D02*
X210678349Y-205756000D01*
X211678349Y-202860000D02*
X211678349Y-205337000D01*
X212758349Y-199216000D02*
X212758349Y-200780000D01*
X211638349Y-202860000D02*
X211638349Y-205360000D01*
X209837349Y-197746000D02*
X209837349Y-205894000D01*
X211478349Y-198193000D02*
X211478349Y-200780000D01*
X210277349Y-197796000D02*
X210277349Y-205844000D01*
X211718349Y-198327000D02*
X211718349Y-200780000D01*
X211758349Y-202860000D02*
X211758349Y-205289000D01*
X212758349Y-202860000D02*
X212758349Y-204424000D01*
X209797349Y-197744000D02*
X209797349Y-205896000D01*
X212518349Y-198953000D02*
X212518349Y-200780000D01*
X213318349Y-200089000D02*
X213318349Y-203551000D01*
X211558349Y-198236000D02*
X211558349Y-200780000D01*
X212958349Y-202860000D02*
X212958349Y-204165000D01*
X211318349Y-198116000D02*
X211318349Y-200780000D01*
X211958349Y-202860000D02*
X211958349Y-205158000D01*
X211918349Y-198455000D02*
X211918349Y-200780000D01*
X213438349Y-200367000D02*
X213438349Y-203273000D01*
X211398349Y-202860000D02*
X211398349Y-205486000D01*
X210518349Y-197844000D02*
X210518349Y-205796000D01*
X212278349Y-198730000D02*
X212278349Y-200780000D01*
X212838349Y-202860000D02*
X212838349Y-204325000D01*
X212918349Y-202860000D02*
X212918349Y-204220000D01*
X211878349Y-202860000D02*
X211878349Y-205212000D01*
X212958349Y-199475000D02*
X212958349Y-200780000D01*
X213278349Y-200007000D02*
X213278349Y-203633000D01*
X213038349Y-202860000D02*
X213038349Y-204048000D01*
X212358349Y-202860000D02*
X212358349Y-204839000D01*
X212558349Y-198994000D02*
X212558349Y-200780000D01*
X209957349Y-197755000D02*
X209957349Y-205885000D01*
X209637349Y-197740000D02*
X209637349Y-205900000D01*
X212158349Y-198631000D02*
X212158349Y-200780000D01*
X212798349Y-202860000D02*
X212798349Y-204376000D01*
X211598349Y-202860000D02*
X211598349Y-205382000D01*
X212198349Y-202860000D02*
X212198349Y-204976000D01*
X209717349Y-197741000D02*
X209717349Y-205899000D01*
X211758349Y-198351000D02*
X211758349Y-200780000D01*
X213398349Y-200268000D02*
X213398349Y-203372000D01*
X213238349Y-199930000D02*
X213238349Y-203710000D01*
X212558349Y-202860000D02*
X212558349Y-204646000D01*
X213118349Y-199718000D02*
X213118349Y-200780000D01*
X212238349Y-202860000D02*
X212238349Y-204944000D01*
X211798349Y-198376000D02*
X211798349Y-200780000D01*
X212678349Y-202860000D02*
X212678349Y-204517000D01*
X213198349Y-199856000D02*
X213198349Y-203784000D01*
X210838349Y-197931000D02*
X210838349Y-205709000D01*
X210358349Y-197810000D02*
X210358349Y-205830000D01*
X205587651Y-199105000D02*
X205587651Y-199905000D01*
X211518349Y-198214000D02*
X211518349Y-200780000D01*
X212598349Y-199036000D02*
X212598349Y-200780000D01*
X211798349Y-202860000D02*
X211798349Y-205264000D01*
X212038349Y-202860000D02*
X212038349Y-205100000D01*
X211518349Y-202860000D02*
X211518349Y-205426000D01*
X209877349Y-197749000D02*
X209877349Y-205891000D01*
X212438349Y-198875000D02*
X212438349Y-200780000D01*
X212198349Y-198664000D02*
X212198349Y-200780000D01*
X211358349Y-202860000D02*
X211358349Y-205506000D01*
X211398349Y-198154000D02*
X211398349Y-200780000D01*
X211318349Y-202860000D02*
X211318349Y-205524000D01*
X213678349Y-201287000D02*
X213678349Y-202353000D01*
X211478349Y-202860000D02*
X211478349Y-205447000D01*
X212078349Y-198570000D02*
X212078349Y-200780000D01*
X212638349Y-199079000D02*
X212638349Y-200780000D01*
X210998349Y-197985000D02*
X210998349Y-205655000D01*
X210558349Y-197853000D02*
X210558349Y-205787000D01*
X210037349Y-197763000D02*
X210037349Y-205877000D01*
X213038349Y-199592000D02*
X213038349Y-200780000D01*
X210638349Y-197873000D02*
X210638349Y-205767000D01*
X210197349Y-197783000D02*
X210197349Y-205857000D01*
X212798349Y-199264000D02*
X212798349Y-200780000D01*
X212878349Y-202860000D02*
X212878349Y-204274000D01*
X212358349Y-198801000D02*
X212358349Y-200780000D01*
X212918349Y-199420000D02*
X212918349Y-200780000D01*
X213598349Y-200872000D02*
X213598349Y-202768000D01*
X210077349Y-197768000D02*
X210077349Y-205872000D01*
X213558349Y-200722000D02*
X213558349Y-202918000D01*
X210438349Y-197826000D02*
X210438349Y-205814000D01*
X211838349Y-198402000D02*
X211838349Y-200780000D01*
X213118349Y-202860000D02*
X213118349Y-203922000D01*
X212478349Y-202860000D02*
X212478349Y-204727000D01*
X213478349Y-200474000D02*
X213478349Y-203166000D01*
X211078349Y-202860000D02*
X211078349Y-205625000D01*
X213518349Y-200591000D02*
X213518349Y-203049000D01*
X209917349Y-197752000D02*
X209917349Y-205888000D01*
X211278349Y-198098000D02*
X211278349Y-200780000D01*
X213717349Y-201820000D02*
G75*
G03*
X213717349Y-201820000I-4120000J0D01*
G01*
X219930000Y-239290000D02*
X227170000Y-239290000D01*
X219930000Y-239290000D02*
X219930000Y-241530000D01*
X227170000Y-239290000D02*
X227170000Y-241530000D01*
X219930000Y-241530000D02*
X227170000Y-241530000D01*
X235420000Y-264410000D02*
X242660000Y-264410000D01*
X235420000Y-264410000D02*
X235420000Y-266650000D01*
X235420000Y-266650000D02*
X242660000Y-266650000D01*
X242660000Y-264410000D02*
X242660000Y-266650000D01*
D14*
X265400000Y-242105000D02*
X272000000Y-242105000D01*
X265400000Y-261795000D02*
X265400000Y-260475000D01*
X272000000Y-261795000D02*
X265400000Y-261795000D01*
X272000000Y-242105000D02*
X272000000Y-243425000D01*
X265400000Y-243425000D02*
X265400000Y-242105000D01*
X272000000Y-260475000D02*
X272000000Y-261795000D01*
D11*
X263745000Y-244330000D02*
G75*
G03*
X263745000Y-244330000I-100000J0D01*
G01*
D14*
X205550000Y-261745000D02*
X205550000Y-260425000D01*
X212150000Y-242055000D02*
X212150000Y-243375000D01*
X212150000Y-261745000D02*
X205550000Y-261745000D01*
X205550000Y-243375000D02*
X205550000Y-242055000D01*
X212150000Y-260425000D02*
X212150000Y-261745000D01*
X205550000Y-242055000D02*
X212150000Y-242055000D01*
D11*
X203895000Y-244280000D02*
G75*
G03*
X203895000Y-244280000I-100000J0D01*
G01*
D14*
X256950000Y-260425000D02*
X256950000Y-261745000D01*
X250350000Y-242055000D02*
X256950000Y-242055000D01*
X256950000Y-261745000D02*
X250350000Y-261745000D01*
X256950000Y-242055000D02*
X256950000Y-243375000D01*
X250350000Y-243375000D02*
X250350000Y-242055000D01*
X250350000Y-261745000D02*
X250350000Y-260425000D01*
D11*
X248695000Y-244280000D02*
G75*
G03*
X248695000Y-244280000I-100000J0D01*
G01*
%LPC*%
D15*
X251130000Y-240340000D03*
X256130000Y-240340000D03*
D16*
X204752500Y-219330000D03*
D17*
X204752500Y-221870000D03*
X204752500Y-224410000D03*
X204752500Y-226950000D03*
X204752500Y-229490000D03*
X204752500Y-232030000D03*
X204752500Y-234570000D03*
X212692500Y-234570000D03*
X212692500Y-232030000D03*
X212692500Y-229490000D03*
X212692500Y-226950000D03*
X212692500Y-224410000D03*
X212692500Y-221870000D03*
X212692500Y-219330000D03*
D15*
X259460000Y-265320000D03*
X264460000Y-265320000D03*
D18*
X296420000Y-241810000D03*
D19*
X296420000Y-246890000D03*
D18*
X293940000Y-262500000D03*
D19*
X293940000Y-257420000D03*
D16*
X276870000Y-205447500D03*
D17*
X279410000Y-205447500D03*
X281950000Y-205447500D03*
X284490000Y-205447500D03*
X287030000Y-205447500D03*
X289570000Y-205447500D03*
X292110000Y-205447500D03*
X292110000Y-197507500D03*
X289570000Y-197507500D03*
X287030000Y-197507500D03*
X284490000Y-197507500D03*
X281950000Y-197507500D03*
X279410000Y-197507500D03*
X276870000Y-197507500D03*
D18*
X276060000Y-262470000D03*
D19*
X276060000Y-267550000D03*
D16*
X210930000Y-269390000D03*
D17*
X210930000Y-271930000D03*
X210930000Y-274470000D03*
X210930000Y-277010000D03*
X210930000Y-279550000D03*
X210930000Y-282090000D03*
X210930000Y-284630000D03*
X218870000Y-284630000D03*
X218870000Y-282090000D03*
X218870000Y-279550000D03*
X218870000Y-277010000D03*
X218870000Y-274470000D03*
X218870000Y-271930000D03*
X218870000Y-269390000D03*
D16*
X249742500Y-219280000D03*
D17*
X249742500Y-221820000D03*
X249742500Y-224360000D03*
X249742500Y-226900000D03*
X249742500Y-229440000D03*
X249742500Y-231980000D03*
X249742500Y-234520000D03*
X257682500Y-234520000D03*
X257682500Y-231980000D03*
X257682500Y-229440000D03*
X257682500Y-226900000D03*
X257682500Y-224360000D03*
X257682500Y-221820000D03*
X257682500Y-219280000D03*
D18*
X296770000Y-262550000D03*
D19*
X296770000Y-257470000D03*
D16*
X279892500Y-244330000D03*
D17*
X279892500Y-246870000D03*
X279892500Y-249410000D03*
X279892500Y-251950000D03*
X279892500Y-254490000D03*
X279892500Y-257030000D03*
X279892500Y-259570000D03*
X287832500Y-259570000D03*
X287832500Y-257030000D03*
X287832500Y-254490000D03*
X287832500Y-251950000D03*
X287832500Y-249410000D03*
X287832500Y-246870000D03*
X287832500Y-244330000D03*
D15*
X236310000Y-240400000D03*
X241310000Y-240400000D03*
X206290000Y-240370000D03*
X211290000Y-240370000D03*
D16*
X234842500Y-244330000D03*
D17*
X234842500Y-246870000D03*
X234842500Y-249410000D03*
X234842500Y-251950000D03*
X234842500Y-254490000D03*
X234842500Y-257030000D03*
X234842500Y-259570000D03*
X242782500Y-259570000D03*
X242782500Y-257030000D03*
X242782500Y-254490000D03*
X242782500Y-251950000D03*
X242782500Y-249410000D03*
X242782500Y-246870000D03*
X242782500Y-244330000D03*
D18*
X293640000Y-241830000D03*
D19*
X293640000Y-246910000D03*
D15*
X251160000Y-215400000D03*
X256160000Y-215400000D03*
D18*
X275640000Y-244620000D03*
D19*
X275640000Y-249700000D03*
D18*
X296600000Y-216710000D03*
D19*
X296600000Y-221790000D03*
D15*
X206200000Y-215470000D03*
X211200000Y-215470000D03*
D20*
X241345000Y-193030000D03*
D21*
X238805000Y-193030000D03*
X236265000Y-193030000D03*
X233725000Y-193030000D03*
X231185000Y-193030000D03*
X228645000Y-193030000D03*
X226105000Y-193030000D03*
X223565000Y-193030000D03*
D15*
X281380000Y-215440000D03*
X286380000Y-215440000D03*
D18*
X296450000Y-234070000D03*
D19*
X296450000Y-228990000D03*
D16*
X279780000Y-219280000D03*
D17*
X279780000Y-221820000D03*
X279780000Y-224360000D03*
X279780000Y-226900000D03*
X279780000Y-229440000D03*
X279780000Y-231980000D03*
X279780000Y-234520000D03*
X287720000Y-234520000D03*
X287720000Y-231980000D03*
X287720000Y-229440000D03*
X287720000Y-226900000D03*
X287720000Y-224360000D03*
X287720000Y-221820000D03*
X287720000Y-219280000D03*
D18*
X293810000Y-216700000D03*
D19*
X293810000Y-221780000D03*
D15*
X212270000Y-265520000D03*
X217270000Y-265520000D03*
D20*
X281845000Y-190860000D03*
D21*
X279305000Y-190860000D03*
X276765000Y-190860000D03*
X274225000Y-190860000D03*
X271685000Y-190860000D03*
X269145000Y-190860000D03*
X266605000Y-190860000D03*
X264065000Y-190860000D03*
D15*
X272710000Y-203980000D03*
X272710000Y-198980000D03*
D16*
X253050000Y-205200000D03*
D17*
X255590000Y-205200000D03*
X258130000Y-205200000D03*
X260670000Y-205200000D03*
X263210000Y-205200000D03*
X265750000Y-205200000D03*
X268290000Y-205200000D03*
X268290000Y-197260000D03*
X265750000Y-197260000D03*
X263210000Y-197260000D03*
X260670000Y-197260000D03*
X258130000Y-197260000D03*
X255590000Y-197260000D03*
X253050000Y-197260000D03*
D15*
X221210000Y-215440000D03*
X226210000Y-215440000D03*
X236260000Y-215370000D03*
X241260000Y-215370000D03*
D16*
X235240000Y-269450000D03*
D17*
X235240000Y-271990000D03*
X235240000Y-274530000D03*
X235240000Y-277070000D03*
X235240000Y-279610000D03*
X235240000Y-282150000D03*
X235240000Y-284690000D03*
X243180000Y-284690000D03*
X243180000Y-282150000D03*
X243180000Y-279610000D03*
X243180000Y-277070000D03*
X243180000Y-274530000D03*
X243180000Y-271990000D03*
X243180000Y-269450000D03*
D20*
X210720000Y-193880000D03*
D21*
X208180000Y-193880000D03*
D18*
X293760000Y-234050000D03*
D19*
X293760000Y-228970000D03*
D16*
X258240000Y-269220000D03*
D17*
X258240000Y-271760000D03*
X258240000Y-274300000D03*
X258240000Y-276840000D03*
X258240000Y-279380000D03*
X258240000Y-281920000D03*
X258240000Y-284460000D03*
X266180000Y-284460000D03*
X266180000Y-281920000D03*
X266180000Y-279380000D03*
X266180000Y-276840000D03*
X266180000Y-274300000D03*
X266180000Y-271760000D03*
X266180000Y-269220000D03*
D18*
X276220000Y-270610000D03*
D19*
X281300000Y-270610000D03*
D15*
X266160000Y-215350000D03*
X271160000Y-215350000D03*
X281370000Y-240420000D03*
X286370000Y-240420000D03*
X248780000Y-203790000D03*
X248780000Y-198790000D03*
D16*
X219780000Y-219330000D03*
D17*
X219780000Y-221870000D03*
X219780000Y-224410000D03*
X219780000Y-226950000D03*
X219780000Y-229490000D03*
X219780000Y-232030000D03*
X219780000Y-234570000D03*
X227720000Y-234570000D03*
X227720000Y-232030000D03*
X227720000Y-229490000D03*
X227720000Y-226950000D03*
X227720000Y-224410000D03*
X227720000Y-221870000D03*
X227720000Y-219330000D03*
D15*
X266070000Y-240250000D03*
X271070000Y-240250000D03*
D16*
X234842500Y-219280000D03*
D17*
X234842500Y-221820000D03*
X234842500Y-224360000D03*
X234842500Y-226900000D03*
X234842500Y-229440000D03*
X234842500Y-231980000D03*
X234842500Y-234520000D03*
X242782500Y-234520000D03*
X242782500Y-231980000D03*
X242782500Y-229440000D03*
X242782500Y-226900000D03*
X242782500Y-224360000D03*
X242782500Y-221820000D03*
X242782500Y-219280000D03*
D16*
X219730000Y-244330000D03*
D17*
X219730000Y-246870000D03*
X219730000Y-249410000D03*
X219730000Y-251950000D03*
X219730000Y-254490000D03*
X219730000Y-257030000D03*
X219730000Y-259570000D03*
X227670000Y-259570000D03*
X227670000Y-257030000D03*
X227670000Y-254490000D03*
X227670000Y-251950000D03*
X227670000Y-249410000D03*
X227670000Y-246870000D03*
X227670000Y-244330000D03*
D20*
X241685000Y-202120000D03*
D21*
X239145000Y-202120000D03*
X236605000Y-202120000D03*
X234065000Y-202120000D03*
X231525000Y-202120000D03*
X228985000Y-202120000D03*
X226445000Y-202120000D03*
X223905000Y-202120000D03*
D18*
X276110000Y-254450000D03*
D19*
X276110000Y-259530000D03*
D16*
X264792500Y-219280000D03*
D17*
X264792500Y-221820000D03*
X264792500Y-224360000D03*
X264792500Y-226900000D03*
X264792500Y-229440000D03*
X264792500Y-231980000D03*
X264792500Y-234520000D03*
X272732500Y-234520000D03*
X272732500Y-231980000D03*
X272732500Y-229440000D03*
X272732500Y-226900000D03*
X272732500Y-224360000D03*
X272732500Y-221820000D03*
X272732500Y-219280000D03*
D20*
X288260000Y-270705000D03*
D21*
X290800000Y-270705000D03*
D22*
X207097349Y-201820000D03*
D15*
X212097349Y-201820000D03*
X221050000Y-240410000D03*
X226050000Y-240410000D03*
X236540000Y-265530000D03*
X241540000Y-265530000D03*
D16*
X264730000Y-244330000D03*
D17*
X264730000Y-246870000D03*
X264730000Y-249410000D03*
X264730000Y-251950000D03*
X264730000Y-254490000D03*
X264730000Y-257030000D03*
X264730000Y-259570000D03*
X272670000Y-259570000D03*
X272670000Y-257030000D03*
X272670000Y-254490000D03*
X272670000Y-251950000D03*
X272670000Y-249410000D03*
X272670000Y-246870000D03*
X272670000Y-244330000D03*
D16*
X204880000Y-244280000D03*
D17*
X204880000Y-246820000D03*
X204880000Y-249360000D03*
X204880000Y-251900000D03*
X204880000Y-254440000D03*
X204880000Y-256980000D03*
X204880000Y-259520000D03*
X212820000Y-259520000D03*
X212820000Y-256980000D03*
X212820000Y-254440000D03*
X212820000Y-251900000D03*
X212820000Y-249360000D03*
X212820000Y-246820000D03*
X212820000Y-244280000D03*
D16*
X249680000Y-244280000D03*
D17*
X249680000Y-246820000D03*
X249680000Y-249360000D03*
X249680000Y-251900000D03*
X249680000Y-254440000D03*
X249680000Y-256980000D03*
X249680000Y-259520000D03*
X257620000Y-259520000D03*
X257620000Y-256980000D03*
X257620000Y-254440000D03*
X257620000Y-251900000D03*
X257620000Y-249360000D03*
X257620000Y-246820000D03*
X257620000Y-244280000D03*
M02*
